<svg class="sigma-svg" xmlns="http://www.w3.org/2000/svg" width="1000" height="1000"><style>.sigma-node{fill:#a59643}.c-0{fill:#a85587}.c-1{fill:#a3548a}.c-2{fill:#9e538c}.c-3{fill:#7f8b55}.c-4{fill:#94938d}.c-5{fill:#ea635c}.c-6{fill:#87c46b}.c-7{fill:#c85190}.c-8{fill:#c45b77}.c-9{fill:#71885a}.c-10{fill:#e6625f}.c-11{fill:#c67d9b}.c-12{fill:#d44483}.c-13{fill:#de5075}.c-14{fill:#e85d64}.c-15{fill:#e75b66}.c-16{fill:#b968a6}.c-17{fill:#a86d9e}.c-18{fill:#6b61aa}.c-19{fill:#bd9c5b}.c-20{fill:#93914c}.c-21{fill:#787688}.c-22{fill:#d8497d}.c-23{fill:#b3766a}.c-24{fill:#ba8495}.c-25{fill:#cb69aa}.c-26{fill:#c17a59}.c-27{fill:#5e99aa}.c-28{fill:#5f8cac}.c-29{fill:#7f909e}.c-30{fill:#b36aa3}.c-31{fill:#879199}.c-32{fill:#8c8f4f}.c-33{fill:#5874b5}.c-34{fill:#b4a773}.c-35{fill:#c7789f}.c-36{fill:#bf5a79}.c-37{fill:#6bbf8f}.c-38{fill:#c464ac}.c-39{fill:#d5a421}.c-40{fill:#9f7281}.c-41{fill:#999249}.c-42{fill:#885097}.c-43{fill:#bd795f}.c-44{fill:#ac9f98}.c-45{fill:#5ba3a8}.c-46{fill:#5f8fab}.c-47{fill:#b6587f}.c-48{fill:#6a865c}.c-49{fill:#78c181}.c-50{fill:#ca7d4c}.c-51{fill:#c49f31}.c-52{fill:#5f85ad}.c-53{fill:#8c6e92}.c-54{fill:#b87865}.c-55{fill:#93708c}.c-56{fill:#dd8325}.c-57{fill:#d68137}.c-58{fill:#a4737c}.c-59{fill:#e58606}.c-60{fill:#997187}.c-61{fill:#4780bd}.c-62{fill:#d9a51e}.c-63{fill:#c38694}.c-64{fill:#aaa398}.c-65{fill:#aa9875}.c-66{fill:#3a8ac1}.c-67{fill:#487e66}.c-68{fill:#e55a68}.c-69{fill:#b49096}.c-70{fill:#5d9da9}.c-71{fill:#d34285}.c-72{fill:#90c65b}.c-73{fill:#8cc563}.c-74{fill:#5d6ab1}.c-75{fill:#646aad}.c-76{fill:#3987c2}.c-77{fill:#5f82ae}.c-78{fill:#58aea6}.c-79{fill:#ec625d}.c-80{fill:#3389c3}.c-81{fill:#ce3d8b}.c-82{fill:#5ca0a8}.c-84{fill:#4f7877}.c-85{fill:#8d9293}.c-86{fill:#ae9b97}.c-87{fill:#6d5ea8}.c-88{fill:#5e96aa}.c-89{fill:#5e6fb2}.c-90{fill:#e3576c}.c-91{fill:#99c946}.c-92{fill:#e18519}.c-93{fill:#5f7baf}.c-94{fill:#5f89ac}.c-95{fill:#5e71b0}.c-96{fill:#ed645b}.c-97{fill:#5e6eb0}.c-98{fill:#ce7e45}.c-99{fill:#6e6aa8}.c-100{fill:#6c7782}.c-101{fill:#5e93ab}.c-102{fill:#89c567}.c-103{fill:#96c84e}.c-104{fill:#56787a}.c-105{fill:#b89b39}.c-106{fill:#c29e54}.c-107{fill:#b88895}.c-108{fill:#bb597c}.c-109{fill:#c69f4d}.c-110{fill:#a7ba5c}.c-111{fill:#977195}.c-112{fill:#94c752}.c-113{fill:#a5977b}.c-114{fill:#c46692}.c-115{fill:#e4586a}.c-116{fill:#da822f}.c-117{fill:#be9388}.c-118{fill:#c9a02c}.c-119{fill:#c56191}.c-120{fill:#9c7098}.c-121{fill:#be9d35}.c-122{fill:#e95f61}.c-123{fill:#518063}.c-124{fill:#b15782}.c-125{fill:#b2993c}.c-126{fill:#4382bf}.c-127{fill:#8e5195}.c-128{fill:#b99b62}.c-129{fill:#bb8094}.c-130{fill:#6e8eaa}.c-131{fill:#aab661}.c-132{fill:#b49a68}.c-133{fill:#3e84c0}.c-134{fill:#917293}.c-135{fill:#75c085}.c-136{fill:#b6a377}.c-137{fill:#82c372}.c-138{fill:#ae6ca1}.c-139{fill:#7256a4}.c-140{fill:#d6a42a}.c-141{fill:#c75790}.c-142{fill:#63be96}.c-143{fill:#57b1a5}.c-144{fill:#598cb6}.c-145{fill:#5e787d}.c-146{fill:#317b6a}.c-147{fill:#d55e6b}.c-148{fill:#727685}.c-149{fill:#4f7bba}.c-150{fill:#5576b7}.c-151{fill:#caa045}.c-152{fill:#b09897}.c-153{fill:#db4c79}.c-154{fill:#be7893}.c-155{fill:#ca6fa7}.c-156{fill:#5a8261}.c-157{fill:#62845f}.c-158{fill:#788957}.c-159{fill:#52bba3}.c-160{fill:#c26b92}.c-161{fill:#c57b52}.c-162{fill:#5f74af}.c-163{fill:#da4b7b}.c-164{fill:#ae7570}.c-165{fill:#5bbd9d}.c-166{fill:#e26162}.c-167{fill:#72c088}.c-168{fill:#54b8a4}.c-169{fill:#5ba7a7}.c-170{fill:#c07493}.c-171{fill:#7f758a}.c-172{fill:#c08f8c}.c-173{fill:#d14087}.c-174{fill:#85c46f}.c-175{fill:#9dc54c}.c-176{fill:#6963ab}.c-177{fill:#cc5c71}.c-178{fill:#7e6c9d}.c-179{fill:#98538f}.c-180{fill:#3d7c68}.c-181{fill:#dc4e77}.c-182{fill:#6e5ca7}.c-183{fill:#85748d}.c-184{fill:#626baf}.c-185{fill:#ac9840}.c-186{fill:#cb3f8e}.c-187{fill:#4b7dbc}.c-188{fill:#cea13d}.c-189{fill:#935292}.c-190{fill:#ba9b80}.c-191{fill:#8ec65f}.c-192{fill:#d95f68}.c-193{fill:#a09681}.c-194{fill:#8b7390}.c-195{fill:#a26f9b}.c-196{fill:#b68c96}.c-197{fill:#c874a3}.c-198{fill:#ca458f}.c-199{fill:#778fa4}.c-200{fill:#6568ae}.c-201{fill:#824f9a}.c-202{fill:#de6065}.c-203{fill:#9a9487}.c-204{fill:#7059a5}.c-205{fill:#c58297}.c-206{fill:#866d97}.c-207{fill:#5f78af}.c-208{fill:#5f7fae}.c-209{fill:#766ba2}.c-210{fill:#92c757}.c-211{fill:#d27f3e}.c-212{fill:#ea605f}.c-213{fill:#80c276}.c-214{fill:#a4be57}.c-215{fill:#33796f}.c-216{fill:#bc9784}.c-217{fill:#5b72b4}.c-218{fill:#b89f7c}.c-219{fill:#5fbd9a}.c-220{fill:#97c849}.c-221{fill:#adb366}.c-222{fill:#a97476}.c-223{fill:#27796c}.c-224{fill:#7bc17d}.c-225{fill:#afaf6a}.c-226{fill:#d15d6e}.c-227{fill:#7c4f9d}.c-228{fill:#7dc27a}.c-229{fill:#d2a235}.c-230{fill:#6766ac}.c-231{fill:#d7477f}.c-232{fill:#d54681}.c-233{fill:#c94c8f}.c-234{fill:#4b8bbc}.c-235{fill:#bd7c94}.c-236{fill:#5aaaa7}.c-237{fill:#cc64ae}.c-238{fill:#67be93}.c-239{fill:#9f9446}.c-240{fill:#d03e89}.c-241{fill:#ad5684}.c-242{fill:#5279b9}.c-243{fill:#7451a1}.c-244{fill:#c28b90}.c-245{fill:#467975}.c-246{fill:#cd3b8d}.c-247{fill:#56bca0}.c-248{fill:#606db1}.c-249{fill:#a0c151}.c-250{fill:#6ebf8c}.c-251{fill:#56b4a5}.c-252{fill:#b29497}.c-253{fill:#df5273}.c-254{fill:#7354a2}.c-255{fill:#65777f}.c-256{fill:#af996e}.c-257{fill:#764e9f}.c-258{fill:#3d7972}.c-259{fill:#648db0}.c-260{fill:#c85c74}.c-261{fill:#b2ab6f}.c-262{fill:#e2556e}.c-263{fill:#c962af}.c-264{fill:#cfa227}.c-265{fill:#e05371}.c-266{fill:#c16f93}.c-268{fill:#be66a9}.c-269{fill:#c65c91}.c-270{fill:#868d52}.sigma-edge{stroke:#bababa}</style><g id="sigma-group-edges" class="sigma-group"><path class="sigma-edge" stroke-width=".625" d="M705.85 275.964l2.227-7.989m8.386 201.086l23.154 7.066m-1.217 13.575l1.217-13.575M696.55 182.498l5.706-5.674m21.57 456.988l6.624-5.75m22.196-147.439l-13.029-4.496m-555.18 202.311l-3.967 4.464m665.005-321.231l6.536-1.711m-230.373 52.226l-29.936-19.454m29.936 19.454l23.225 20.152M106.205 588.942l-5.454-2.403M477.388 79.928l-3.289-5.017m79.243 457.07l3.092-6.619m157.421 248.189l5.717 1.686m87.245-232.046l1.734-6.486M262.56 565.146l-5.986-.033m279.86-37.129l5.273 17.057m-5.273-17.057l43.232-33.475m-43.232 33.475l-46.547 13.265m-362.624 63.296l4.25 4.138m436.731 186.531l.461 6.624M731.87 669.259l.82 7.989m1.524-222.464l5.403 21.343m-169.051 14.409l9.1 3.973m-23.727-259.796l-1.211 7.069m1.211-7.069l1.446-7.738m-329.613 281.44l-8.714-1.623m382.981-385.021l5.169-2.97m-7.629 143.948l-6.18-1.974m-330.692 98.599l3.857-7.123m-97.097-107.889l5.962-5.363m238.362-51.83l-6.075 3.889m102.622 166.821l-11.773-7.75m21.841 133.718l-2.172-6.163m-17.8-112.247l-1.869-15.308m317.034 336.666l-5.98-.247M598.021 467.767l1.004-6.81M498.532 808.552l7.988.183m-14.2-254.029l-2.433-13.457M88.781 412.408l3.398-7.265m394.079 49.82l-1.137 28.669m1.137-28.669l3.085 8.743m-3.085-8.743l13.928 18.858m-13.928-18.858l-7.339 6.157m7.339-6.157l9.367-19.865m-9.367 19.865l-22.57-17.83m65.829-245.382l-7.782 1.892m-246 437.197l-5.067 3.228m479.716-167.484l-10.767 9.543m-638.753-19.788l5.615 2.041m394.872 124.697l1.254-7.945M723.48 469.997l16.137 6.13M605.449 208.215l4.087-6.262m145.117 175.246l6.371-2.518M656.766 219.182l5.903-.853m-270.24 426.37l4.683-5.857m-4.683 5.857l-5.455-3.624m390.989 128.621l-5.839 1.058M168.82 435.316l.518 6.466m362.775 317.407l-6.188 3.152m-224.94-114.947l-5.952.028m-7.921-425.963l7.803-1.897m-9.078 47.354l9.578 1.891M474.504 527.15l15.383 14.099m-5.495-186.281l14.173-4.839M331.158 475.15l-.186 12.276m162.229-360.47l-5.236 2.791m81.142 560.009l8.424-5.189m-8.424 5.189l-9.744 2.492m9.744-2.492l-3.502-6.964m-86.683-131.643l10.965-9.9m81.632 136.367l6.012 6.951m-322.533-88.035l-6.228 4.808m433.037-186.391l-5.005-5.521m-223.933 66.278l3.138 6.829"/><path class="sigma-edge" stroke-width=".75" d="M275.524 680.806l-5.951.169"/><path class="sigma-edge" stroke-width=".625" d="M630.861 632.519l-7.098.73M405.1 450.779l4.405-5.674m93.217-109.052l-4.157 14.076m-143.499-1.199l-6.786-11.624m6.786 11.624l5.842 10.596M819.17 622.928l5.79-1.485M485.149 348.136l13.416 1.993m63.515 348.555l-2.717-6.436m297.381-40.519l-4.909-3.459M531.728 412.949l3.46-9.393m-195.83 72.719l-8.386 11.151m163.289 36.421l-4.374 17.402M321.66 524.192l10.557-3.004m-10.557 3.004l-4.086 7.731m4.086-7.731l-9.038.271m9.038-.271l8.98 3.781m-8.98-3.781l-2.887 20.458m2.887-20.458l-5.053-7.717m5.053 7.717l2.274 9.109m-2.274-9.109l9.312-36.766m-9.312 36.766l4.131-9.388m161.245-123.841l8.195-1.341m-8.195 1.341l-5.711 4.378m8.49-202.289l-4.081-10.147m33.706 580.749l6.485-1.313m-71.658-631.15l3.992-4.411m440.634 195.069l-3.436-7.204M575.559 51.466l-8.011.224M192.973 483.389l4.353 4.054m246.744-56.815l6.372.166m198.107-173.593l3.156 6.051M503.003 536.897l-13.116 4.352m240.184 96.971l.379-10.158M318.441 730.961l-6.177 2.857m6.177-2.857l4.949-5.834m266.661 39.77l-5.49 3.689m5.49-3.689l-1.409-6.812m-45.405-373.704l10.961 4.071m-218.871 80.87l-4.355 18.104m87.086-41.702l-8.553-.619m8.553.619l9.286-4.958M235.462 797.263l-4.918-6.257m18.815-72.857l5.508 4.056m587.641-59.665l-5.07 6.193m-99.907-46.047l-7.081 5.376m66.663 34.809l-3.258 6.047M658.957 266.02l-7.252-2.768M291.969 793.088l1.458 5.767m443.812-338.107l2.378 15.379m-279.04 131.136l8.574-9.062M238.778 318.963l-2.979-5.211M538.918 500.56l7.357.128m-223.838-22.011l-6.469-4.661m6.469 4.661l8.535 8.749m-6.222 279.798l.212-5.955m46.075-399.756l-10.129-1.987M484.543 555.88l5.344-14.631m81.071-29.371l-24.683-11.19m24.683 11.19l24.605 6.7m-24.605-6.7l1.484 8.093m-116.78 42.673l5.733-2.549m14.36-23.544l14.132 4.698m175.092-428.446l7.228 3.126m-7.228-3.126l-4.548 6.727M494.705 504.709l5.481-30.888m-5.481 30.888l-4.818 36.54m-18.411-.308l18.411.308m-133.35-201.301l-8.257-2.642m241.111-70.828l4.008-5.703M471.89 438.907l-8.202-1.774m70.342 484.674l7.925-1.034M604.662 498.5l-24.996-3.991m24.996 3.991l21.071 2.295m53.556 117.801l-6.054 5.57m6.054-5.57l-1.39-7.559m112.394-187.396l1.214 7.896M659.594 866.84l-7.703 2.07M193.63 548.979l2.95 5.85m43.955-357.904l-5.753 1.464M912.12 585.084l1.703-7.806M664.38 235.333l5.933.426m-73.076 145.322l-3.055-6.34m3.055 6.34l-5.535 11.651M374.02 118.485l-2.814-5.284m470.006 488.772l5.591 2.171M342.207 636.56l-4.605 6.176m.363-467.546l-.912-5.911m34.202-36.398l-7.552 2.596M701.34 271.318l6.737-3.343M400.406 128.102l5.849-5.504m101.169 461.535l-4.819-9.001m2.797 82.001l8.056-.395m-150.069 75.494l-.718 7.611m-208.902 5.51l5.462 5.823m156.509-79.455l-5.939-.113m281.134-289.279l.767 10.403M359.111 673.828l-4.587 5.925m-6.826-187.207l-16.726-5.12m273.622-95.227l-12.892.533m-231.431-18.945l.585 6.492m-.585-6.492l.637-14.261m319.285 40.251l-3.391 9.651m-356.554 56.951l10.724 21.047m-10.724-21.047l-6.307-7.847m61.672-209.285l4.368 9.516m-41.211 77.384l9.51 1.159m5.467 162.207l-22.775-12.087m22.775 12.087l10.745 14.128m364.768-45.74l10.357 8.226M543.875 367.661l-45.31-17.532m45.31 17.532l47.827 25.071m65.496-267.853l3.233-5.349m85.294 446.211l3.258-6.002m-3.258 6.002l-7-3.943m7 3.943l-4.655 5.327M404.942 198.562l-5.789-5.374m5.789 5.374l7.621 2.826m-7.621-2.826l2.774-7.504m48.556 243.705l7.416 2.37m-7.416-2.37l-5.83-3.969m111.937-33.288l-8.181-9.054m8.181 9.054l-27.191 6.05m27.191-6.05l29.323-4.774m-5.685 40.526l5.455 3.766M287.95 763.475l2.351 5.447m500.04-477.592l3.13 5.596M503.078 465.537l-2.892 8.284m-29.469 44.263l19.17 23.165m11.877-365.11l-.496-5.921m35.587 381.886l4.852-7.063m18.692-9.073l-3.965-10.606m3.965 10.606l3.909 6.841m181.044-47.038l-5.735-19.644m-189.862 37.89l6.679 11.345m-6.679-11.345l-3.48-13.329M262.432 155.924l2.418 5.467m290.884 236.99l-1.536-9.929m-275.024-33.71l-12.61-2.491M185.93 523.037l-3.943-4.437m306.407-230.024l-1.334 8.216m241.6 195.446l10.957-16.111M210.516 630.35l-5.401-2.499m480.532-218.574l-8.845.151m42.537 65.547l20.278 1.152M428.021 743.073l-6.401-1.186m6.401 1.186l2.41-6.814M787.133 358.59l-3.895 4.565M674.68 604.556l3.219 6.481m-5.964 216.659l4.756-6.406M502.389 483.483l-2.203-9.662m-272.909 28.121l-8.219 4.85M754.422 719.77l-3.689-4.698M251.9 304.86l-1.736-5.709m361.253 77.641l-19.715 15.94m19.715-15.94l11.875-11.006m-400.978 48.958l-2.563 8.062m18.436 20.182l-7.097-5.644m292.743 317.255l2.092 7.742m204.564-141.964l-.039 7.685M643.695 440.07l1.168-7.732M345.52 472.581l-14.548 14.845m56.925-226.019l-7.916-2.644m101.638 20.586l-2.164 8.751m131.538 66.964l-5.827 6.068m-38.079-253.104l2.32 5.499M209.431 719.63l5.783 1.342m53.334-358.118l-1.984-10.603m1.984 10.603l3.919 5.298m487.437-1.727l1.12 8.256m-317.337 63.952l20.001-1.5m-20.001 1.5l-16.343 2.133m277.459-256.853l-2.547-7.089m49.183 93.866l-6.68-4.441m-28.278-34.193l-5.525-4.47m5.525 4.47l-3.392 7.582M685.247 606.7l-7.348 4.337m53.558-482.654l5.875 5.39m150.071 470.546l1.206 5.823M653.526 436.125l-8.663-3.787M510.219 578.719l-7.614-3.587m161.637-155.661l12.56-10.043m-12.56 10.043l-19.379 12.867m143.266-30.929l-3.06-7.375M482.485 522.129l7.402 19.12m308.649 77.478l1.788-6.742m-1.788 6.742l-7.068-2.624m-84.08-372.628l5.701-3.837m-77.28 476.148l4.612-4.201m-14.543-174.734l-3.564-6.876m3.564 6.876l2.386 5.825M516.105 337.795l-17.54 12.334m17.54-12.334l1.871 6.4m-31.999 165.142l-.856-25.705m.856 25.705l3.91 31.912m155.523 134.33l-5.655 3.192M527.498 407.154l7.69-3.598M259.567 716.13l-4.7 6.075m190.99 80.109l2.485-5.433m48.274-461.934l1.949 15.182m402.731 59.427l-2.697-7.522M222.06 600.687l3.238-5.014m363.816-190.71l2.588-12.231M322.215 824.755l6.021 2.891m99.744-715.77l-5.538-2.173m102.612 304.345l10.134-10.492"/><path class="sigma-edge" stroke-width=".75" d="M525.054 414.048l-1.645 6.568"/><path class="sigma-edge" stroke-width=".625" d="M122.835 269.031l4.434-6.634M616.393 518.31l9.34-17.515m-9.34 17.515l5.921 11.665m-5.921-11.665l-20.83.268m-93.731-121.123l6.039 44.131m-6.039-44.131l-3.267-47.326m43.986 144.388l3.724 6.171m-68.396-313.864l7.855-3.919m301.738 33.764l7.577-3.083M461.597 600.995l7.554-2.794m24.165-199.299l1.915-9.28M343.442 646.479l-5.84-3.743M188.224 300.112l-2.234-5.519m417.044 105.335l-11.332-7.196m47.394-288.799l-7.57-2.529M503.838 530.79l-13.951 10.459m210.005-203.326l4.67-6.936M369.394 506.344l-4.902 7.297m257.489 111.271l1.782 8.337m-448.12-187.675l-6.305-3.792m6.305 3.792l7.193-.88"/><path class="sigma-edge" stroke-width=".75" d="M507.509 411.921l27.679-8.365"/><path class="sigma-edge" stroke-width=".625" d="M507.509 411.921l-11.884 23.177m11.884-23.177l-12.278-22.299m-89.63-139.427l-6.186 3.491m-8.048 1.584l-11.386 3.493m11.386-3.493l8.048-1.584m107.958 569.993l-4.483-3.894M229.611 641.848l-3.673 4.707m-91.486-222.253l4.097-5.343m-4.097 5.343l1.843 7.323m343.526-87.543l18.744 6.047m357.81 14.417l-4.364-4.586M490.183 474.225l10.003-.404m154.457 1.585l-6.3-4.213M473.485 346.996l25.08 3.133m362.117-63.379l-5.955-.439m-205.86 137.311l-4.004 8.716m73.763 300.738l4.189-4.991M527.784 76.814l6.9-3.88M801.98 470.493l7.186-1.227M119.358 537.93l2.677-5.296m180.976 168.199l5.871.89M483.875 334.62l14.69 15.509m-152.38 409.842l-.371 5.957m46.768-573.399l6.571.659m-20.039 323.654l-14.622-3.201m286.02-241.599l1.193-8.79m-78.059 407.569l3.885 13.746m-140.688-514.92l-1.207-6.475M259.773 726.889l-4.906-4.684m-39.983-307.243l-3.81-6.06m3.81 6.06l4.867 7.844m153.497 269.638l5.167-2.98M640.996 172.88l-6.347-2.736"/><path class="sigma-edge" stroke-width=".75" d="M332.286 463.399l-.697-7.512"/><path class="sigma-edge" stroke-width=".625" d="M332.286 463.399l-1.314 24.027m-72.873-133.174l8.465-2.001m559.312 224.015l-4.893-3.483m-675.706-61.794l-5.986.003m632.878 76.407l-3.262 7.29m-295.763 15.426l-3.993-11.914m66.64 102.521l-1.833-9.241m1.833 9.241l-8.496.376m8.496-.376l-7.601-7.234m7.601 7.234l6.929-3.526M818.274 436.79l-5.245 5.85m-377.734-5.584l-7.951 3.71m204.35-76.156l-8.402 1.176m175.167 211.45l-3.112 5.86M545.78 840.637l-7.964-.436m-336.108-66.014l5.773 1.382m574.625-260.557l6.977.289m.953-375.877l6.315 4.898M184.194 642.025l-5.831 1.32M518.9 470.363l27.375 30.325M518.9 470.363l-11.029-28.777m11.029 28.777l-18.714 3.458m18.714-3.458l-.666 7.321m.666-7.321l-6.503-2.97m173.554-64.715l-9.149 6.75M318.214 77.935l-7.432 2.935m396.291 736.045l-5.931-.144m-336.813-449.23l-3.421-8.015m206.583 189.566l-3.183-6.283m-92.229-259.838l7.376 5.129m-51.761-71.546l-4.277-5.26m17.519-53.319l-5.3 5.197m42.783 629.836l.503-5.956M263.243 330.453l-.758 7.745m55.506 221.238l.782-14.786m-.782 14.786l1.976 6.902m23.675-235.642l4.638 6.61m367.066 142.666l24.271-3.845m-103.424 32.042l7.695.689m-7.695-.689l-10.46-7.374m10.46 7.374l8.5 8.109m-196.682-31.611l7.996-2.132m-7.996 2.132l-6.025 4.027M273.173 357.981l-6.609-5.73m323.863 94.763l-9.115 9.626m9.115-9.626l10.114-3.214m-10.114 3.214l-10.761 47.495m10.761-47.495l2.784 8.339m-2.784-8.339l-3.104 11.885m3.104-11.885l1.275-54.282m-1.275 54.282l1.045-9.99m-1.045 9.99l10.439 5.916"/><path class="sigma-edge" d="M590.427 447.014l-9.063 2.76"/><path class="sigma-edge" stroke-width=".625" d="M590.427 447.014l8.598 13.943m-8.598-13.943l-8.126-4.596m177.043-132.373l4.166 4.949m-4.166-4.949l-7.267-1.813m-478.098 40.152l-7.415 3.867m157.92 97.473l2.86-8.958m256.615 277.011l5.628-3.538M339.185 850.994l3.794-4.623m451.554-123.544l-4.007-4.412M545.643 866.288l-7.001 3.406m11.478-644.256l7.265 1.537m32.137 516.687l7.941 1.181M250.866 188.831l5.879 1.007m559.493 186.119l2.23 6.403M138.405 688.84l5.564 2.105m581.106 3.061l5.896-.904M379.782 522.993l-15.29-9.352m467.866-270.557l-3.784-7.021M549.841 116.318l-7.987-.341m7.919 580.434l9.59-4.163m-9.59 4.163l-7.053.785m-173.847 38.648l-6.202 3.999M799.604 218.95l-4.555-5.364m-6.558 367.37l6.856 2.14m-5.08 91.609l3.588-5.787M631.869 496.221l-6.136 4.574m-150.736-109.57l23.568-41.096m-23.568 41.096l-7.93 1.339m7.93-1.339l-11.309 45.908m13.076-83.634l21.801-3.37m-251.989-99.794l3.77-7.085m630.905 291.082l2.881-6.439m-410.04 47.745l-4.941 22.563m4.941-22.563l15.795-34.389M222.871 233.743l3.187 5.073m323.749 159.15l4.391-9.514m142.934-58.878l7.43 1.413m-222.303-3.47l16.306 22.612m-16.306-22.612l-7.826-3.398m7.826 3.398l-1.429-8.345m22.307 224.764l-13.25-2.687m19.85-201.773l-11.172 10.653m-228.756-6.492l-3.245 8.614m457.534 269.102l6.352 6.709M513.054 309.793l-4.32 7.18m178.675 502.936l2.251 5.576m29.105-103.189l4.05 5.789M550.837 175.048l-.503 7.223m.503-7.223l-6.194-1.9m44.88 320.302l-9.857 1.059M464.511 700.96l7.859.45M123.234 481.123l4.972-3.317M491.643 329.75l6.922 20.379M477.38 742.082l-2.153-5.631M262.574 344.695l3.99 7.556m-3.99-7.556l-.089-6.497m557.225-55.926l3.897-4.548m-536.172-3.497l7.98-5.42m54.32 405.87l4.789 5.076m187.287-281.729l12.387-9.572m-12.387 9.572l-6.623 5.532M226.96 444.398l4.13-7.054m94.356 34.483l5.526 15.599m-50.571 258.509l-2.148 5.573m221.572-423.609l8.909-10.926m-8.909 10.926l-1.26 22.23m1.26-22.23l3.644-5.794m227.268 140.046l8.88 13.976m-406.346 22.745l-2.299-11.446M491.974 365.3l6.591-15.171m316.907 200.22l5.427 2.481M644.388 268.177l7.317-4.925M487.328 525.929l2.559 15.32m-73.007 304.09l8.012-.134m300.481-386.393l14.244 17.315M583.055 829.299l.201-5.98M240.49 435.806l-9.4 1.538m-88.906-228.15l-4.512 6.596M610.797 94.073l4.76-3.607M318.38 488.118l12.592-.692m-12.592.692l-5.516 4.06m366.607 259.465l-7.359 3.095M191.937 261.506l-3.817 7.033m190.131 2.575l1.73-12.351m-47.653 379.642l5.274 4.331m341.684-484.461l-5.905.536m-109.359 67.376l-6.637.788m268.959 90.953l-1.475 5.77M787.267 664.94l6.588 3.978m-168.99-311.809l-1.573 8.677m105.901-166.131l-4.409 4.125M601.638 372.752l-9.936 19.98m9.936-19.98l3.528-11.62m-25.708 123.715l.208 9.662M363.739 349.822l-2.831 9.704m77.398 329.523l-3.252 7.34m53.006-336.637l10.505-9.623M366.546 521.783l-2.054-8.142m5.685-260.009l9.804 5.131m100.911 102.738l17.673-11.372M338.896 198.502l3.394-4.864m276.095 23.598l1.976-6.994M474.54 603.791l-5.389-5.59m-265.713-44.866l-6.858 1.494M475.749 278.31l3.706 9.79M373.4 523.299l-8.908-9.658M603.75 352.518l1.416 8.614M343.467 487.314l-12.495.112m218.47 62.516l-7.735-4.901m200.631-88.042l-2.721 19.128m62.148 57.797l6.786 2.781M561.667 382.138l-7.469 6.314m-135.387 49.112l8.533 3.202m48.494 142.655l-1.746-7.783m160.995 97.999l4.668 5.134M304.112 267.569l-8.697 1.238m214.221 204.25l-9.45.764m-257.869 74.998l7.47 1.283m-7.47-1.283l1.833-6.701m118.756 207.558l.73 7.965M514.991 648.77l-1.533 7.968m-41.756 37.734l.668 6.938m249.517-212.485l17.73-12.798m-286.215 13.418l2.605-7.01m271.588 265.134l5.588 2.071m-37.242-72.162l6.577-4.541m204.378-196.242l3.143 5.045M671.057 610.804l6.842.233m159.279-87.079l-4.279 4.145M173.083 359.742l-5.264 2.798m447.418 423.695l3.819-4.546m-457.33-459.674l-3.822-4.597m455.935 405.525l-2.243-5.492m16.276-549.305l6.777 1.998m-15.406 469.142l4.52-6.037M373.99 367.024l-13.082-7.498m47.535 384.671l.859 5.929M790.949 509.07l-1.866 6.231M419.052 695.33l-5.568-3.105M655.81 325.743l4.869-3.647M221.533 514.601l-2.475-7.809m90.062-55.012l-3.033-6.519m3.033 6.519l4.821 6.752m415.678 27.165l9.998-9.57m-353.492-224.36l-6.144 6.996m96.24 78.339l22.344 13.027m85.805 321.58l-6.839 12.858M477.043 831.944l3.512 4.816M344.317 479.751l-13.345 7.675m24.237-156.022l-6.929 5.902m290.211 465.521l-5.717-1.603M479.256 696.851l-6.886 4.559M133.745 561.842l7.896-.506m260.802-299.307l-3.028-8.343m95.609 505.619l2.326-5.492m-351.934-330.92l-6.867-3.934m100.631 30.482l-8.09-12.097M407.457 55.311l7.9-1.145m157.722 88.574l2.314-6.75m55.246 222.598l-7.347 7.198m-400.775 64.825l8.573 6.733m-8.573-6.733l6.731-3.76m-6.731 3.76l-2.766-7.805m556.673-223.99l-3.896-6.919M563.153 804.849l5.552-3.011M581.394 504.5l-1.728-9.991m28.064-39.033l-6.864-2.546m-108.07-265.499l-7.062-4.526m-195.855-70.302l-6.792 4.211m351.887 62.369l-.325-9.039M285.556 354.715l-6.382.027m363.699 110.787l-17.14 35.266m17.14-35.266l5.47 5.664m-5.47-5.664l-4.213 5.723m4.213-5.723l1.99-33.191M519.821 134.485l4.595-3.776m39.431 257.64l-9.649.103M541.221 556.46l.486-11.419m59.778-159.372l-9.783 7.063m-43.356-12.855l5.852 8.575m-136.3-182.387l5.519 5.229m-5.519-5.229l-5.335-4.677m157.213 297.51l9.89-4.389m164.592-31.75l-4.641 13.368M294.248 620.652l4.612 5.191m-4.612-5.191l-2.217-6.832m2.217 6.832l6.795-4.353m420.634-152.622l17.94 12.45m-86.153-46.57l-8.601 2.781M160.707 551.891l-6.527 2.673m220.531-288.78l5.27-7.021M183.039 714.962l3.462 7.224m495.723 52.878l5.292-4.284m-5.292 4.284l-4.55-5.996M304.753 274.302l-9.338-5.495m416.626 205.005l27.576 2.315M368.992 353.892l-8.084 5.634m-60.597-81.047l-4.896-9.672m311.053 598.468l-5.367-2.565M351.04 362.848l9.868-3.322m62.415 73.662l4.021 7.578m67.168-69.442l4.053-21.195m-4.053 21.195l.719 18.298M685.73 707.556l3.857 6.683m-213.765-4.451l-3.452-8.378m3.452 8.378l6.391 2.686m239.586-85.466l8.651 1.054m-25.981-365.905l3.608 5.818M607.7 440.42l-7.159 3.38m-439.02 51.762l-8.056-.173m206.8 188.229l-5.741-3.865m233.385-179.587l-8.243-5.657m183.621-241.014l5.331 2.609M602.206 815.889l4.787 3.565m196.494-490.929l5.741 5.616m-694.88 21.366l7.853 1.797m-7.853-1.797l-.753 6.928m502.419 266.921l7.749 3.893M212.295 423.797l7.456-.991m-9.855 153.208l5.567-2.242m289.565-124.925l2.843-7.261m-166.726 26.546l-10.173 19.294m580.035 46.276l-3.783 4.587m-566.779-43.385l-9.473-7.478m18.394-158.392l-1.086 8.272m-57.652-163.707l-3.165-5.516m178.636 443.994l3.052-13.876M154.96 561.125l-.78-6.561m104.847-112.785l-8.161.309m332.557-56.589l8.279 7.233M294.039 165.379l-6.576 2.704m254.869 222.825l11.866-2.456M218.377 669.817l3.48-4.854m450.051-263.908l4.894 8.373m-333.804-65.081l5.282-7.041m9.677-179.66l-1.449-5.8m217.434 352.183l5.724-9.52M185.649 327.045l3.24-5.874M136.61 645.358l2.296-5.494m603.687 169.598l-5.923-.486m72.21-346.399l.286 6.689m-74.895 26.467l5.346-19.606M301.801 261.078l-6.386 7.729m243.974 145.404l-4.201-10.655m-31.419 55.614l4.102-17.584m-4.102 17.584l-3.583 14.651M910.632 363.61l1.509 7.843M476.242 544.682l13.645-3.433M775.02 717.641l5.582-5.697m-365.854-26.186l-1.264 6.467m84.054-131.208l5.067 14.115m-5.067-14.115l-7.651-19.768m-71.436 337.257l5.611-1.942m-73.135-392.126l-19.955 2.988m416.167-174.047l4.938-5.147m-395.854 59.166l4.685-7.872m21.296 151.657l-17.712 2.458m121.515-172.465l12.558 8.953m213.121-19.916l-7.124.774m7.124-.774l.567 6.891M380.671 763.05l-1.807-7.734M220.253 499.343l-1.195 7.449m181.329 96.84l3.911 6.998m-35.163-349.683l10.846-2.184m103.292-65.341l2.461-10.517M241.451 621.88l-6.589-4.594m347.012-219.949l9.828-4.605m243.863 78.697l-2.526-5.37m44.431 59.616l6.662 2.218m-46.799 207.825l-7.294 3.367M419.742 648.3l-2.975 5.149m-85.025-204.663l-.153 7.101m255.292 227.167l-9.35 1.513m-415.356-78.428l3.381 5.948m-3.381-5.948l6.389-3.399M151.6 487.784l1.865 7.605M133.639 372.65l-3.762 7.062m266.68-180.214l2.596-6.31m69.968 339.683l20.766 8.378M195.592 323.883l-6.703-2.712m289.827 574.466l-5.405 2.44m24.85-369.546l-8.274 12.718M697.314 171.56l4.942 5.264M508.535 332.307l-9.97 17.822m9.97-17.822l6.184-3.117m207.057 153.072l17.841-6.135m-13.895.811l13.895-.811m-192.4 79.88l-5.51-10.966m37.381 121.925l-1.557 17.601M745.517 489.21l-5.9-13.083M476.344 866.849l5.475-2.275M312.982 552.065l5.791-7.415m279.235-17.73l-2.445-8.342M332.324 821.635l-4.088 6.011m253.661-690.572l-6.504-1.084M470.737 551.194l-6.582 1.492m6.582-1.492l-9.342 8.901m9.342-8.901l19.15-9.945m-3.714-234.168l-5.566-6.924m5.566 6.924l12.392 43.048m-12.392-43.048l.887-10.289m-.887 10.289l-6.718-18.981M293.45 277.755l1.965-8.948M408.61 256.99l-9.195-3.304m389.133 79.56l4.059 6.884"/><path class="sigma-edge" stroke-width=".875" d="M740.233 631.392l-9.783-3.33"/><path class="sigma-edge" stroke-width=".625" d="M740.233 631.392l5.691-4.389M208.372 368.951l5.576-2.183M468.977 582.21l-5.264 5.428m5.264-5.428l5.115-6.572m-88.478-307.32l-5.633-9.555m-2.639 248.5l-12.85 6.378m137.531-126.779l-6.792 2.76m220.173-117.97l-7.327-3.677m-464.637-.565l6.011-.144m81.496 270.498l-7.013-4.463M597.12 403.306l-5.418-10.574m219.836-7.653l6.93-2.719m8.555 32.833l-4.066-4.34M268.388 824.602l5.67-1.823M244.442 440.99l-13.352-3.646m13.352 3.646l6.424 1.098m231.042 86.536l7.979 12.625m49.505 319.296l-.75 9.149m-48.558-533.187l8.481 13.622"/><path class="sigma-edge" stroke-width=".75" d="M390.758 826.59l-2.909 5.256"/><path class="sigma-edge" stroke-width=".625" d="M500.115 550.114l-10.228-8.865m370.556-58.117l5.964-.853M588.111 676.645l-10.58 7.922m-128.669 82.947l6.322 4.955M715.573 487.44l24.044-11.313m-412.07 74.597l-8.774-6.074m139.405-84.675l-2.171 22.56m2.171-22.56l5.51-22.842m323.619-135.944l6.164-4.263M184.377 173.527l5.86-5.431M369.246 372.48l-8.338-12.954m-22.043-131.3l4.857 3.4m538.265 199.007l-5.727-1.749m-644.441 19.898l-.729-11.438m245.038-312.287l3.595-4.777m171.035 400.534l-6.065-4.536m-90.446 171.169l5.116 4.801m68.954-516.217l6.332-5.887m-166.63-83.468l-5.275-2.745m-112.751 394.05l-19.021 9.445m305.802 217.93l3.647 6.229M310.057 535.088l7.517-3.165m298.477-328.711l4.31 7.03m-4.31-7.03l-6.515-1.259M86.177 524.217l3.52 4.783m145.2 207.893l4.565-3.909m68.704-4.309l4.098 5.143m-17.843-474.669l.994 9.658m557.403 192.874l5.969-.798M255.625 669.031l-5.724-1.575m417.769-4.95l-4.826-5.01m4.826 5.01l5.76-3.23M437.308 844.832l-1.432-5.82m-8.145-65.646l2.05-5.61m102.534 96.1l6.327 5.838m-139.661-87.582l.025 5.974m388.466-571.417l-4.453 5.354m-346.176-52.376l2.359 7.767M320.277 552.545l-1.504-7.895m504.323-43.832l-3.681-4.724M367.312 820.181l-5.347-4.936m5.347 4.936l3.821-7.132m128.692-485.15l-1.26 22.23m-37.308 150.405l-5.25-17.999m5.25 17.999l9.46 17.55m81.056 246.656l1.682-7.758m1.921-377.51l-1.178 8.98m21.38-190.904l-2.5 5.4m56.335 551.677l-3.735-4.646M520.529 68.923l-4.705 3.632M253.105 606.543l-4.335-5.203m251.345-51.226l-10.228-8.865"/></g><g id="sigma-group-nodes" class="sigma-group"><circle class="sigma-node" cx="477.388" cy="79.928" r="2.235"/><circle class="sigma-node c-0" cx="283.087" cy="116.814" r="2.235"/><circle class="sigma-node c-0" cx="289.879" cy="112.603" r="2.235"/><circle class="sigma-node c-1" cx="190.237" cy="168.096" r="2.235"/><circle class="sigma-node c-1" cx="184.377" cy="173.527" r="2.235"/><circle class="sigma-node c-2" cx="137.672" cy="215.79" r="2.235"/><circle class="sigma-node c-3" cx="169.467" cy="244.362" r="2.235"/><circle class="sigma-node c-3" cx="175.429" cy="238.999" r="2.235"/><circle class="sigma-node c-2" cx="142.184" cy="209.194" r="2.235"/><circle class="sigma-node c-4" cx="262.432" cy="155.924" r="2.235"/><circle class="sigma-node c-5" cx="250.866" cy="188.831" r="2.235"/><circle class="sigma-node c-5" cx="256.745" cy="189.838" r="2.235"/><circle class="sigma-node c-6" cx="287.463" cy="168.083" r="2.449"/><circle class="sigma-node c-6" cx="290.628" cy="173.599" r="2.235"/><circle class="sigma-node c-6" cx="294.039" cy="165.379" r="2.235"/><circle class="sigma-node c-4" cx="264.85" cy="161.391" r="2.235"/><circle class="sigma-node c-7" cx="240.535" cy="196.925" r="2.235"/><circle class="sigma-node c-7" cx="234.782" cy="198.389" r="2.235"/><circle class="sigma-node c-8" cx="226.058" cy="238.816" r="2.235"/><circle class="sigma-node c-8" cx="222.871" cy="233.743" r="2.235"/><circle class="sigma-node c-9" cx="287.112" cy="221.459" r="2.235"/><circle class="sigma-node c-10" cx="246.576" cy="250.335" r="2.235"/><circle class="sigma-node c-10" cx="250.346" cy="243.25" r="2.235"/><circle class="sigma-node c-9" cx="294.915" cy="219.562" r="2.235"/><circle class="sigma-node c-11" cx="310.782" cy="80.87" r="2.235"/><circle class="sigma-node c-11" cx="318.214" cy="77.935" r="2.235"/><circle class="sigma-node c-12" cx="374.02" cy="118.485" r="2.235"/><circle class="sigma-node c-13" cx="371.255" cy="132.881" r="2.235"/><circle class="sigma-node c-12" cx="371.206" cy="113.201" r="2.235"/><circle class="sigma-node c-14" cx="415.357" cy="54.166" r="2.235"/><circle class="sigma-node c-14" cx="407.457" cy="55.311" r="2.235"/><circle class="sigma-node c-15" cx="400.406" cy="128.102" r="2.235"/><circle class="sigma-node c-16" cx="427.98" cy="111.876" r="2.235"/><circle class="sigma-node c-15" cx="406.255" cy="122.598" r="2.235"/><circle class="sigma-node c-16" cx="422.442" cy="109.703" r="2.235"/><circle class="sigma-node c-17" cx="493.201" cy="126.956" r="2.235"/><circle class="sigma-node c-18" cx="479.723" cy="120.28" r="2.235"/><circle class="sigma-node c-19" cx="454.267" cy="131.191" r="2.235"/><circle class="sigma-node c-19" cx="458.259" cy="126.78" r="2.235"/><circle class="sigma-node c-20" cx="462.744" cy="83.931" r="2.235"/><circle class="sigma-node" cx="474.099" cy="74.911" r="2.235"/><circle class="sigma-node c-17" cx="487.965" cy="129.747" r="2.235"/><circle class="sigma-node c-18" cx="476.128" cy="125.057" r="2.235"/><circle class="sigma-node c-20" cx="468.019" cy="86.676" r="2.235"/><circle class="sigma-node c-21" cx="342.29" cy="193.638" r="2.235"/><circle class="sigma-node c-22" cx="337.965" cy="175.19" r="2.235"/><circle class="sigma-node c-22" cx="337.053" cy="169.279" r="2.235"/><circle class="sigma-node c-23" cx="399.153" cy="193.188" r="2.662"/><circle class="sigma-node c-23" cx="392.582" cy="192.529" r="2.235"/><circle class="sigma-node c-13" cx="363.703" cy="135.477" r="2.235"/><circle class="sigma-node c-24" cx="356.508" cy="151.846" r="2.235"/><circle class="sigma-node c-24" cx="357.957" cy="157.646" r="2.235"/><circle class="sigma-node c-25" cx="343.722" cy="231.626" r="2.235"/><circle class="sigma-node c-21" cx="338.896" cy="198.502" r="2.235"/><circle class="sigma-node c-25" cx="338.865" cy="228.226" r="2.235"/><circle class="sigma-node c-26" cx="375.613" cy="249.247" r="2.235"/><circle class="sigma-node c-26" cx="391.367" cy="255.27" r="2.449"/><circle class="sigma-node c-26" cx="370.177" cy="253.632" r="2.235"/><circle class="sigma-node c-26" cx="386.125" cy="251.767" r="2.235"/><circle class="sigma-node c-23" cx="396.557" cy="199.498" r="2.235"/><circle class="sigma-node c-23" cx="413.791" cy="187.169" r="2.235"/><circle class="sigma-node c-27" cx="436.843" cy="169.647" r="2.449"/><circle class="sigma-node c-27" cx="440.936" cy="157.975" r="2.235"/><circle class="sigma-node c-27" cx="435.636" cy="163.172" r="2.449"/><circle class="sigma-node c-23" cx="407.716" cy="191.058" r="2.449"/><circle class="sigma-node c-27" cx="439.202" cy="177.414" r="2.235"/><circle class="sigma-node c-28" cx="489.815" cy="193.052" r="2.235"/><circle class="sigma-node c-29" cx="501.764" cy="176.139" r="2.235"/><circle class="sigma-node c-29" cx="501.268" cy="170.218" r="2.235"/><circle class="sigma-node c-28" cx="477.879" cy="186.824" r="2.235"/><circle class="sigma-node c-28" cx="485.734" cy="182.905" r="2.876"/><circle class="sigma-node c-28" cx="492.796" cy="187.431" r="2.235"/><circle class="sigma-node c-28" cx="483.273" cy="193.422" r="2.235"/><circle class="sigma-node c-23" cx="404.942" cy="198.562" r="2.662"/><circle class="sigma-node c-26" cx="405.601" cy="250.195" r="2.235"/><circle class="sigma-node c-23" cx="423.417" cy="211.294" r="2.449"/><circle class="sigma-node c-23" cx="427.694" cy="216.554" r="2.235"/><circle class="sigma-node c-23" cx="417.898" cy="206.065" r="2.449"/><circle class="sigma-node c-23" cx="412.563" cy="201.388" r="2.449"/><circle class="sigma-node c-26" cx="399.415" cy="253.686" r="2.876"/><circle class="sigma-node c-30" cx="122.835" cy="269.031" r="2.235"/><circle class="sigma-node c-30" cx="127.269" cy="262.397" r="2.235"/><circle class="sigma-node c-31" cx="185.99" cy="294.593" r="2.235"/><circle class="sigma-node c-32" cx="188.12" cy="268.539" r="2.235"/><circle class="sigma-node c-31" cx="188.224" cy="300.112" r="2.235"/><circle class="sigma-node c-33" cx="157.904" cy="317.418" r="2.235"/><circle class="sigma-node c-34" cx="122.201" cy="357.304" r="2.235"/><circle class="sigma-node c-34" cx="114.348" cy="355.507" r="2.449"/><circle class="sigma-node c-35" cx="133.639" cy="372.65" r="2.235"/><circle class="sigma-node c-34" cx="113.595" cy="362.435" r="2.235"/><circle class="sigma-node c-36" cx="167.819" cy="362.54" r="2.235"/><circle class="sigma-node c-37" cx="188.889" cy="321.171" r="2.449"/><circle class="sigma-node c-36" cx="173.083" cy="359.742" r="2.235"/><circle class="sigma-node c-33" cx="161.726" cy="322.015" r="2.235"/><circle class="sigma-node c-37" cx="185.649" cy="327.045" r="2.235"/><circle class="sigma-node c-38" cx="235.799" cy="313.752" r="2.235"/><circle class="sigma-node c-32" cx="191.937" cy="261.506" r="2.235"/><circle class="sigma-node c-39" cx="243.44" cy="267.41" r="2.235"/><circle class="sigma-node c-40" cx="285.837" cy="266.916" r="2.235"/><circle class="sigma-node c-40" cx="294.421" cy="259.149" r="2.235"/><circle class="sigma-node c-40" cx="295.415" cy="268.807" r="3.73"/><circle class="sigma-node c-41" cx="251.9" cy="304.86" r="2.235"/><circle class="sigma-node c-40" cx="287.435" cy="274.227" r="2.235"/><circle class="sigma-node c-41" cx="250.164" cy="299.151" r="2.235"/><circle class="sigma-node c-39" cx="249.451" cy="267.266" r="2.235"/><circle class="sigma-node c-40" cx="293.45" cy="277.755" r="2.235"/><circle class="sigma-node c-38" cx="238.778" cy="318.963" r="2.235"/><circle class="sigma-node c-37" cx="195.592" cy="323.883" r="2.235"/><circle class="sigma-node c-42" cx="208.372" cy="368.951" r="2.235"/><circle class="sigma-node c-42" cx="213.948" cy="366.768" r="2.235"/><circle class="sigma-node c-43" cx="262.707" cy="359.374" r="2.235"/><circle class="sigma-node c-43" cx="279.174" cy="354.742" r="2.449"/><circle class="sigma-node c-43" cx="268.548" cy="362.854" r="2.449"/><circle class="sigma-node c-43" cx="266.564" cy="352.251" r="3.73"/><circle class="sigma-node c-43" cx="258.099" cy="354.252" r="2.235"/><circle class="sigma-node c-43" cx="263.243" cy="330.453" r="2.235"/><circle class="sigma-node c-43" cx="273.173" cy="357.981" r="2.235"/><circle class="sigma-node c-43" cx="273.979" cy="348.384" r="2.235"/><circle class="sigma-node c-43" cx="269.809" cy="343.637" r="2.235"/><circle class="sigma-node c-43" cx="262.485" cy="338.198" r="2.449"/><circle class="sigma-node c-43" cx="262.574" cy="344.695" r="2.449"/><circle class="sigma-node c-43" cx="285.556" cy="354.715" r="2.235"/><circle class="sigma-node c-43" cx="272.467" cy="368.152" r="2.235"/><circle class="sigma-node c-44" cx="88.781" cy="412.408" r="2.235"/><circle class="sigma-node c-35" cx="129.877" cy="379.712" r="2.235"/><circle class="sigma-node c-45" cx="138.549" cy="418.959" r="2.449"/><circle class="sigma-node c-44" cx="92.179" cy="405.143" r="2.235"/><circle class="sigma-node c-45" cx="134.452" cy="424.302" r="2.449"/><circle class="sigma-node c-45" cx="136.295" cy="431.625" r="2.235"/><circle class="sigma-node c-46" cx="168.82" cy="435.316" r="2.235"/><circle class="sigma-node c-45" cx="145.416" cy="422.893" r="2.235"/><circle class="sigma-node c-47" cx="100.864" cy="456.339" r="2.235"/><circle class="sigma-node c-48" cx="128.206" cy="477.806" r="2.235"/><circle class="sigma-node c-48" cx="123.234" cy="481.123" r="2.235"/><circle class="sigma-node c-47" cx="106.479" cy="458.38" r="2.235"/><circle class="sigma-node c-49" cx="153.465" cy="495.389" r="2.449"/><circle class="sigma-node c-46" cx="175.643" cy="445.574" r="2.449"/><circle class="sigma-node c-46" cx="169.338" cy="441.782" r="2.449"/><circle class="sigma-node c-49" cx="161.521" cy="495.562" r="2.235"/><circle class="sigma-node c-49" cx="151.6" cy="487.784" r="2.235"/><circle class="sigma-node c-46" cx="182.836" cy="444.694" r="2.235"/><circle class="sigma-node c-50" cx="222.314" cy="414.744" r="2.235"/><circle class="sigma-node c-50" cx="231.09" cy="437.344" r="3.516"/><circle class="sigma-node c-50" cx="214.884" cy="414.962" r="2.449"/><circle class="sigma-node c-50" cx="229.248" cy="426.851" r="2.235"/><circle class="sigma-node c-50" cx="211.074" cy="408.902" r="2.235"/><circle class="sigma-node c-50" cx="240.49" cy="435.806" r="2.235"/><circle class="sigma-node c-50" cx="222.517" cy="430.611" r="2.662"/><circle class="sigma-node c-50" cx="212.295" cy="423.797" r="2.235"/><circle class="sigma-node c-50" cx="219.751" cy="422.806" r="2.876"/><circle class="sigma-node c-51" cx="192.973" cy="483.389" r="2.235"/><circle class="sigma-node c-52" cx="227.277" cy="501.942" r="2.235"/><circle class="sigma-node c-50" cx="238.187" cy="442.988" r="2.235"/><circle class="sigma-node c-50" cx="226.96" cy="444.398" r="2.235"/><circle class="sigma-node c-50" cx="239.18" cy="449.441" r="2.235"/><circle class="sigma-node c-52" cx="220.253" cy="499.343" r="2.235"/><circle class="sigma-node c-51" cx="197.326" cy="487.443" r="2.235"/><circle class="sigma-node c-50" cx="244.442" cy="440.99" r="2.449"/><circle class="sigma-node c-50" cx="231.819" cy="448.782" r="2.235"/><circle class="sigma-node c-50" cx="250.866" cy="442.088" r="2.449"/><circle class="sigma-node c-50" cx="259.027" cy="441.779" r="2.235"/><circle class="sigma-node c-40" cx="304.112" cy="267.569" r="2.235"/><circle class="sigma-node c-40" cx="304.753" cy="274.302" r="2.235"/><circle class="sigma-node c-40" cx="300.311" cy="278.479" r="2.235"/><circle class="sigma-node c-40" cx="301.801" cy="261.078" r="2.235"/><circle class="sigma-node c-26" cx="387.897" cy="261.407" r="2.235"/><circle class="sigma-node c-26" cx="379.981" cy="258.763" r="3.943"/><circle class="sigma-node c-26" cx="378.251" cy="271.114" r="2.235"/><circle class="sigma-node c-26" cx="374.711" cy="265.784" r="2.235"/><circle class="sigma-node c-26" cx="369.135" cy="260.947" r="2.235"/><circle class="sigma-node c-26" cx="385.614" cy="268.318" r="2.235"/><circle class="sigma-node c-53" cx="338.77" cy="336.147" r="2.235"/><circle class="sigma-node c-53" cx="343.642" cy="330.696" r="2.235"/><circle class="sigma-node c-53" cx="348.28" cy="337.306" r="3.516"/><circle class="sigma-node c-53" cx="342.998" cy="344.347" r="2.235"/><circle class="sigma-node c-53" cx="355.066" cy="348.93" r="2.449"/><circle class="sigma-node c-54" cx="371.037" cy="361.513" r="2.235"/><circle class="sigma-node c-53" cx="356.537" cy="339.948" r="2.235"/><circle class="sigma-node c-54" cx="360.271" cy="373.787" r="2.449"/><circle class="sigma-node c-54" cx="364.329" cy="367.541" r="2.235"/><circle class="sigma-node c-54" cx="363.739" cy="349.822" r="2.235"/><circle class="sigma-node c-54" cx="373.99" cy="367.024" r="2.235"/><circle class="sigma-node c-53" cx="355.209" cy="331.404" r="2.235"/><circle class="sigma-node c-54" cx="368.992" cy="353.892" r="2.235"/><circle class="sigma-node c-54" cx="351.04" cy="362.848" r="2.235"/><circle class="sigma-node c-53" cx="349.366" cy="329.034" r="2.235"/><circle class="sigma-node c-54" cx="356.223" cy="367.398" r="2.235"/><circle class="sigma-node c-54" cx="360.908" cy="359.526" r="4.157"/><circle class="sigma-node c-54" cx="369.246" cy="372.48" r="2.235"/><circle class="sigma-node c-26" cx="402.443" cy="262.029" r="2.235"/><circle class="sigma-node c-26" cx="408.61" cy="256.99" r="2.235"/><circle class="sigma-node c-55" cx="480.607" cy="300.157" r="2.235"/><circle class="sigma-node c-55" cx="488.394" cy="288.576" r="2.235"/><circle class="sigma-node c-55" cx="481.619" cy="279.349" r="2.235"/><circle class="sigma-node c-55" cx="472.079" cy="282.971" r="2.235"/><circle class="sigma-node c-55" cx="475.749" cy="278.31" r="2.235"/><circle class="sigma-node c-55" cx="487.06" cy="296.792" r="2.449"/><circle class="sigma-node c-55" cx="479.455" cy="288.1" r="2.876"/><circle class="sigma-node c-55" cx="486.173" cy="307.081" r="2.876"/><circle class="sigma-node c-56" cx="500.434" cy="365.437" r="2.235"/><circle class="sigma-node c-56" cx="484.392" cy="354.968" r="2.235"/><circle class="sigma-node c-56" cx="485.149" cy="348.136" r="2.235"/><circle class="sigma-node c-56" cx="498.565" cy="350.129" r="8"/><circle class="sigma-node c-56" cx="496.616" cy="334.947" r="2.235"/><circle class="sigma-node c-56" cx="479.821" cy="344.082" r="2.235"/><circle class="sigma-node c-56" cx="473.485" cy="346.996" r="2.235"/><circle class="sigma-node c-56" cx="483.875" cy="334.62" r="2.235"/><circle class="sigma-node c-56" cx="476.764" cy="353.499" r="2.235"/><circle class="sigma-node c-56" cx="482.259" cy="327.517" r="2.662"/><circle class="sigma-node c-56" cx="491.643" cy="329.75" r="2.235"/><circle class="sigma-node c-56" cx="499.825" cy="327.899" r="2.876"/><circle class="sigma-node c-56" cx="491.974" cy="365.3" r="2.235"/><circle class="sigma-node c-56" cx="488.06" cy="359.752" r="2.235"/><circle class="sigma-node c-56" cx="480.892" cy="361.501" r="2.235"/><circle class="sigma-node c-56" cx="476.221" cy="337.102" r="2.235"/><circle class="sigma-node c-56" cx="474.433" cy="324.119" r="2.235"/><circle class="sigma-node c-56" cx="494.512" cy="371.324" r="2.449"/><circle class="sigma-node c-56" cx="486.007" cy="341.176" r="2.235"/><circle class="sigma-node c-56" cx="480.83" cy="319.172" r="2.235"/><circle class="sigma-node c-56" cx="490.084" cy="336.507" r="2.235"/><circle class="sigma-node c-54" cx="360.856" cy="380.279" r="2.235"/><circle class="sigma-node c-57" cx="331.158" cy="475.15" r="2.235"/><circle class="sigma-node c-57" cx="339.358" cy="476.275" r="2.235"/><circle class="sigma-node c-57" cx="331.589" cy="455.887" r="2.449"/><circle class="sigma-node c-57" cx="306.087" cy="445.261" r="2.235"/><circle class="sigma-node c-57" cx="335.327" cy="469.322" r="2.235"/><circle class="sigma-node c-57" cx="322.437" cy="478.677" r="2.449"/><circle class="sigma-node c-57" cx="315.968" cy="474.016" r="2.235"/><circle class="sigma-node c-57" cx="320.248" cy="466.379" r="2.449"/><circle class="sigma-node c-57" cx="345.52" cy="472.581" r="2.235"/><circle class="sigma-node c-57" cx="332.286" cy="463.399" r="2.449"/><circle class="sigma-node c-57" cx="330.972" cy="487.426" r="6.078"/><circle class="sigma-node c-57" cx="325.446" cy="471.827" r="2.235"/><circle class="sigma-node c-57" cx="333.271" cy="498.872" r="2.235"/><circle class="sigma-node c-57" cx="312.864" cy="492.178" r="2.235"/><circle class="sigma-node c-57" cx="318.38" cy="488.118" r="2.449"/><circle class="sigma-node c-57" cx="343.467" cy="487.314" r="2.235"/><circle class="sigma-node c-57" cx="309.12" cy="451.78" r="2.449"/><circle class="sigma-node c-57" cx="344.317" cy="479.751" r="2.235"/><circle class="sigma-node c-57" cx="313.941" cy="458.532" r="2.449"/><circle class="sigma-node c-57" cx="341.145" cy="468.132" r="2.235"/><circle class="sigma-node c-57" cx="340.445" cy="494.904" r="2.235"/><circle class="sigma-node c-57" cx="331.742" cy="448.786" r="2.235"/><circle class="sigma-node c-57" cx="347.698" cy="492.546" r="2.235"/><circle class="sigma-node c-58" cx="353.747" cy="499.513" r="2.449"/><circle class="sigma-node c-57" cx="350.927" cy="484.438" r="2.235"/><circle class="sigma-node c-57" cx="349.993" cy="477.981" r="2.235"/><circle class="sigma-node c-59" cx="444.07" cy="430.628" r="2.235"/><circle class="sigma-node c-59" cx="443.687" cy="438.633" r="2.449"/><circle class="sigma-node c-60" cx="435.295" cy="437.056" r="2.235"/><circle class="sigma-node c-60" cx="418.811" cy="437.564" r="2.235"/><circle class="sigma-node c-60" cx="427.344" cy="440.766" r="3.303"/><circle class="sigma-node c-60" cx="423.323" cy="433.188" r="2.235"/><circle class="sigma-node c-59" cx="450.442" cy="430.794" r="2.449"/><circle class="sigma-node c-56" cx="487.036" cy="390.963" r="2.449"/><circle class="sigma-node c-59" cx="471.89" cy="438.907" r="2.235"/><circle class="sigma-node c-59" cx="456.272" cy="434.763" r="2.449"/><circle class="sigma-node c-59" cx="501.832" cy="397.455" r="2.449"/><circle class="sigma-node c-56" cx="493.316" cy="398.902" r="2.235"/><circle class="sigma-node c-59" cx="467.067" cy="392.564" r="2.235"/><circle class="sigma-node c-59" cx="495.625" cy="435.098" r="2.449"/><circle class="sigma-node c-59" cx="474.997" cy="391.225" r="2.662"/><circle class="sigma-node c-56" cx="495.231" cy="389.622" r="3.089"/><circle class="sigma-node c-59" cx="463.688" cy="437.133" r="3.303"/><circle class="sigma-node c-56" cx="481.325" cy="395.341" r="2.235"/><circle class="sigma-node c-56" cx="502.023" cy="386.862" r="2.235"/><circle class="sigma-node c-60" cx="405.1" cy="450.779" r="2.235"/><circle class="sigma-node c-60" cx="418.058" cy="445.724" r="2.449"/><circle class="sigma-node c-59" cx="441.986" cy="488.694" r="2.235"/><circle class="sigma-node c-60" cx="409.505" cy="445.105" r="2.449"/><circle class="sigma-node c-59" cx="448.011" cy="484.667" r="2.449"/><circle class="sigma-node c-60" cx="424.484" cy="449.724" r="2.235"/><circle class="sigma-node c-59" cx="485.121" cy="483.632" r="2.449"/><circle class="sigma-node c-59" cx="486.258" cy="454.963" r="3.303"/><circle class="sigma-node c-59" cx="456.007" cy="482.535" r="3.089"/><circle class="sigma-node c-59" cx="452.869" cy="475.706" r="2.235"/><circle class="sigma-node c-59" cx="489.343" cy="463.706" r="2.235"/><circle class="sigma-node c-59" cx="500.186" cy="473.821" r="3.73"/><circle class="sigma-node c-59" cx="478.919" cy="461.12" r="2.235"/><circle class="sigma-node c-59" cx="490.183" cy="474.225" r="2.235"/><circle class="sigma-node c-59" cx="461.257" cy="500.534" r="2.449"/><circle class="sigma-node c-59" cx="453.402" cy="489.545" r="2.235"/><circle class="sigma-node c-59" cx="458.178" cy="459.975" r="2.449"/><circle class="sigma-node c-61" cx="520.529" cy="68.923" r="2.235"/><circle class="sigma-node c-62" cx="575.559" cy="51.466" r="2.235"/><circle class="sigma-node c-62" cx="567.548" cy="51.69" r="2.235"/><circle class="sigma-node c-63" cx="534.684" cy="72.934" r="2.235"/><circle class="sigma-node c-64" cx="541.854" cy="115.977" r="2.235"/><circle class="sigma-node c-63" cx="527.784" cy="76.814" r="2.235"/><circle class="sigma-node c-64" cx="549.841" cy="116.318" r="2.235"/><circle class="sigma-node c-61" cx="515.824" cy="72.555" r="2.235"/><circle class="sigma-node c-65" cx="524.416" cy="130.709" r="2.235"/><circle class="sigma-node c-66" cx="602.039" cy="121.771" r="2.235"/><circle class="sigma-node c-67" cx="569.407" cy="113.527" r="2.235"/><circle class="sigma-node c-67" cx="567.087" cy="108.028" r="2.235"/><circle class="sigma-node c-68" cx="615.557" cy="90.466" r="2.235"/><circle class="sigma-node c-69" cx="631.526" cy="101.404" r="2.235"/><circle class="sigma-node c-70" cx="657.198" cy="124.879" r="2.235"/><circle class="sigma-node c-69" cx="639.096" cy="103.933" r="2.235"/><circle class="sigma-node c-68" cx="610.797" cy="94.073" r="2.235"/><circle class="sigma-node c-66" cx="607.208" cy="118.801" r="2.235"/><circle class="sigma-node c-70" cx="664.979" cy="112.803" r="2.449"/><circle class="sigma-node c-70" cx="672.207" cy="115.929" r="2.235"/><circle class="sigma-node c-70" cx="660.431" cy="119.53" r="2.449"/><circle class="sigma-node c-71" cx="529.517" cy="191.751" r="2.235"/><circle class="sigma-node c-72" cx="550.334" cy="182.271" r="2.235"/><circle class="sigma-node c-72" cx="544.643" cy="173.148" r="2.235"/><circle class="sigma-node c-72" cx="550.837" cy="175.048" r="2.449"/><circle class="sigma-node c-65" cx="519.821" cy="134.485" r="2.235"/><circle class="sigma-node c-71" cx="521.735" cy="193.643" r="2.235"/><circle class="sigma-node c-73" cx="575.393" cy="135.99" r="2.449"/><circle class="sigma-node c-73" cx="573.079" cy="142.74" r="2.235"/><circle class="sigma-node c-73" cx="581.897" cy="137.074" r="2.235"/><circle class="sigma-node c-74" cx="550.12" cy="225.438" r="2.235"/><circle class="sigma-node c-74" cx="555.939" cy="234.713" r="2.449"/><circle class="sigma-node c-75" cx="605.449" cy="208.215" r="2.235"/><circle class="sigma-node c-74" cx="554.728" cy="241.782" r="2.235"/><circle class="sigma-node c-74" cx="557.385" cy="226.975" r="2.662"/><circle class="sigma-node c-74" cx="564.022" cy="226.187" r="2.235"/><circle class="sigma-node c-76" cx="575.578" cy="197.548" r="2.235"/><circle class="sigma-node c-76" cx="573.078" cy="202.948" r="2.235"/><circle class="sigma-node c-77" cx="634.649" cy="170.144" r="2.876"/><circle class="sigma-node c-77" cx="640.996" cy="172.88" r="2.235"/><circle class="sigma-node c-77" cx="627.872" cy="168.146" r="2.235"/><circle class="sigma-node c-77" cx="634.974" cy="179.183" r="2.235"/><circle class="sigma-node c-77" cx="628.317" cy="176.031" r="2.235"/><circle class="sigma-node c-78" cx="696.55" cy="182.498" r="2.235"/><circle class="sigma-node c-79" cx="673.381" cy="158.811" r="2.235"/><circle class="sigma-node c-78" cx="704.803" cy="183.913" r="2.235"/><circle class="sigma-node c-79" cx="679.286" cy="158.275" r="2.235"/><circle class="sigma-node c-78" cx="697.314" cy="171.56" r="2.235"/><circle class="sigma-node c-78" cx="702.256" cy="176.824" r="2.662"/><circle class="sigma-node c-75" cx="620.361" cy="210.242" r="2.449"/><circle class="sigma-node c-75" cx="609.536" cy="201.953" r="2.449"/><circle class="sigma-node c-80" cx="656.766" cy="219.182" r="2.235"/><circle class="sigma-node c-75" cx="618.385" cy="217.236" r="2.235"/><circle class="sigma-node c-75" cx="616.051" cy="203.212" r="2.449"/><circle class="sigma-node c-81" cx="664.38" cy="235.333" r="2.235"/><circle class="sigma-node c-80" cx="662.669" cy="218.329" r="2.235"/><circle class="sigma-node c-81" cx="670.313" cy="235.759" r="2.235"/><circle class="sigma-node c-82" cx="707.388" cy="243.475" r="2.235"/><circle class="sigma-node" cx="733.267" cy="7.874" r="2.449" fill="#a7a699"/><circle class="sigma-node c-84" cx="731.457" cy="128.383" r="2.235"/><circle class="sigma-node c-84" cx="737.332" cy="133.773" r="2.235"/><circle class="sigma-node c-85" cx="772.528" cy="191.897" r="2.235"/><circle class="sigma-node c-86" cx="796.351" cy="144.322" r="2.235"/><circle class="sigma-node c-86" cx="790.036" cy="139.424" r="2.235"/><circle class="sigma-node c-82" cx="716.481" cy="232.056" r="2.449"/><circle class="sigma-node c-82" cx="710.956" cy="227.586" r="2.235"/><circle class="sigma-node c-87" cx="729.193" cy="199.655" r="2.235"/><circle class="sigma-node c-87" cx="724.784" cy="203.78" r="2.235"/><circle class="sigma-node c-82" cx="713.089" cy="239.638" r="2.449"/><circle class="sigma-node c-88" cx="783.019" cy="222.023" r="2.235"/><circle class="sigma-node c-89" cx="768.618" cy="256.104" r="2.235"/><circle class="sigma-node c-88" cx="795.049" cy="213.586" r="2.449"/><circle class="sigma-node c-88" cx="787.472" cy="216.669" r="2.449"/><circle class="sigma-node c-88" cx="799.604" cy="218.95" r="2.235"/><circle class="sigma-node c-85" cx="776.424" cy="198.816" r="2.235"/><circle class="sigma-node c-89" cx="763.287" cy="253.495" r="2.235"/><circle class="sigma-node c-90" cx="828.574" cy="236.063" r="2.235"/><circle class="sigma-node c-90" cx="832.358" cy="243.084" r="2.235"/><circle class="sigma-node c-56" cx="508.734" cy="316.973" r="2.449"/><circle class="sigma-node c-56" cx="513.054" cy="309.793" r="2.235"/><circle class="sigma-node c-91" cx="599.579" cy="262.749" r="2.235"/><circle class="sigma-node c-91" cx="589.391" cy="266.478" r="2.235"/><circle class="sigma-node c-91" cx="593.399" cy="260.775" r="2.449"/><circle class="sigma-node c-56" cx="510.338" cy="357.879" r="2.235"/><circle class="sigma-node c-56" cx="502.722" cy="336.053" r="2.235"/><circle class="sigma-node c-92" cx="543.875" cy="367.661" r="2.449"/><circle class="sigma-node c-56" cx="516.105" cy="337.795" r="2.449"/><circle class="sigma-node c-56" cx="509.737" cy="339.476" r="2.235"/><circle class="sigma-node c-56" cx="503.469" cy="322.105" r="2.235"/><circle class="sigma-node c-56" cx="514.719" cy="329.19" r="2.235"/><circle class="sigma-node c-56" cx="517.976" cy="344.195" r="2.235"/><circle class="sigma-node c-56" cx="508.535" cy="332.307" r="2.449"/><circle class="sigma-node c-92" cx="594.182" cy="374.741" r="2.235"/><circle class="sigma-node c-92" cx="605.166" cy="361.132" r="2.662"/><circle class="sigma-node c-92" cx="601.638" cy="372.752" r="2.449"/><circle class="sigma-node c-92" cx="603.75" cy="352.518" r="2.235"/><circle class="sigma-node c-93" cx="648.549" cy="257.201" r="2.235"/><circle class="sigma-node c-93" cx="650.512" cy="272.042" r="2.235"/><circle class="sigma-node c-93" cx="644.388" cy="268.177" r="2.235"/><circle class="sigma-node c-93" cx="651.705" cy="263.252" r="2.876"/><circle class="sigma-node c-94" cx="705.85" cy="275.964" r="2.235"/><circle class="sigma-node c-93" cx="658.957" cy="266.02" r="2.235"/><circle class="sigma-node c-94" cx="701.34" cy="271.318" r="2.235"/><circle class="sigma-node c-94" cx="704.469" cy="262.157" r="2.235"/><circle class="sigma-node c-94" cx="708.077" cy="267.975" r="2.876"/><circle class="sigma-node c-95" cx="611.417" cy="376.792" r="2.449"/><circle class="sigma-node c-92" cx="610.993" cy="355.064" r="2.235"/><circle class="sigma-node c-95" cx="631.694" cy="364.61" r="2.235"/><circle class="sigma-node c-95" cx="624.865" cy="357.109" r="2.235"/><circle class="sigma-node c-96" cx="655.81" cy="325.743" r="2.235"/><circle class="sigma-node c-95" cx="630.639" cy="358.588" r="2.235"/><circle class="sigma-node c-95" cx="623.292" cy="365.786" r="2.876"/><circle class="sigma-node c-97" cx="704.562" cy="330.987" r="2.662"/><circle class="sigma-node c-97" cx="699.892" cy="337.923" r="2.235"/><circle class="sigma-node c-96" cx="660.679" cy="322.096" r="2.235"/><circle class="sigma-node c-97" cx="697.132" cy="329.574" r="2.235"/><circle class="sigma-node c-98" cx="554.198" cy="388.452" r="4.157"/><circle class="sigma-node c-98" cx="531.728" cy="412.949" r="2.235"/><circle class="sigma-node c-98" cx="543.237" cy="384.381" r="2.235"/><circle class="sigma-node c-98" cx="535.188" cy="403.556" r="3.516"/><circle class="sigma-node c-98" cx="523.409" cy="420.616" r="2.235"/><circle class="sigma-node c-98" cx="527.498" cy="407.154" r="2.235"/><circle class="sigma-node c-98" cx="525.054" cy="414.048" r="2.449"/><circle class="sigma-node c-59" cx="507.509" cy="411.921" r="2.662"/><circle class="sigma-node c-98" cx="549.807" cy="397.966" r="2.235"/><circle class="sigma-node c-98" cx="541.811" cy="398.024" r="2.449"/><circle class="sigma-node c-98" cx="548.346" cy="379.877" r="2.235"/><circle class="sigma-node c-98" cx="542.332" cy="390.908" r="2.235"/><circle class="sigma-node c-98" cx="539.389" cy="414.211" r="2.235"/><circle class="sigma-node c-92" cx="597.237" cy="381.081" r="2.449"/><circle class="sigma-node c-92" cx="590.935" cy="382.329" r="2.235"/><circle class="sigma-node c-92" cx="604.594" cy="392.199" r="2.235"/><circle class="sigma-node c-98" cx="562.379" cy="397.506" r="2.662"/><circle class="sigma-node c-92" cx="586.017" cy="433.258" r="2.235"/><circle class="sigma-node c-98" cx="555.734" cy="398.381" r="2.235"/><circle class="sigma-node c-92" cx="589.114" cy="404.963" r="2.235"/><circle class="sigma-node c-92" cx="603.034" cy="399.928" r="2.235"/><circle class="sigma-node c-92" cx="591.702" cy="392.732" r="5.224"/><circle class="sigma-node c-98" cx="555.376" cy="379.472" r="2.235"/><circle class="sigma-node c-98" cx="561.667" cy="382.138" r="2.235"/><circle class="sigma-node c-92" cx="591.472" cy="437.024" r="2.449"/><circle class="sigma-node c-98" cx="563.847" cy="388.349" r="2.235"/><circle class="sigma-node c-92" cx="601.485" cy="385.669" r="2.235"/><circle class="sigma-node c-92" cx="583.423" cy="385.499" r="2.235"/><circle class="sigma-node c-92" cx="581.874" cy="397.337" r="2.235"/><circle class="sigma-node c-92" cx="597.12" cy="403.306" r="2.235"/><circle class="sigma-node c-59" cx="520.406" cy="483.847" r="2.235"/><circle class="sigma-node c-59" cx="546.275" cy="500.688" r="3.089"/><circle class="sigma-node c-59" cx="507.871" cy="441.586" r="2.876"/><circle class="sigma-node c-59" cx="538.918" cy="500.56" r="2.235"/><circle class="sigma-node c-59" cx="503.078" cy="465.537" r="2.235"/><circle class="sigma-node c-59" cx="502.389" cy="483.483" r="2.235"/><circle class="sigma-node c-59" cx="542.551" cy="494.517" r="2.235"/><circle class="sigma-node c-59" cx="518.9" cy="470.363" r="3.089"/><circle class="sigma-node c-59" cx="509.636" cy="473.057" r="2.235"/><circle class="sigma-node c-59" cx="518.234" cy="477.684" r="2.449"/><circle class="sigma-node c-59" cx="505.028" cy="448.847" r="2.235"/><circle class="sigma-node c-59" cx="503.769" cy="459.17" r="2.449"/><circle class="sigma-node c-59" cx="512.397" cy="467.393" r="2.235"/><circle class="sigma-node c-92" cx="570.566" cy="490.536" r="2.235"/><circle class="sigma-node c-92" cx="598.021" cy="467.767" r="2.235"/><circle class="sigma-node c-92" cx="581.312" cy="456.64" r="2.235"/><circle class="sigma-node c-92" cx="600.541" cy="443.8" r="2.449"/><circle class="sigma-node c-92" cx="604.662" cy="498.5" r="2.449"/><circle class="sigma-node c-92" cx="579.666" cy="494.509" r="4.157"/><circle class="sigma-node c-92" cx="593.211" cy="455.353" r="2.235"/><circle class="sigma-node c-92" cx="587.323" cy="458.899" r="2.235"/><circle class="sigma-node c-92" cx="590.427" cy="447.014" r="4.37"/><circle class="sigma-node c-92" cx="589.523" cy="493.45" r="2.235"/><circle class="sigma-node c-92" cx="579.458" cy="484.847" r="2.235"/><circle class="sigma-node c-92" cx="600.866" cy="452.93" r="2.449"/><circle class="sigma-node c-92" cx="569.776" cy="498.898" r="2.235"/><circle class="sigma-node c-92" cx="587.909" cy="500.166" r="2.235"/><circle class="sigma-node c-92" cx="581.364" cy="449.774" r="2.235"/><circle class="sigma-node c-92" cx="599.025" cy="460.957" r="2.449"/><circle class="sigma-node c-92" cx="582.301" cy="442.418" r="2.235"/><circle class="sigma-node c-92" cx="621.638" cy="412.186" r="2.449"/><circle class="sigma-node c-92" cx="643.695" cy="440.07" r="2.235"/><circle class="sigma-node c-92" cx="653.526" cy="436.125" r="2.235"/><circle class="sigma-node c-92" cx="648.867" cy="423.622" r="2.235"/><circle class="sigma-node c-92" cx="653.464" cy="429.557" r="2.235"/><circle class="sigma-node c-92" cx="607.7" cy="440.42" r="2.235"/><circle class="sigma-node c-92" cx="644.863" cy="432.338" r="3.516"/><circle class="sigma-node c-99" cx="681.807" cy="414.949" r="2.235"/><circle class="sigma-node c-99" cx="676.802" cy="409.428" r="3.303"/><circle class="sigma-node c-99" cx="680.193" cy="399.777" r="2.235"/><circle class="sigma-node c-99" cx="685.647" cy="409.277" r="2.235"/><circle class="sigma-node c-92" cx="664.242" cy="419.471" r="2.449"/><circle class="sigma-node c-99" cx="685.951" cy="402.678" r="2.235"/><circle class="sigma-node c-99" cx="671.908" cy="401.055" r="2.235"/><circle class="sigma-node c-92" cx="625.733" cy="500.795" r="3.089"/><circle class="sigma-node c-92" cx="654.643" cy="475.406" r="2.235"/><circle class="sigma-node c-92" cx="631.869" cy="496.221" r="2.235"/><circle class="sigma-node c-92" cx="648.343" cy="471.193" r="2.449"/><circle class="sigma-node c-92" cx="607.73" cy="455.476" r="2.235"/><circle class="sigma-node c-92" cx="642.873" cy="465.529" r="2.876"/><circle class="sigma-node c-92" cx="638.66" cy="471.252" r="2.235"/><circle class="sigma-node c-100" cx="744.759" cy="266.249" r="2.235"/><circle class="sigma-node c-100" cx="751.439" cy="270.69" r="2.235"/><circle class="sigma-node c-101" cx="752.077" cy="308.232" r="2.449"/><circle class="sigma-node c-101" cx="759.344" cy="310.045" r="2.449"/><circle class="sigma-node c-101" cx="747.139" cy="313.379" r="2.235"/><circle class="sigma-node c-94" cx="715.404" cy="271.652" r="2.235"/><circle class="sigma-node c-102" cx="790.341" cy="291.33" r="2.235"/><circle class="sigma-node c-101" cx="763.51" cy="314.994" r="2.235"/><circle class="sigma-node c-102" cx="793.471" cy="296.926" r="2.449"/><circle class="sigma-node c-102" cx="787.307" cy="301.189" r="2.235"/><circle class="sigma-node c-103" cx="754.653" cy="377.199" r="2.235"/><circle class="sigma-node c-103" cx="761.024" cy="374.681" r="2.449"/><circle class="sigma-node c-103" cx="759.904" cy="366.425" r="2.235"/><circle class="sigma-node c-97" cx="712.253" cy="337.104" r="2.235"/><circle class="sigma-node c-97" cx="711.686" cy="330.213" r="2.449"/><circle class="sigma-node c-104" cx="792.607" cy="340.13" r="2.235"/><circle class="sigma-node c-105" cx="787.133" cy="358.59" r="2.235"/><circle class="sigma-node c-105" cx="783.238" cy="363.155" r="2.235"/><circle class="sigma-node c-106" cx="803.487" cy="328.525" r="2.235"/><circle class="sigma-node c-106" cx="809.228" cy="334.141" r="2.235"/><circle class="sigma-node c-104" cx="788.548" cy="333.246" r="2.235"/><circle class="sigma-node c-107" cx="860.682" cy="286.75" r="2.235"/><circle class="sigma-node c-108" cx="823.607" cy="277.724" r="2.235"/><circle class="sigma-node c-108" cx="819.71" cy="282.272" r="2.235"/><circle class="sigma-node c-107" cx="854.727" cy="286.311" r="2.235"/><circle class="sigma-node c-109" cx="895.457" cy="314.645" r="2.235"/><circle class="sigma-node c-110" cx="845.475" cy="361.671" r="2.235"/><circle class="sigma-node c-111" cx="824.869" cy="323.698" r="2.235"/><circle class="sigma-node c-110" cx="856.375" cy="364.546" r="2.235"/><circle class="sigma-node c-110" cx="852.011" cy="359.96" r="2.449"/><circle class="sigma-node c-112" cx="816.238" cy="375.957" r="2.235"/><circle class="sigma-node c-111" cx="826.344" cy="317.928" r="2.235"/><circle class="sigma-node c-109" cx="898.893" cy="321.849" r="2.235"/><circle class="sigma-node c-113" cx="912.141" cy="371.453" r="2.235"/><circle class="sigma-node c-113" cx="910.632" cy="363.61" r="2.235"/><circle class="sigma-node c-114" cx="790.293" cy="423.641" r="2.235"/><circle class="sigma-node c-115" cx="785.069" cy="394.034" r="2.235"/><circle class="sigma-node c-115" cx="788.129" cy="401.409" r="2.235"/><circle class="sigma-node c-114" cx="791.507" cy="431.537" r="2.235"/><circle class="sigma-node c-112" cx="811.538" cy="385.079" r="2.235"/><circle class="sigma-node c-116" cx="716.463" cy="469.061" r="2.235"/><circle class="sigma-node c-116" cx="738.4" cy="489.702" r="2.235"/><circle class="sigma-node c-116" cx="752.646" cy="480.623" r="2.235"/><circle class="sigma-node c-116" cx="734.214" cy="454.784" r="2.235"/><circle class="sigma-node c-116" cx="750.384" cy="466.584" r="2.235"/><circle class="sigma-node c-116" cx="723.48" cy="469.997" r="2.235"/><circle class="sigma-node c-116" cx="737.239" cy="460.748" r="2.235"/><circle class="sigma-node c-116" cx="729.26" cy="467.901" r="2.235"/><circle class="sigma-node c-116" cx="745.352" cy="495.771" r="2.235"/><circle class="sigma-node c-116" cx="728.66" cy="492.238" r="2.235"/><circle class="sigma-node c-116" cx="719.339" cy="474.975" r="2.235"/><circle class="sigma-node c-116" cx="739.617" cy="476.127" r="7.359"/><circle class="sigma-node c-116" cx="715.346" cy="479.972" r="2.235"/><circle class="sigma-node c-116" cx="730.737" cy="462.151" r="2.235"/><circle class="sigma-node c-116" cx="725.373" cy="458.812" r="2.235"/><circle class="sigma-node c-116" cx="742.338" cy="456.999" r="2.235"/><circle class="sigma-node c-116" cx="721.887" cy="488.925" r="2.235"/><circle class="sigma-node c-116" cx="729.619" cy="485.697" r="2.235"/><circle class="sigma-node c-116" cx="744.258" cy="462.759" r="2.235"/><circle class="sigma-node c-116" cx="721.677" cy="463.677" r="2.235"/><circle class="sigma-node c-116" cx="712.041" cy="473.812" r="2.235"/><circle class="sigma-node c-116" cx="734.271" cy="495.733" r="2.235"/><circle class="sigma-node c-116" cx="721.776" cy="482.262" r="2.235"/><circle class="sigma-node c-116" cx="725.722" cy="476.938" r="2.235"/><circle class="sigma-node c-116" cx="745.517" cy="489.21" r="2.235"/><circle class="sigma-node c-116" cx="715.573" cy="487.44" r="2.235"/><circle class="sigma-node c-117" cx="801.98" cy="470.493" r="2.235"/><circle class="sigma-node c-117" cx="809.166" cy="469.266" r="2.449"/><circle class="sigma-node c-117" cx="808.88" cy="462.577" r="2.235"/><circle class="sigma-node c-112" cx="818.468" cy="382.36" r="2.449"/><circle class="sigma-node c-118" cx="818.274" cy="436.79" r="2.235"/><circle class="sigma-node c-119" cx="822.957" cy="410.853" r="2.235"/><circle class="sigma-node c-119" cx="827.023" cy="415.193" r="2.235"/><circle class="sigma-node c-120" cx="901.296" cy="409.556" r="2.235"/><circle class="sigma-node c-121" cx="876.26" cy="428.884" r="2.235"/><circle class="sigma-node c-121" cx="881.987" cy="430.633" r="2.235"/><circle class="sigma-node c-120" cx="898.599" cy="402.034" r="2.235"/><circle class="sigma-node c-122" cx="833.039" cy="466.059" r="2.235"/><circle class="sigma-node c-118" cx="813.029" cy="442.64" r="2.235"/><circle class="sigma-node c-123" cx="852.818" cy="461.681" r="2.235"/><circle class="sigma-node c-123" cx="858.787" cy="460.883" r="2.235"/><circle class="sigma-node c-124" cx="823.096" cy="500.818" r="2.235"/><circle class="sigma-node c-122" cx="835.565" cy="471.429" r="2.235"/><circle class="sigma-node c-124" cx="819.415" cy="496.094" r="2.235"/><circle class="sigma-node c-125" cx="860.443" cy="483.132" r="2.235"/><circle class="sigma-node c-126" cx="906.896" cy="476.795" r="2.235"/><circle class="sigma-node c-126" cx="910.039" cy="481.84" r="2.235"/><circle class="sigma-node c-125" cx="866.407" cy="482.279" r="2.235"/><circle class="sigma-node c-127" cx="86.177" cy="524.217" r="2.235"/><circle class="sigma-node c-128" cx="139.291" cy="510.992" r="2.235"/><circle class="sigma-node c-129" cx="119.358" cy="537.93" r="2.235"/><circle class="sigma-node c-129" cx="122.035" cy="532.634" r="2.235"/><circle class="sigma-node c-127" cx="89.697" cy="529" r="2.235"/><circle class="sigma-node c-130" cx="133.745" cy="561.842" r="2.235"/><circle class="sigma-node c-131" cx="154.18" cy="554.564" r="2.449"/><circle class="sigma-node c-132" cx="185.93" cy="523.037" r="2.235"/><circle class="sigma-node c-128" cx="145.277" cy="510.989" r="2.235"/><circle class="sigma-node c-131" cx="160.707" cy="551.891" r="2.235"/><circle class="sigma-node c-131" cx="154.96" cy="561.125" r="2.235"/><circle class="sigma-node c-130" cx="141.641" cy="561.336" r="2.235"/><circle class="sigma-node c-132" cx="181.987" cy="518.6" r="2.235"/><circle class="sigma-node c-133" cx="106.205" cy="588.942" r="2.235"/><circle class="sigma-node c-134" cx="127.263" cy="604.545" r="2.235"/><circle class="sigma-node c-134" cx="131.513" cy="608.683" r="2.235"/><circle class="sigma-node c-133" cx="100.751" cy="586.539" r="2.235"/><circle class="sigma-node c-135" cx="165.556" cy="612.087" r="2.235"/><circle class="sigma-node c-135" cx="168.564" cy="602.74" r="2.235"/><circle class="sigma-node c-135" cx="162.175" cy="606.139" r="2.449"/><circle class="sigma-node c-52" cx="227.772" cy="508.415" r="2.235"/><circle class="sigma-node c-136" cx="193.63" cy="548.979" r="2.235"/><circle class="sigma-node c-52" cx="219.058" cy="506.792" r="2.876"/><circle class="sigma-node c-136" cx="203.438" cy="553.335" r="2.235"/><circle class="sigma-node c-137" cx="242.317" cy="548.819" r="2.449"/><circle class="sigma-node c-137" cx="244.15" cy="542.118" r="2.235"/><circle class="sigma-node c-52" cx="221.533" cy="514.601" r="2.235"/><circle class="sigma-node c-136" cx="196.58" cy="554.829" r="2.449"/><circle class="sigma-node c-137" cx="249.787" cy="550.102" r="2.235"/><circle class="sigma-node c-138" cx="222.06" cy="600.687" r="2.235"/><circle class="sigma-node c-139" cx="234.862" cy="617.286" r="2.235"/><circle class="sigma-node c-138" cx="225.298" cy="595.673" r="2.235"/><circle class="sigma-node c-140" cx="209.896" cy="576.014" r="2.235"/><circle class="sigma-node c-139" cx="241.451" cy="621.88" r="2.235"/><circle class="sigma-node c-140" cx="215.463" cy="573.772" r="2.235"/><circle class="sigma-node c-141" cx="262.56" cy="565.146" r="2.235"/><circle class="sigma-node c-142" cx="248.77" cy="601.34" r="2.449"/><circle class="sigma-node c-142" cx="254.998" cy="596.532" r="2.235"/><circle class="sigma-node c-141" cx="256.574" cy="565.113" r="2.235"/><circle class="sigma-node c-143" cx="292.031" cy="613.82" r="2.235"/><circle class="sigma-node c-143" cx="294.248" cy="620.652" r="2.662"/><circle class="sigma-node c-142" cx="253.105" cy="606.543" r="2.235"/><circle class="sigma-node c-144" cx="138.906" cy="639.864" r="2.235"/><circle class="sigma-node c-144" cx="136.61" cy="645.358" r="2.235"/><circle class="sigma-node c-145" cx="184.437" cy="678.438" r="2.235"/><circle class="sigma-node c-145" cx="180.47" cy="682.902" r="2.235"/><circle class="sigma-node c-146" cx="178.363" cy="643.345" r="2.235"/><circle class="sigma-node c-146" cx="184.194" cy="642.025" r="2.235"/><circle class="sigma-node c-147" cx="138.405" cy="688.84" r="2.235"/><circle class="sigma-node c-148" cx="153.769" cy="745.353" r="2.235"/><circle class="sigma-node c-149" cx="186.501" cy="722.186" r="2.235"/><circle class="sigma-node c-147" cx="143.969" cy="690.945" r="2.235"/><circle class="sigma-node c-149" cx="183.039" cy="714.962" r="2.235"/><circle class="sigma-node c-150" cx="221.857" cy="664.963" r="2.235"/><circle class="sigma-node c-151" cx="210.516" cy="630.35" r="2.235"/><circle class="sigma-node c-152" cx="229.611" cy="641.848" r="2.235"/><circle class="sigma-node c-151" cx="205.115" cy="627.851" r="2.235"/><circle class="sigma-node c-152" cx="225.938" cy="646.555" r="2.235"/><circle class="sigma-node c-150" cx="218.377" cy="669.817" r="2.235"/><circle class="sigma-node c-153" cx="275.735" cy="630.84" r="2.235"/><circle class="sigma-node c-154" cx="275.524" cy="680.806" r="2.235"/><circle class="sigma-node c-155" cx="255.625" cy="669.031" r="2.235"/><circle class="sigma-node c-154" cx="269.573" cy="680.975" r="2.235"/><circle class="sigma-node c-156" cx="295.033" cy="647.422" r="2.235"/><circle class="sigma-node c-153" cx="270.668" cy="634.068" r="2.235"/><circle class="sigma-node c-155" cx="249.901" cy="667.456" r="2.235"/><circle class="sigma-node c-157" cx="234.897" cy="736.893" r="2.235"/><circle class="sigma-node c-157" cx="239.462" cy="732.984" r="2.235"/><circle class="sigma-node c-158" cx="209.431" cy="719.63" r="2.235"/><circle class="sigma-node c-158" cx="215.214" cy="720.972" r="2.235"/><circle class="sigma-node c-159" cx="249.359" cy="718.149" r="2.235"/><circle class="sigma-node c-159" cx="259.567" cy="716.13" r="2.235"/><circle class="sigma-node c-159" cx="259.773" cy="726.889" r="2.235"/><circle class="sigma-node c-160" cx="280.401" cy="745.935" r="2.235"/><circle class="sigma-node c-159" cx="254.867" cy="722.205" r="2.662"/><circle class="sigma-node c-161" cx="332.217" cy="521.188" r="2.235"/><circle class="sigma-node c-161" cx="317.574" cy="531.923" r="2.449"/><circle class="sigma-node c-161" cx="312.622" cy="524.463" r="2.235"/><circle class="sigma-node c-161" cx="321.66" cy="524.192" r="3.943"/><circle class="sigma-node c-161" cx="330.64" cy="527.973" r="2.235"/><circle class="sigma-node c-161" cx="318.773" cy="544.65" r="3.089"/><circle class="sigma-node c-161" cx="316.607" cy="516.475" r="2.235"/><circle class="sigma-node c-161" cx="323.934" cy="533.301" r="2.449"/><circle class="sigma-node c-161" cx="320.277" cy="552.545" r="2.235"/><circle class="sigma-node c-161" cx="317.991" cy="559.436" r="2.449"/><circle class="sigma-node c-161" cx="325.791" cy="514.804" r="2.235"/><circle class="sigma-node c-161" cx="312.982" cy="552.065" r="2.235"/><circle class="sigma-node c-161" cx="330.947" cy="537.764" r="2.235"/><circle class="sigma-node c-161" cx="327.547" cy="550.724" r="2.235"/><circle class="sigma-node c-161" cx="310.057" cy="535.088" r="2.235"/><circle class="sigma-node c-58" cx="369.394" cy="506.344" r="2.235"/><circle class="sigma-node c-58" cx="379.114" cy="516.842" r="2.235"/><circle class="sigma-node c-58" cx="379.782" cy="522.993" r="2.235"/><circle class="sigma-node c-58" cx="366.546" cy="521.783" r="2.235"/><circle class="sigma-node c-58" cx="373.4" cy="523.299" r="2.235"/><circle class="sigma-node c-58" cx="364.492" cy="513.641" r="3.73"/><circle class="sigma-node c-58" cx="382.204" cy="511.183" r="2.235"/><circle class="sigma-node c-58" cx="377.342" cy="507.263" r="2.235"/><circle class="sigma-node c-161" cx="319.967" cy="566.338" r="2.235"/><circle class="sigma-node c-143" cx="301.043" cy="616.299" r="2.235"/><circle class="sigma-node c-59" cx="492.32" cy="554.706" r="2.235"/><circle class="sigma-node c-59" cx="474.504" cy="527.15" r="2.235"/><circle class="sigma-node c-59" cx="478.922" cy="551.149" r="2.235"/><circle class="sigma-node c-59" cx="494.261" cy="523.847" r="2.235"/><circle class="sigma-node c-59" cx="484.543" cy="555.88" r="2.235"/><circle class="sigma-node c-59" cx="455.662" cy="562.644" r="2.235"/><circle class="sigma-node c-59" cx="475.755" cy="536.551" r="2.235"/><circle class="sigma-node c-59" cx="494.705" cy="504.709" r="2.449"/><circle class="sigma-node c-59" cx="471.476" cy="540.941" r="2.235"/><circle class="sigma-node c-59" cx="470.717" cy="518.084" r="2.876"/><circle class="sigma-node c-59" cx="482.485" cy="522.129" r="2.235"/><circle class="sigma-node c-59" cx="485.977" cy="509.337" r="2.449"/><circle class="sigma-node c-59" cx="487.328" cy="525.929" r="2.235"/><circle class="sigma-node c-59" cx="464.155" cy="552.686" r="2.235"/><circle class="sigma-node c-59" cx="461.395" cy="560.095" r="2.449"/><circle class="sigma-node c-59" cx="489.887" cy="541.249" r="7.359"/><circle class="sigma-node c-59" cx="476.242" cy="544.682" r="2.235"/><circle class="sigma-node c-162" cx="497.538" cy="561.017" r="2.449"/><circle class="sigma-node c-59" cx="469.121" cy="532.871" r="2.235"/><circle class="sigma-node c-59" cx="498.161" cy="528.531" r="2.235"/><circle class="sigma-node c-59" cx="470.737" cy="551.194" r="2.662"/><circle class="sigma-node c-59" cx="481.908" cy="528.624" r="2.235"/><circle class="sigma-node c-59" cx="500.115" cy="550.114" r="2.449"/><circle class="sigma-node c-163" cx="404.298" cy="610.63" r="2.235"/><circle class="sigma-node c-163" cx="400.387" cy="603.632" r="2.235"/><circle class="sigma-node c-162" cx="501.351" cy="583.077" r="2.235"/><circle class="sigma-node c-164" cx="460.577" cy="607.263" r="2.235"/><circle class="sigma-node c-164" cx="463.713" cy="587.638" r="2.235"/><circle class="sigma-node c-162" cx="502.605" cy="575.132" r="2.876"/><circle class="sigma-node c-164" cx="461.597" cy="600.995" r="2.235"/><circle class="sigma-node c-164" cx="473.144" cy="610.115" r="2.235"/><circle class="sigma-node c-164" cx="474.092" cy="575.638" r="2.876"/><circle class="sigma-node c-164" cx="474.54" cy="603.791" r="2.235"/><circle class="sigma-node c-164" cx="469.151" cy="598.201" r="3.303"/><circle class="sigma-node c-164" cx="475.838" cy="583.421" r="2.235"/><circle class="sigma-node c-164" cx="466.099" cy="612.077" r="2.235"/><circle class="sigma-node c-164" cx="468.977" cy="582.21" r="2.449"/><circle class="sigma-node c-156" cx="300.985" cy="647.394" r="2.235"/><circle class="sigma-node c-143" cx="298.86" cy="625.843" r="2.235"/><circle class="sigma-node c-165" cx="342.207" cy="636.56" r="2.235"/><circle class="sigma-node c-166" cx="315.74" cy="671.721" r="2.235"/><circle class="sigma-node c-165" cx="337.602" cy="642.736" r="2.662"/><circle class="sigma-node c-165" cx="343.442" cy="646.479" r="2.235"/><circle class="sigma-node c-165" cx="332.328" cy="638.405" r="2.235"/><circle class="sigma-node c-166" cx="309.801" cy="671.608" r="2.235"/><circle class="sigma-node c-167" cx="392.429" cy="644.699" r="2.449"/><circle class="sigma-node c-167" cx="397.112" cy="638.842" r="2.235"/><circle class="sigma-node c-168" cx="359.111" cy="673.828" r="2.235"/><circle class="sigma-node c-168" cx="354.524" cy="679.753" r="2.662"/><circle class="sigma-node c-168" cx="349.735" cy="674.677" r="2.235"/><circle class="sigma-node c-167" cx="386.974" cy="641.075" r="2.235"/><circle class="sigma-node c-168" cx="360.265" cy="683.618" r="2.235"/><circle class="sigma-node c-169" cx="308.166" cy="728.675" r="2.235"/><circle class="sigma-node c-169" cx="318.441" cy="730.961" r="2.449"/><circle class="sigma-node c-169" cx="312.264" cy="733.818" r="2.449"/><circle class="sigma-node c-169" cx="323.39" cy="725.127" r="2.235"/><circle class="sigma-node c-170" cx="303.011" cy="700.833" r="2.235"/><circle class="sigma-node c-170" cx="308.882" cy="701.723" r="2.235"/><circle class="sigma-node c-171" cx="378.415" cy="689.464" r="2.235"/><circle class="sigma-node c-172" cx="363.389" cy="732.232" r="2.235"/><circle class="sigma-node c-171" cx="373.248" cy="692.444" r="2.235"/><circle class="sigma-node c-172" cx="368.873" cy="735.844" r="2.235"/><circle class="sigma-node c-172" cx="362.671" cy="739.843" r="2.876"/><circle class="sigma-node c-173" cx="416.767" cy="653.449" r="2.235"/><circle class="sigma-node c-174" cx="414.748" cy="685.758" r="2.235"/><circle class="sigma-node c-173" cx="419.742" cy="648.3" r="2.235"/><circle class="sigma-node c-175" cx="421.62" cy="741.887" r="2.235"/><circle class="sigma-node c-175" cx="428.021" cy="743.073" r="2.449"/><circle class="sigma-node c-175" cx="430.431" cy="736.259" r="2.235"/><circle class="sigma-node c-176" cx="438.306" cy="689.049" r="2.235"/><circle class="sigma-node c-177" cx="408.443" cy="744.197" r="2.235"/><circle class="sigma-node c-174" cx="419.052" cy="695.33" r="2.235"/><circle class="sigma-node c-176" cx="435.054" cy="696.389" r="2.235"/><circle class="sigma-node c-174" cx="413.484" cy="692.225" r="2.449"/><circle class="sigma-node c-178" cx="464.511" cy="700.96" r="2.235"/><circle class="sigma-node c-179" cx="477.38" cy="742.082" r="2.235"/><circle class="sigma-node c-178" cx="472.37" cy="701.41" r="2.876"/><circle class="sigma-node c-178" cx="482.213" cy="712.474" r="2.235"/><circle class="sigma-node c-178" cx="471.702" cy="694.472" r="2.235"/><circle class="sigma-node c-178" cx="479.256" cy="696.851" r="2.235"/><circle class="sigma-node c-179" cx="475.227" cy="736.451" r="2.235"/><circle class="sigma-node c-178" cx="475.822" cy="709.788" r="2.449"/><circle class="sigma-node c-148" cx="159.231" cy="751.176" r="2.235"/><circle class="sigma-node c-180" cx="235.462" cy="797.263" r="2.235"/><circle class="sigma-node c-181" cx="201.708" cy="774.187" r="2.235"/><circle class="sigma-node c-180" cx="230.544" cy="791.006" r="2.235"/><circle class="sigma-node c-181" cx="207.481" cy="775.569" r="2.235"/><circle class="sigma-node c-182" cx="290.301" cy="768.922" r="2.235"/><circle class="sigma-node c-183" cx="291.969" cy="793.088" r="2.235"/><circle class="sigma-node c-182" cx="287.95" cy="763.475" r="2.235"/><circle class="sigma-node c-160" cx="278.253" cy="751.508" r="2.235"/><circle class="sigma-node c-183" cx="293.427" cy="798.855" r="2.235"/><circle class="sigma-node c-184" cx="274.058" cy="822.779" r="2.235"/><circle class="sigma-node c-184" cx="268.388" cy="824.602" r="2.235"/><circle class="sigma-node c-185" cx="324.962" cy="761.269" r="2.235"/><circle class="sigma-node c-185" cx="324.75" cy="767.224" r="2.235"/><circle class="sigma-node c-186" cx="345.814" cy="765.928" r="2.235"/><circle class="sigma-node c-186" cx="346.185" cy="759.971" r="2.235"/><circle class="sigma-node c-187" cx="362.906" cy="749.676" r="2.235"/><circle class="sigma-node c-187" cx="363.636" cy="757.641" r="2.235"/><circle class="sigma-node c-188" cx="378.864" cy="755.316" r="2.235"/><circle class="sigma-node c-188" cx="380.671" cy="763.05" r="2.235"/><circle class="sigma-node c-189" cx="342.979" cy="846.371" r="2.235"/><circle class="sigma-node c-190" cx="322.215" cy="824.755" r="2.235"/><circle class="sigma-node c-190" cx="328.236" cy="827.646" r="2.449"/><circle class="sigma-node c-189" cx="339.185" cy="850.994" r="2.235"/><circle class="sigma-node c-190" cx="332.324" cy="821.635" r="2.235"/><circle class="sigma-node c-191" cx="361.965" cy="815.245" r="2.235"/><circle class="sigma-node c-191" cx="367.312" cy="820.181" r="2.449"/><circle class="sigma-node c-192" cx="387.849" cy="831.846" r="2.235"/><circle class="sigma-node c-191" cx="371.133" cy="813.049" r="2.235"/><circle class="sigma-node c-192" cx="390.758" cy="826.59" r="2.235"/><circle class="sigma-node c-177" cx="409.302" cy="750.126" r="2.235"/><circle class="sigma-node c-193" cx="427.731" cy="773.366" r="2.235"/><circle class="sigma-node c-194" cx="398.981" cy="782.112" r="2.235"/><circle class="sigma-node c-195" cx="445.857" cy="802.314" r="2.235"/><circle class="sigma-node c-194" cx="399.006" cy="788.086" r="2.235"/><circle class="sigma-node c-195" cx="448.342" cy="796.881" r="2.235"/><circle class="sigma-node c-193" cx="429.781" cy="767.756" r="2.235"/><circle class="sigma-node c-196" cx="448.862" cy="767.514" r="2.235"/><circle class="sigma-node c-197" cx="498.532" cy="808.552" r="2.235"/><circle class="sigma-node c-196" cx="455.184" cy="772.469" r="2.235"/><circle class="sigma-node c-198" cx="478.922" cy="787.052" r="2.235"/><circle class="sigma-node c-198" cx="478.419" cy="793.008" r="2.235"/><circle class="sigma-node c-199" cx="495.024" cy="759.305" r="2.235"/><circle class="sigma-node c-199" cx="497.35" cy="753.813" r="2.235"/><circle class="sigma-node c-200" cx="437.308" cy="844.832" r="2.235"/><circle class="sigma-node c-200" cx="435.876" cy="839.012" r="2.235"/><circle class="sigma-node c-201" cx="424.892" cy="845.205" r="2.235"/><circle class="sigma-node c-201" cx="416.88" cy="845.339" r="2.235"/><circle class="sigma-node c-202" cx="480.555" cy="836.76" r="2.235"/><circle class="sigma-node c-202" cx="477.043" cy="831.944" r="2.235"/><circle class="sigma-node c-203" cx="481.819" cy="864.574" r="2.235"/><circle class="sigma-node c-203" cx="476.344" cy="866.849" r="2.235"/><circle class="sigma-node c-204" cx="424.062" cy="876.564" r="2.235"/><circle class="sigma-node c-204" cx="418.451" cy="878.506" r="2.235"/><circle class="sigma-node c-205" cx="473.311" cy="898.077" r="2.235"/><circle class="sigma-node c-205" cx="478.716" cy="895.637" r="2.235"/><circle class="sigma-node c-206" cx="553.342" cy="531.981" r="2.235"/><circle class="sigma-node c-59" cx="536.434" cy="527.984" r="2.662"/><circle class="sigma-node c-207" cx="541.707" cy="545.041" r="3.089"/><circle class="sigma-node c-59" cx="503.003" cy="536.897" r="2.235"/><circle class="sigma-node c-207" cx="536.855" cy="552.104" r="2.235"/><circle class="sigma-node c-206" cx="549.755" cy="514.017" r="2.449"/><circle class="sigma-node c-59" cx="503.838" cy="530.79" r="2.235"/><circle class="sigma-node c-59" cx="503.137" cy="543.936" r="2.235"/><circle class="sigma-node c-207" cx="549.442" cy="549.942" r="2.235"/><circle class="sigma-node c-207" cx="541.221" cy="556.46" r="2.235"/><circle class="sigma-node c-207" cx="547.217" cy="556.007" r="2.235"/><circle class="sigma-node c-206" cx="556.434" cy="525.362" r="2.662"/><circle class="sigma-node c-59" cx="570.958" cy="511.878" r="2.662"/><circle class="sigma-node c-206" cx="560.399" cy="535.968" r="2.449"/><circle class="sigma-node c-206" cx="567.491" cy="549.092" r="2.235"/><circle class="sigma-node c-59" cx="595.563" cy="518.578" r="2.662"/><circle class="sigma-node c-206" cx="564.308" cy="542.809" r="2.449"/><circle class="sigma-node c-92" cx="581.394" cy="504.5" r="2.235"/><circle class="sigma-node c-92" cx="573.942" cy="504.029" r="2.235"/><circle class="sigma-node c-59" cx="598.008" cy="526.92" r="2.235"/><circle class="sigma-node c-59" cx="572.442" cy="519.971" r="2.235"/><circle class="sigma-node c-162" cx="507.424" cy="584.133" r="2.235"/><circle class="sigma-node c-162" cx="510.219" cy="578.719" r="2.235"/><circle class="sigma-node c-92" cx="643.888" cy="508.858" r="2.235"/><circle class="sigma-node c-92" cx="625.878" cy="536.851" r="2.449"/><circle class="sigma-node c-92" cx="616.393" cy="518.31" r="2.662"/><circle class="sigma-node c-92" cx="636.193" cy="508.169" r="2.662"/><circle class="sigma-node c-92" cx="622.314" cy="529.975" r="2.449"/><circle class="sigma-node c-92" cx="628.264" cy="542.676" r="2.235"/><circle class="sigma-node c-92" cx="644.693" cy="516.278" r="2.449"/><circle class="sigma-node c-92" cx="650.758" cy="520.814" r="2.235"/><circle class="sigma-node c-208" cx="621.981" cy="624.912" r="2.235"/><circle class="sigma-node c-209" cx="673.235" cy="624.166" r="2.235"/><circle class="sigma-node c-209" cx="679.289" cy="618.596" r="2.449"/><circle class="sigma-node c-209" cx="677.899" cy="611.037" r="2.876"/><circle class="sigma-node c-209" cx="674.68" cy="604.556" r="2.235"/><circle class="sigma-node c-209" cx="685.247" cy="606.7" r="2.235"/><circle class="sigma-node c-209" cx="671.057" cy="610.804" r="2.235"/><circle class="sigma-node c-210" cx="505.402" cy="657.133" r="2.235"/><circle class="sigma-node c-210" cx="514.991" cy="648.77" r="2.235"/><circle class="sigma-node c-210" cx="513.458" cy="656.738" r="2.449"/><circle class="sigma-node c-211" cx="577.531" cy="684.567" r="3.516"/><circle class="sigma-node c-211" cx="571.519" cy="677.616" r="2.235"/><circle class="sigma-node c-211" cx="573.646" cy="670.821" r="2.235"/><circle class="sigma-node c-211" cx="584.37" cy="671.709" r="2.235"/><circle class="sigma-node c-211" cx="586.881" cy="683.054" r="2.235"/><circle class="sigma-node c-211" cx="565.605" cy="682.792" r="2.235"/><circle class="sigma-node c-211" cx="579.088" cy="666.966" r="2.235"/><circle class="sigma-node c-211" cx="588.111" cy="676.645" r="2.235"/><circle class="sigma-node c-211" cx="533.958" cy="691.481" r="2.235"/><circle class="sigma-node c-211" cx="535.791" cy="700.722" r="2.876"/><circle class="sigma-node c-211" cx="549.773" cy="696.411" r="2.449"/><circle class="sigma-node c-211" cx="527.295" cy="701.098" r="2.235"/><circle class="sigma-node c-211" cx="528.19" cy="693.488" r="2.235"/><circle class="sigma-node c-211" cx="542.72" cy="697.196" r="2.449"/><circle class="sigma-node c-211" cx="569.107" cy="689.756" r="2.662"/><circle class="sigma-node c-211" cx="562.08" cy="698.684" r="2.235"/><circle class="sigma-node c-211" cx="559.363" cy="692.248" r="2.876"/><circle class="sigma-node c-212" cx="589.522" cy="743.662" r="2.235"/><circle class="sigma-node c-212" cx="597.463" cy="744.843" r="2.235"/><circle class="sigma-node c-211" cx="554.247" cy="687.447" r="2.235"/><circle class="sigma-node c-208" cx="630.861" cy="632.519" r="2.235"/><circle class="sigma-node c-213" cx="645.41" cy="675.579" r="2.235"/><circle class="sigma-node c-208" cx="623.763" cy="633.249" r="2.876"/><circle class="sigma-node c-213" cx="635.087" cy="673.637" r="2.235"/><circle class="sigma-node c-208" cx="619.243" cy="639.286" r="2.235"/><circle class="sigma-node c-208" cx="616.014" cy="629.356" r="2.235"/><circle class="sigma-node c-213" cx="639.755" cy="678.771" r="2.449"/><circle class="sigma-node c-214" cx="662.844" cy="657.496" r="2.235"/><circle class="sigma-node c-215" cx="702.518" cy="673.037" r="2.235"/><circle class="sigma-node c-214" cx="667.67" cy="662.506" r="2.449"/><circle class="sigma-node c-214" cx="673.43" cy="659.276" r="2.235"/><circle class="sigma-node c-215" cx="695.941" cy="677.578" r="2.235"/><circle class="sigma-node c-216" cx="635.809" cy="715.786" r="2.235"/><circle class="sigma-node c-217" cx="613.839" cy="722.943" r="2.235"/><circle class="sigma-node c-217" cx="611.596" cy="717.451" r="2.235"/><circle class="sigma-node c-216" cx="640.421" cy="711.585" r="2.449"/><circle class="sigma-node c-216" cx="636.774" cy="705.356" r="2.235"/><circle class="sigma-node c-218" cx="689.587" cy="714.239" r="2.449"/><circle class="sigma-node c-218" cx="683.959" cy="717.777" r="2.235"/><circle class="sigma-node c-218" cx="685.73" cy="707.556" r="2.235"/><circle class="sigma-node c-219" cx="748.983" cy="559.739" r="2.235"/><circle class="sigma-node c-219" cx="738.725" cy="561.798" r="2.235"/><circle class="sigma-node c-220" cx="806.817" cy="543.191" r="2.235"/><circle class="sigma-node c-220" cx="808.551" cy="536.705" r="2.449"/><circle class="sigma-node c-221" cx="789.083" cy="515.301" r="2.449"/><circle class="sigma-node c-221" cx="782.106" cy="515.012" r="2.235"/><circle class="sigma-node c-220" cx="801.765" cy="533.924" r="2.235"/><circle class="sigma-node c-221" cx="790.949" cy="509.07" r="2.235"/><circle class="sigma-node c-222" cx="737.531" cy="622.686" r="2.235"/><circle class="sigma-node c-219" cx="745.725" cy="565.741" r="2.662"/><circle class="sigma-node c-222" cx="730.489" cy="620.377" r="2.235"/><circle class="sigma-node c-222" cx="724.098" cy="621.353" r="2.235"/><circle class="sigma-node c-219" cx="741.07" cy="571.068" r="2.235"/><circle class="sigma-node c-223" cx="768.907" cy="594.689" r="2.235"/><circle class="sigma-node c-224" cx="800.324" cy="611.985" r="2.235"/><circle class="sigma-node c-224" cx="791.468" cy="616.103" r="2.235"/><circle class="sigma-node c-224" cx="798.536" cy="618.727" r="2.449"/><circle class="sigma-node c-223" cx="772.169" cy="587.399" r="2.235"/><circle class="sigma-node c-225" cx="798.459" cy="577.236" r="2.235"/><circle class="sigma-node c-225" cx="788.491" cy="580.956" r="2.235"/><circle class="sigma-node c-225" cx="795.347" cy="583.096" r="2.449"/><circle class="sigma-node c-226" cx="832.899" cy="528.103" r="2.235"/><circle class="sigma-node c-227" cx="815.472" cy="550.349" r="2.235"/><circle class="sigma-node c-226" cx="837.178" cy="523.958" r="2.235"/><circle class="sigma-node c-227" cx="820.899" cy="552.83" r="2.235"/><circle class="sigma-node c-228" cx="884.132" cy="527.893" r="2.449"/><circle class="sigma-node c-228" cx="881.251" cy="534.332" r="2.235"/><circle class="sigma-node c-229" cx="911.007" cy="533.702" r="2.235"/><circle class="sigma-node c-228" cx="877.47" cy="525.675" r="2.235"/><circle class="sigma-node c-229" cx="907.224" cy="538.289" r="2.235"/><circle class="sigma-node c-230" cx="824.96" cy="621.443" r="2.235"/><circle class="sigma-node c-230" cx="819.17" cy="622.928" r="2.235"/><circle class="sigma-node c-231" cx="841.212" cy="601.973" r="2.235"/><circle class="sigma-node c-231" cx="846.803" cy="604.144" r="2.235"/><circle class="sigma-node c-232" cx="825.876" cy="576.266" r="2.235"/><circle class="sigma-node c-232" cx="820.983" cy="572.783" r="2.235"/><circle class="sigma-node c-233" cx="912.12" cy="585.084" r="2.235"/><circle class="sigma-node c-233" cx="913.823" cy="577.278" r="2.235"/><circle class="sigma-node c-234" cx="888.609" cy="610.142" r="2.235"/><circle class="sigma-node c-234" cx="887.403" cy="604.319" r="2.235"/><circle class="sigma-node c-222" cx="723.826" cy="633.812" r="2.235"/><circle class="sigma-node c-235" cx="731.87" cy="669.259" r="2.235"/><circle class="sigma-node c-222" cx="730.071" cy="638.22" r="2.235"/><circle class="sigma-node c-222" cx="730.45" cy="628.062" r="3.516"/><circle class="sigma-node c-235" cx="732.69" cy="677.248" r="2.235"/><circle class="sigma-node c-222" cx="721.799" cy="627.008" r="2.235"/><circle class="sigma-node c-222" cx="745.924" cy="627.003" r="2.235"/><circle class="sigma-node c-222" cx="740.233" cy="631.392" r="2.449"/><circle class="sigma-node c-236" cx="797.113" cy="662.871" r="2.235"/><circle class="sigma-node c-236" cx="790.267" cy="674.705" r="2.235"/><circle class="sigma-node c-236" cx="787.267" cy="664.94" r="2.235"/><circle class="sigma-node c-237" cx="809.619" cy="686.548" r="2.235"/><circle class="sigma-node c-236" cx="793.855" cy="668.918" r="2.662"/><circle class="sigma-node c-238" cx="722.815" cy="728.085" r="2.449"/><circle class="sigma-node c-239" cx="754.422" cy="719.77" r="2.235"/><circle class="sigma-node c-238" cx="718.626" cy="733.076" r="2.235"/><circle class="sigma-node c-240" cx="730.971" cy="693.102" r="2.235"/><circle class="sigma-node c-240" cx="725.075" cy="694.006" r="2.235"/><circle class="sigma-node c-238" cx="718.765" cy="722.296" r="2.235"/><circle class="sigma-node c-241" cx="727.595" cy="747.669" r="2.235"/><circle class="sigma-node c-239" cx="750.733" cy="715.072" r="2.235"/><circle class="sigma-node c-242" cx="790.526" cy="718.415" r="2.235"/><circle class="sigma-node c-242" cx="794.533" cy="722.827" r="2.235"/><circle class="sigma-node c-243" cx="780.602" cy="711.944" r="2.235"/><circle class="sigma-node c-243" cx="775.02" cy="717.641" r="2.235"/><circle class="sigma-node c-244" cx="851.835" cy="648.27" r="2.235"/><circle class="sigma-node c-244" cx="856.744" cy="651.729" r="2.235"/><circle class="sigma-node c-245" cx="842.508" cy="662.54" r="2.235"/><circle class="sigma-node c-245" cx="837.438" cy="668.733" r="2.235"/><circle class="sigma-node c-237" cx="815.599" cy="686.795" r="2.235"/><circle class="sigma-node c-246" cx="830.039" cy="739.085" r="2.235"/><circle class="sigma-node c-246" cx="837.333" cy="735.718" r="2.235"/><circle class="sigma-node c-247" cx="532.113" cy="759.189" r="2.235"/><circle class="sigma-node c-247" cx="519.44" cy="763.654" r="2.235"/><circle class="sigma-node c-247" cx="525.925" cy="762.341" r="2.662"/><circle class="sigma-node c-247" cx="523.833" cy="754.599" r="2.235"/><circle class="sigma-node c-248" cx="551.773" cy="764.74" r="2.235"/><circle class="sigma-node c-248" cx="553.455" cy="756.982" r="2.235"/><circle class="sigma-node c-197" cx="506.52" cy="808.735" r="2.235"/><circle class="sigma-node c-249" cx="568.244" cy="795.214" r="2.235"/><circle class="sigma-node c-250" cx="584.561" cy="768.586" r="2.235"/><circle class="sigma-node c-250" cx="590.051" cy="764.897" r="2.449"/><circle class="sigma-node c-250" cx="588.642" cy="758.085" r="2.235"/><circle class="sigma-node c-249" cx="563.153" cy="804.849" r="2.235"/><circle class="sigma-node c-249" cx="568.705" cy="801.838" r="2.449"/><circle class="sigma-node c-251" cx="538.642" cy="869.694" r="2.662"/><circle class="sigma-node c-251" cx="532.315" cy="863.856" r="2.235"/><circle class="sigma-node c-252" cx="507.373" cy="823.679" r="2.235"/><circle class="sigma-node c-253" cx="545.78" cy="840.637" r="2.235"/><circle class="sigma-node c-251" cx="545.643" cy="866.288" r="2.235"/><circle class="sigma-node c-253" cx="537.816" cy="840.201" r="2.235"/><circle class="sigma-node c-252" cx="502.89" cy="819.785" r="2.235"/><circle class="sigma-node c-251" cx="539.392" cy="860.545" r="2.235"/><circle class="sigma-node c-254" cx="583.055" cy="829.299" r="2.235"/><circle class="sigma-node c-254" cx="583.256" cy="823.319" r="2.235"/><circle class="sigma-node c-255" cx="602.206" cy="815.889" r="2.235"/><circle class="sigma-node c-256" cx="601.101" cy="864.71" r="2.235"/><circle class="sigma-node c-257" cx="632.774" cy="801.224" r="2.235"/><circle class="sigma-node c-258" cx="619.056" cy="781.689" r="2.235"/><circle class="sigma-node c-258" cx="615.237" cy="786.235" r="2.235"/><circle class="sigma-node c-259" cx="625.678" cy="749.979" r="2.235"/><circle class="sigma-node c-257" cx="638.491" cy="802.827" r="2.235"/><circle class="sigma-node c-259" cx="629.413" cy="754.625" r="2.235"/><circle class="sigma-node c-260" cx="672.112" cy="754.738" r="2.235"/><circle class="sigma-node c-260" cx="679.471" cy="751.643" r="2.235"/><circle class="sigma-node c-261" cx="687.516" cy="770.78" r="2.235"/><circle class="sigma-node c-261" cx="682.224" cy="775.064" r="2.449"/><circle class="sigma-node c-261" cx="677.674" cy="769.068" r="2.235"/><circle class="sigma-node c-262" cx="651.891" cy="868.91" r="2.235"/><circle class="sigma-node c-255" cx="606.993" cy="819.454" r="2.235"/><circle class="sigma-node c-256" cx="606.468" cy="867.275" r="2.235"/><circle class="sigma-node c-263" cx="689.66" cy="825.485" r="2.235"/><circle class="sigma-node c-262" cx="659.594" cy="866.84" r="2.235"/><circle class="sigma-node c-264" cx="671.935" cy="827.696" r="2.235"/><circle class="sigma-node c-265" cx="707.073" cy="816.915" r="2.235"/><circle class="sigma-node c-263" cx="687.409" cy="819.909" r="2.235"/><circle class="sigma-node c-265" cx="701.142" cy="816.771" r="2.235"/><circle class="sigma-node c-264" cx="676.691" cy="821.29" r="2.235"/><circle class="sigma-node c-266" cx="534.03" cy="921.807" r="2.235"/><circle class="sigma-node c-266" cx="541.955" cy="920.773" r="2.235"/><circle class="sigma-node" cx="603.525" cy="992.126" r="2.449" fill="#a5aa99"/><circle class="sigma-node c-268" cx="713.855" cy="773.551" r="2.235"/><circle class="sigma-node c-268" cx="719.572" cy="775.237" r="2.235"/><circle class="sigma-node c-241" cx="733.183" cy="749.74" r="2.235"/><circle class="sigma-node c-269" cx="736.67" cy="808.976" r="2.235"/><circle class="sigma-node c-269" cx="742.593" cy="809.462" r="2.235"/><circle class="sigma-node c-270" cx="777.963" cy="769.696" r="2.235"/><circle class="sigma-node c-270" cx="772.124" cy="770.754" r="2.235"/></g></svg>