<svg class="sigma-svg" xmlns="http://www.w3.org/2000/svg" width="1000" height="1000"><style>.sigma-node{fill:#d5a32c}.c-0{fill:#e46261}.c-1{fill:#ac9872}.c-2{fill:#784e9e}.c-3{fill:#bd9d35}.c-4{fill:#ce5d70}.c-5{fill:#517ab9}.c-6{fill:#d17f40}.c-7{fill:#c876a1}.c-8{fill:#b19797}.c-9{fill:#d75f6a}.c-10{fill:#778fa4}.c-11{fill:#95948c}.c-12{fill:#c17093}.c-13{fill:#626bb0}.c-14{fill:#5477b8}.c-15{fill:#d1a236}.c-16{fill:#5b8261}.c-17{fill:#ca6ba9}.c-18{fill:#5ca0a9}.c-19{fill:#54b9a4}.c-20{fill:#528063}.c-21{fill:#80909e}.c-22{fill:#c45b76}.c-23{fill:#b69b65}.c-24{fill:#c9a02c}.c-25{fill:#cda13f}.c-26{fill:#c77b9d}.c-27{fill:#c26c92}.c-28{fill:#b6587f}.c-29{fill:#dd4f75}.c-30{fill:#7550a0}.c-31{fill:#b99f7c}.c-32{fill:#4581be}.c-33{fill:#af9b97}.c-34{fill:#93c755}.c-35{fill:#c971a5}.c-36{fill:#5d6bb1}.c-37{fill:#83748c}.c-38{fill:#767686}.c-39{fill:#9c7098}.c-40{fill:#bb9c5e}.c-41{fill:#bf66a9}.c-42{fill:#cc7e47}.c-43{fill:#ce3d8b}.c-44{fill:#bf7593}.c-45{fill:#80c276}.c-46{fill:#6963ab}.c-47{fill:#5f8bac}.c-48{fill:#90904e}.c-49{fill:#3d7c68}.c-50{fill:#578cb7}.c-51{fill:#3b86c1}.c-52{fill:#b46aa4}.c-53{fill:#d94a7c}.c-54{fill:#bb9b80}.c-55{fill:#b6a377}.c-56{fill:#e75c66}.c-57{fill:#3588c3}.c-58{fill:#94708c}.c-59{fill:#dd8326}.c-60{fill:#d03f89}.c-61{fill:#b4a773}.c-62{fill:#5e95aa}.c-63{fill:#28796d}.c-64{fill:#b968a7}.c-65{fill:#bb597c}.c-66{fill:#348ac3}.c-67{fill:#5f84ad}.c-68{fill:#c56291}.c-69{fill:#c65d91}.c-70{fill:#df5173}.c-71{fill:#606db1}.c-72{fill:#d98230}.c-73{fill:#d54582}.c-74{fill:#e1851a}.c-75{fill:#8ac566}.c-76{fill:#5ba4a8}.c-77{fill:#b0766e}.c-78{fill:#d58038}.c-79{fill:#c47b55}.c-80{fill:#a07280}.c-81{fill:#71c089}.c-82{fill:#6d5ea8}.c-83{fill:#b98695}.c-84{fill:#7256a3}.c-85{fill:#5f8eac}.c-86{fill:#a86d9e}.c-87{fill:#e85d63}.c-88{fill:#a2548a}.c-89{fill:#6f7783}.c-90{fill:#6b60a9}.c-91{fill:#c28991}.c-92{fill:#cc3e8e}.c-93{fill:#69bf90}.c-94{fill:#ac9f98}.c-95{fill:#a6bb5a}.c-96{fill:#a1967f}.c-97{fill:#b39396}.c-98{fill:#7058a5}.c-99{fill:#487e66}.c-100{fill:#866d97}.c-101{fill:#8d6f91}.c-102{fill:#b57768}.c-103{fill:#e95f61}.c-104{fill:#61be98}.c-105{fill:#ba7862}.c-106{fill:#967195}.c-107{fill:#738859}.c-108{fill:#acb365}.c-109{fill:#cfa227}.c-110{fill:#5e6fb0}.c-111{fill:#d25e6d}.c-112{fill:#6d6aa9}.c-113{fill:#9b9585}.c-114{fill:#aaa298}.c-115{fill:#898e51}.c-116{fill:#6766ac}.c-117{fill:#8b5196}.c-118{fill:#b1ab6e}.c-119{fill:#b58f96}.c-120{fill:#74c085}.c-121{fill:#5e72b0}.c-122{fill:#e8635e}.c-123{fill:#bd9685}.c-124{fill:#90c659}.c-125{fill:#915293}.c-126{fill:#9d9348}.c-127{fill:#6dbf8d}.c-128{fill:#517878}.c-129{fill:#89738f}.c-130{fill:#cb66ad}.c-131{fill:#c9a048}.c-132{fill:#488bbd}.c-133{fill:#bc7e94}.c-134{fill:#5e99aa}.c-135{fill:#77c182}.c-136{fill:#7f4f9b}.c-137{fill:#8cc562}.c-138{fill:#bf7a5b}.c-139{fill:#ec625c}.c-140{fill:#a3bf55}.c-141{fill:#6f5ba6}.c-142{fill:#e58606}.c-143{fill:#c09d57}.c-144{fill:#cd3b8d}.c-145{fill:#975290}.c-146{fill:#5f76af}.c-147{fill:#9c538d}.c-148{fill:#9a7186}.c-149{fill:#c87c4e}.c-150{fill:#5f79af}.c-151{fill:#7e6c9d}.c-152{fill:#5f80ae}.c-153{fill:#83c372}.c-154{fill:#7ac17e}.c-155{fill:#65be94}.c-156{fill:#7c7589}.c-157{fill:#ac5685}.c-158{fill:#5d70b3}.c-159{fill:#c75790}.c-160{fill:#c49e50}.c-161{fill:#687781}.c-162{fill:#ab7474}.c-163{fill:#5f7dae}.c-164{fill:#c05a79}.c-165{fill:#c95c73}.c-166{fill:#638db1}.c-167{fill:#a6737a}.c-168{fill:#6269ae}.c-169{fill:#95c850}.c-170{fill:#e3566c}.c-171{fill:#3f7972}.c-172{fill:#ba8295}.c-173{fill:#bf9289}.c-174{fill:#58aea6}.c-175{fill:#e2556f}.c-176{fill:#d8487e}.c-177{fill:#d64680}.c-178{fill:#a9b760}.c-179{fill:#4083bf}.c-180{fill:#53bca3}.c-181{fill:#cb61af}.c-182{fill:#a39544}.c-183{fill:#b69b39}.c-184{fill:#5f87ad}.c-185{fill:#57b2a5}.c-186{fill:#8ec65e}.c-187{fill:#58bd9f}.c-188{fill:#7dc27a}.c-189{fill:#e06164}.c-190{fill:#5d9ca9}.c-191{fill:#855098}.c-192{fill:#9fc34f}.c-193{fill:#879198}.c-194{fill:#db4c7a}.c-195{fill:#6c865c}.c-196{fill:#c94b8f}.c-197{fill:#6e8eaa}.c-198{fill:#59aba7}.c-199{fill:#5875b6}.c-200{fill:#8f7292}.c-201{fill:#7453a2}.c-202{fill:#497975}.c-203{fill:#b15782}.c-204{fill:#d9a51f}.c-205{fill:#828c53}.c-206{fill:#a75587}.c-207{fill:#d34384}.c-208{fill:#aa9741}.c-209{fill:#7b8a56}.c-210{fill:#b78b96}.c-211{fill:#6568ae}.c-212{fill:#9bc749}.c-213{fill:#ed645a}.c-214{fill:#c564ac}.c-215{fill:#c48495}.c-216{fill:#a79779}.c-217{fill:#b0993d}.c-218{fill:#dc4e77}.c-219{fill:#357970}.c-220{fill:#5aa7a7}.c-221{fill:#e05371}.c-222{fill:#5a72b4}.c-223{fill:#e65a68}.c-224{fill:#8e9292}.c-225{fill:#59787b}.c-226{fill:#be7994}.c-227{fill:#a26f9b}.c-228{fill:#85c46e}.c-229{fill:#d24187}.c-230{fill:#307a6a}.c-231{fill:#61787e}.c-232{fill:#766ba3}.c-233{fill:#5dbd9b}.c-234{fill:#db6067}.c-235{fill:#c39e31}.c-236{fill:#64845e}.c-237{fill:#55b5a4}.c-238{fill:#e4586a}.c-239{fill:#5f92ab}.c-240{fill:#afaf6a}.c-241{fill:#88c46a}.c-242{fill:#96c84c}.c-243{fill:#98c947}.c-244{fill:#ae6ca1}.c-245{fill:#cb458f}.c-246{fill:#eb615f}.c-247{fill:#96924b}.c-248{fill:#d6a420}.c-249{fill:#c08e8d}.c-250{fill:#c36792}.c-251{fill:#c85190}.c-252{fill:#497ebc}.c-253{fill:#c58099}.c-254{fill:#4d7cbb}.c-255{fill:#b1996c}.sigma-edge{stroke:#bababa}</style><g id="sigma-group-edges" class="sigma-group"><path class="sigma-edge" stroke-width=".625" d="M334.515 300.046l-.378-8.543m89.294 108.455l-11.894 5.676m-8.916 11.554l8.916-11.554m135.203 341.91l7.04 1.133M446.068 938.799l3.258 9.599m-28.585-531.367l-9.204-11.397m132.73 204.616l-.538 6.133M399.774 192.204l-1.27-7.33m50.056 340.18l-50.499 18.311m50.499-18.311l38.141-4.013m-96.958-381.234l-1.177 6.141M322.07 24.503l5.874-1.741m82.815 674.794l-5.789-3.738m107.055 298.308l5.975-1.341m128.895-683.921l-4.542-4.1M294.736 200.665l.758 6.107m117.218 526.629l19.661 11.45m-19.661-11.45l29.337-79.164m-29.337 79.164l-57.507 58.982m167.834 35.676l4.41-4.316m89.575-271.535l5.583 3.602m221.838-188.184l3.162 5.269m-453.792 26.244l17.722 6.495m47.473 250.252l-16.961-1.649m355.146-359.279l-3.962-6.278m3.962 6.278l-5.077 5.834m-8.166-71.212l1.778 7.276m-31.805 239.741l3.315 5.078m-613.785 286.95l4.597 4.338m496.565-362.944l1.682 9.947m27.631 377.351l5.428 2.563m10.013-674.081l3.885-5.572M254.017 483.818l-.992 14.488m71.067 175.84l-4.457-5.497M241.694 487.78l11.331 10.526m210.7-261.669l.749-6.136m-37.401 393.431l2.881-5.357M768.15 204.491l2.648 5.569M349.876 806.114l5.329-13.731M826.658 668.1l-4.589 4.129m-556.776 3.537l27.454 44.019m-27.454-44.019l-7.35 4.767m7.35-4.767l34.465 11.184m-34.465-11.184l5.324 4.998m-5.324-4.998l-5.39-44.307m5.39 44.307l-41.163-14.565m5.134 265.717l5.163 3.286m-99.521-588.223l-2.089 5.754m291.651 59.111l-12.931-1.212m319.43 257.308l5.531-2.48M411.072 821.719l-8.472 2.22m-3.702-413.152l12.639-5.153m9.368-165.968l-2.181-5.75m393.574 244.428l6.911 1.467M713.016 252.736l-3.24-5.15M514.78 331.897l-2.761 7.347m2.761-7.347l7.44 2.184M439.39 14.342l6.08-.747m252.263 628.814l1.542-6.056m129.909-75.489l4.54-5.62M346.84 148.813l-5.746-2.344m444.774 592.84l-.758-5.972m-89.465-374.409l7.365-4.879M374.85 795.535l-19.645-3.152m-97.002-315.499l-5.178 21.422m325.541-315.318l13.35-7.304m57.439 600.348l-3.5-4.893m-412.04-564.911l10.057 12.402m-10.057-12.402l-13.832-14.151m13.832 14.151l5.521 5.284m102.588 579.65l13.281 1.221M249.869 225.509l-5.997-6.879m300.979 451.383l-5.498-2.742m6.365-127.604l-12.335-.557M170.827 689.477l4.466-7.355"/><path class="sigma-edge" stroke-width=".75" d="M130.338 270.118l.448-6.17"/><path class="sigma-edge" stroke-width=".625" d="M611.593 676.268l.74 7.112M203.567 789.596l-.589-6.106m49.107-306.597l.94 21.413M539.373 412.4l-1.456-16.376m1.456 16.376l2.225 18.809M963.54 560.934l1.171-6.01M263.205 480.37l-10.18 17.936m-25.991-302.152l-7.051-4.077m525.903 411.357l4.551-4.027M304.58 564.486l-9.66.038m295.126-401.332l1.87 12.492M364.167 782.557l-8.962 9.826m196.23-584.4l-10.509 9.051m10.509-9.051l-9.896 15.848m9.896-15.848l-8.765-2.134m8.765 2.134l-12.207 2.917m12.207-2.917l-26.254 12.799m26.254-12.799l-4.598 11.627m4.598-11.627l-.929 16.533m.929-16.533l40.481-32.299m-40.481 32.299l2.297 9.016M215.515 550.985l18.023 1.689m-18.023-1.689l-6.857-.958m-49.257-232.26l3.673-6.502m661.989 241.199l8.661 2.78M250.969 320.869l1.405 5.887m147.866-37.265l5.107-3.409M300.546 113.866l4.975-3.639m366.374 207.13l-5.747 1.96m-442.55 328.668l-6.557 2.294m257.022-344.514l4.153-5.466m-125.644 476.31l2.633 15.774m87.008 151.626l7.113 4.389m365.239-535.203l-.637-6.346m.637 6.346l-6.624 1.612M129.03 815.486l5.714-4.699m-5.714 4.699l-4.035-6.168m168.236-231.14l9.501 1.25m274.537-414.879l14.647 11.135m-389.34 594.741l.402 13.065m-.402-13.065l-.862-23.044M75.163 199.355l4.213-4.445M631.58 808.426l3.58 6.122M209.891 317.583l1.815-5.802m240.039 626.412l-2.419 10.205m130.751-122.894l-6.165 3.816M471.195 295.835l7.021 4.464m245.948 407.132l-5.203 3.285M406.352 424.559l5.185-18.925m-57.163 483.945l-8.784-2.221m567.602-156.94l-3.044 5.318m-545.081-76.313l-7.733-.54m231.658-502.647l-.979-6.701m.979 6.701l2.924 19.448m160.595 522.792l4.006-4.608m-220.49-251.065l5.571-11.594M344.391 798.352l10.814-5.969m20.221-161.225l-18.092 27.725m18.092-27.725l16.321-30.148m-16.321 30.148l-7.342-1.557m-49.646 192.232l6.356-2.468m49.341-30.966l-18.93 3.984m154.59-662.772l-6.487-.391m6.487.391l-1.026 7.2M328.197 741.003l-28.439-54.053m28.439 54.053l27.008 51.38m13.041-3.655l-13.041 3.655m174.608-404.594l8.104 8.235M152.923 768.028l-4.871 4.935m68.243-109.304l7.835-2.458m-32.841-433.236l6.092 1.845m254.533 370.874l-9.865 53.553m9.865-53.553l-3.464-49.513m346.202-171.054l.958 6.833m-.958-6.833l-6.14-3.457m84.336 171.997l2.85 5.325m-135.029-50.348l-3.838 4.703M277.423 324.863l-3.508-5.033m141.58-147.345l-4.719-4.084M180.045 249.67l3.561 4.883M746.439 403.51l-1.068-6.017M405.044 521.167l1.345-6.278m-1.345 6.278l-6.983 22.198M68.029 512.97l-1.626-5.927m665.392-211.134l-5.129 2.745m-42.489 292.994l-1.151 8.155M446.963 278.169l-1.331 5.889m330.804 475.089l-5.989 1.655M338.888 285.863l-4.751 5.64m239.255 698.554l6.074-.797m-167.16-161.975l-9.706-3.346m264.114 26.062l6.057-.194m177.304-208.784l6.404 5.743M416.71 50.992l6.144.082m235.498 460.532l-2.088 5.783m-243.971 17.41l-14.232 8.566m238.818 91.369l5.462 4.225M590.847 188.84l1.069-13.156M403.742 531.987l-5.681 11.378m154.662-103.813l3.474 6.312m-3.474-6.312l-11.125-8.343m3.719 114.831l-11.934-6.93m59.345-343.9l-.812-19.526m.812 19.526l.847 15.107M47.501 653.365l8.704.328M530.841 399.82l7.076-3.796m79.081-198.503l-25.082-21.837m25.082 21.837l20.601 19.336M413.955 419.839l-2.418-14.205M327.943 514.72l-74.918-16.414m74.918 16.414l70.118 28.645m110.842-400.114l-.134-6.44m-79.921-21.115l7.492 1.059m-7.492-1.059l2.878 9.222m-2.878-9.222l-6.084 5.511m275.695-7.339l-3.64-8.477m3.64 8.477l8.788 3.908m-8.788-3.908l-5.203 6.359M215.719 657.523l8.411 3.678m-8.411-3.678l1.322-7.244m115.775-89.017l-30.084 18.166m30.084-18.166l-37.896 3.262m37.896-3.262l65.245-17.897m17.753 68.337l7.278-3.044m73.397 193.682l-4.359 4.236m105.509 80.225l6.253-1.357M307.997 692.173l-8.239-5.223m54.044 124.227l1.403-18.794M153.206 265.15l.272-6.074m289.059 492.411l-10.164-6.636m-8.874-41.852l-18.529-9.181m18.529 9.181l12.246 5.765m-37.609-304.208l13.401 1.078m-28.161 272.949l21.594 15.235m-21.594-15.235l-26.042-19.7M799.146 521.7l4.3-4.272m-515.664 72.934l14.95-10.934m351.574-154.98l-8.007-4.482m-450.904 500.81l-4.891-3.682m73.587-500.426l-.989 6.119m129.344-14.411l19.091-2.742m-240.681-17.869l6.211-.703m357.164 159.927l-.848-7.879M420.802 424.213l-9.265-18.579m456.875-58.837l-6.747 2.114m6.747-2.114l3.175 5.183M265.731 79.317l4.995-3.475m511.65 307.327l6.136-6.509m90.186 338.51l1.851-5.861m-577.64-11.472l-3.151-10.887m483.014-443.618l2.958-6.476M109.356 677.071l-.854 6.014M224.753 884.57l5.479 2.697m202.263-340.866l-34.434-3.036m34.434 3.036l27.727 7.223M54.335 364.428l-7.644 2.619m-9.489 36.955l2.303-9.417M831.67 548.886l2.054 6.358M457.185 953.488l-7.859-5.09m39.203-436.309l-1.828 8.952m114.71-351.796l-9.495 6.439M50.509 659.177l5.696-5.484m222.724-249.125l-6.601 2.874m171.046 121.263l-6.08-5.43m125.967 132.868l-.612 6.15M713.122 501.3l.636-6.086m-61.402-83.427l-6.057 8.179m6.057-8.179l4.316-4.892m161.373 80.071l1.164-7.155M210.704 707.798l13.426-46.597m-13.426 46.597l-8.99 39.583m349.796-7.848l2.27 9.144m324.859-147.075l-3.378 5.164m-820.323-56.92l-2.172 5.629m2.172-5.629l6.348-5.132M784.89 371.262l3.622 5.398m122.853 147.777l.324 6.13m41.887 65.245l-.435 6.084m-457.518-90.218l-8.922 9.363M407.968 831.6l-5.368-7.661m112.098-293.823l18.685 8.994m-18.685-8.994l-27.997-9.075M44.257 746.193l3.412 5.088m320.185 45.389l-12.649-4.287m-126.486-32.554l3.65-6.532m-3.65 6.532l5.338 2.778M67.592 544.569l-6.306.145m-21.499-28.642l.258 6.925m345.728 30.005l11.184 8.473m-11.184-8.473l-5.03-5.363m-129.626-76.697l1.908 27.364m-1.908-27.364l.158-7.93m71.908 293.995l-30.436-37.222m30.436 37.222l32.022 35.376M543.267 70.49l1.566-5.964M300.562 559.263l-5.642 5.261m334.005 252.779l6.235-2.755m167.221-244.527l-.412-6.096m-542.236-78.99l-6.708 13.371m634.053-106.014l.456-6.16m-621.608 554.27l-4.919-3.578m147.22-408.236l-10.166 14.777M43.862 484.962l-7.751-.562m20.604-198.046l-4.27 4.3m244.531 261.888l-2.056 11.982"/><path class="sigma-edge" stroke-width=".75" d="M296.976 552.542l5.616-5.058"/><path class="sigma-edge" stroke-width=".625" d="M860.832 238.733l-2.95-5.366M411.703 570.262l36.747-19.091m-36.747 19.091l-14.746-8.787m14.746 8.787l-19.956 30.748m-120.488-40.757l20.019 67.888m-20.019-67.888l-18.234-61.947m107.27 167.884l-2.961-7.307M171.603 312.765l-8.529-1.5m38.405-49.932l-4.158 4.631m148.807 631.831l-.538-10.437M225.593 547.553l7.945 5.121m442.809 41.299l6.679 5.83M452.25 333.191l-4.853-3.699M394.38 529.028l3.681 14.337M346.82 266.309l-4.437-4.339m27.09 540.175l-14.268-9.762m500.897-367.244l5.219 3.775M631.272 223.16l6.327-6.303m-32.157 464.01l6.891 2.513m82.042-51.308l4.9 4.281m-4.9-4.281l-6.036-4.613"/><path class="sigma-edge" stroke-width=".75" d="M260.127 583.298l34.793-18.774"/><path class="sigma-edge" stroke-width=".625" d="M260.127 583.298l-.224 48.161m.224-48.161l-26.589-30.624M70.261 620.159l-1.728 8.651m-5.658 9.296l-6.67 15.587m6.67-15.587l5.658-9.296m659.954-50.762l-5.464 2.549m147.976-84.185l-2.354 5.697m-380.847-439.7l-4.012-5.039m4.012 5.039l-.843 5.891M247.327 484.566l5.698 13.74m151.867-316.104l-6.388 2.672m-101.673 512.37l2.927-10.294m177.717-186.522l-1.577 6.682m-230.785-28.902l7.912 20.098m527.584 372.929l-4.967 3.591M497.365 518.643l-10.664 2.398m284.661-73.17l6.943-.97M96.564 391.307l-1.465 5.935m509.384 330.635l4.611-3.941M480.701 156.271l3.171 5.061M255.259 289.666l5.941-1.64m6.792 210.869l-14.967-.589m464.063 231.18l5.851 1.369M688.87 101.507l5.949 3.884m-49.271 124.618l-7.949-13.152m-151.75 81.568l-7.633 1.874m-237.884-74.368l3.54-7.301M731.71 557.951l-.618-6.598m-90.863 258.063l-5.069 5.132M52.964 357.304l5.118-3.816m-5.118 3.816l-6.273 9.743m589.318-20.626l-.556 6.152m101.1 451.127l-5.307 6.11"/><path class="sigma-edge" stroke-width=".75" d="M605.333 157.724l7.854-7.335"/><path class="sigma-edge" stroke-width=".625" d="M605.333 157.724l-13.417 17.96m43.55 239.536l10.833 4.746M292.403 129.249l-6.182-.298m484.212 672.031l3.936-4.685m90.384-404.874l1.048-6.105M351.955 896.155l-6.365-8.797M191.003 165.357l-5.312 4.66m5.312-4.66l-.62-6.645m.62 6.645l-7.593-1.395m7.593 1.395l9.444 8.524M937.303 663.66l1.571-5.922M197.627 753.77l4.087-6.389m268.363-191.284l-9.855-2.473m214.671 121.429l3.09-5.185M424.639 324.367l-2.563 5.478m-111.189-49.731l-.634 6.166m350.408 462.29l-5.168 3.303M396.805 7.874l-5.979 1.328m482.776 570.546l-2.55-5.47m-555.346 87.89l41.628-3.285m-41.628 3.285l-24.428-34.027m24.428 34.027l-15.948 24.782m15.948-24.782l3.929 6.481m-3.929-6.481l7.297-4.856M540.278 550.44l-6.895-11.33M74.323 310.042l2.762-5.457M589.461 788.11l-6.05-.59m-32.367-355.035l-9.446-1.276m-99.707 279.907l-6.146-2.352M277.362 398.85l-5.034 8.592m446.571-273.478l.6-6.918m5.043 422.164l6.55 2.143m-5.861-329.676l-5.997.588m-88.026 220.692l4.061-6.292M512.901 228.806l12.28-8.024m-12.28 8.024l-5.763 3.879m29.569 151.961l1.21 11.378m-130.025-2.593l3.645 12.203m42.427 108.789l.462-7.492m-.462 7.492l-5.514 36.748m5.514-36.748l2.23-17.664m-291.135 191.29l10.234-5.927m-10.234 5.927l-6.438 4.239m476.726-270.521l10.952-1.801M432.967 608.771l-1.16-11.674m1.16 11.674l6.936 7.148m-6.936-7.148l9.082 45.466m-9.082-45.466l5.658-11.28m-5.658 11.28l-6.917-8.18m6.917 8.18l-34.906-65.406m34.906 65.406l-9.875-.113m9.875.113l16.233 1.223"/><path class="sigma-edge" d="M432.967 608.771l9.715.171"/><path class="sigma-edge" stroke-width=".625" d="M432.967 608.771l-3.013 9.804m3.013-9.804l9.717-6.004m381.464 137.701l-4.97 4.944m4.97-4.944l-4.566-6.454M638.198 409.909l8.101 10.057M208.965 751.782l-7.251-4.401M81.902 480.048l.22-6.393M804.8 663.477l2.765-5.468m-637.762-150.77l-5.346-3.164m413.391 1.061l7.234-2.417m207.884-195.032l-.848-6.895m-447.105-73.246l4.651-3.921m457.602 467.573l2.9 5.512M610.644 922.474l7.257-.642m280.35-271.192l1.242-5.967M666.229 945.647l-5.931 1.605M649.047 223.35l-11.448-6.493m-52.567 107.815l-4.03 4.693M362.57 193.484l3.814-4.859m-155.158-6.005l8.757 9.457m-8.757-9.457l-10.779-8.739m648.286 474.041l7.746-1.156m-653.82-376.004l-5.338-4.798M673.22 665.572l4.763 4.296M565.967 827.995l7.945 1.325M452.485 544.297l-4.035 6.874m-214.572 27.395l19.147-80.26m-19.147 80.26l-7.067 1.091m7.067-1.091l-9.748 82.635m30.598-147.463l-1.703-15.432M740.93 235.074l1.25 6.074m-7.689-52.002l-5.023-3.706M352.51 849.72l-6.92 37.638m6.92-37.638l2.695-57.337m257.99-297.105l4.308 4.32m-311.281 88.269l-3.49-8.439m551.964-146.306l6.625-4.208m-624.106 37.897l15.81 31.495m-15.81-31.495l-6.682-5.691m6.682 5.691l-.595-9.771m122.048 350.056l-3.463-14.713m-84.353-299.666l-17.827 5.589m387.109-72.992l6.165-5.348M458.21 940.014l-8.884 8.384M202.483 461.502l5.704 4.187m685.729 5.444l-3.136 5.332m-111.684-23.116l-.791-6.448m-68.252 15.469l-6.43-.203m6.43.203l1.237 5.932M451.006 663.503l-8.957-9.266m75.499 215.393l4.88 6.461m177.736 55.225l-5.424 2.843M268.267 485.051l-15.242 13.255M358.281 70.529l-6.145-.569m286.787 361.154l7.376-11.148m-7.376 11.148l-3.654 5.551M144.307 574.102l4.022 4.696M701.284 362.12l1.726-8.071m-57.485 278.648l-3.184 6.262m-345.652-65.722l6.043 6.191m-6.043-6.191l-1.769-8.713M49.953 403.794l-10.448-9.209M582.54 168.687l9.376 6.997m25.68 419.614l-4.635 3.984M222.323 475.038l-14.136-9.349m14.136 9.349l30.702 23.268m-30.702-23.268l-5.695-4.002m205.569-82.47l-10.66 17.068M597.979 187.88l-6.063-12.196M238.923 498.438l14.102-.132m181.789 373.362l.374-6.192m46.469-559.628l-3.441-5.549M348.308 780.714l6.897 11.669M33.015 245.97l-2.82 5.439M425.55 412.674l-14.013-7.04m410.54 205.623l-3.165 5.198M46.906 392.685l-7.401 1.9M611.672 840.72l-6.049-.039M482.216 434.897l-.411 6.114M607.67 168.612l-15.754 7.072m15.754-7.072l7.384-.792M114.279 478.69l.982-6.056m822.607 24.399l.28-6.117M55.556 661.893l.649-8.2m620.869-50.841l5.952-3.049m261.279-73.729l-.66 6.088M784.904 303.39l7.214-2.598m-23.144 444.282l-4.296 4.369m-191.964 70.989l1.198 8.888M464.777 559.092l-4.555-5.468M134.743 745.549l-.045-6.051m287.607-209.947l-24.244 13.814m24.244-13.814l14.989-6.276m17.93 127.216l-13.175 3.746m101.415-232.092l-1.866 9.064m126.48 292.693l-5.998 1.402M241.813 506.237l11.212-7.931m392.365-279.99l-7.791-1.459M50.853 644.958l5.352 8.735M264.244 489.69l-11.219 8.616m388.128-11.469l-5.22-3.131M402.636 227.331l5.002-3.22m-67.32 671.438l5.272-8.191m-69.186-572.92l-2.489 5.392m-2.576 80.329l.989 7.283m367.508-183.274l-2.237-7.311M443.111 520.102l-5.817 3.173m146.141-361.037l8.481 13.446M439.524 740.912l-7.151 3.939m-24.222-325.748l3.386-13.469m225.899-97.651l4.917-5.219M292.348 584.563l10.384-5.135m-95.509 177.981l-5.509-10.028m148.467 108.408l2.329-6.069M538.872 63.453l5.961 1.073m153.764 283.552l4.413 5.971M291.369 690.412l8.389-3.462M34.859 583.385l.914 6.59m-.914-6.59l6.445.086m765.757-437.99l4.287 4.374m-140.24 692.92l1.663 7.032M525.215 869.67l-2.787 6.421m-92.445-474.514l-18.446 4.057M168.429 677.71l6.864 4.412m415.882 275.364l-6.122.584m76.818-46.661l5.09-3.364m53.878-595.352l-5.626-2.375m64.564 66.967l8.735-.625m-313.794-12.98l-4.189-4.473m213.929 416.524l2.951-5.407m179.722-450.113l-3.067-5.287m-489.74-78.614l-5.048 3.487M167.461 722.674l1.396-5.877m556.976 98.297l5.413-5.284M618.802 679.714l-6.469 3.666m-80.159-244.854l9.424-7.317m74.248 87.72l.429 6.096m34.917 221.88l4.301 4.968m43.865 124.337l2.8 5.407m87.051-175.988l-4.062 4.6m6.543-468.406l-5.96-4.967m-191.124-17.51l-.467 6.493m.467-6.493l-1.031-9.029M400.186 397.802l11.351 7.832M60.836 644.405l-4.631 9.288M239.98 481.866l13.045 16.44m-1.228-266.466l-7.925-13.21m444.332 500.996l-1.639-6.013M584.02 185.299l7.896-9.615M528.49 393.617l9.427 2.407M856.245 291.98l-3.505-5.029M529.18 877.855l-6.752-1.764M365.413 116.074l-4.828 3.659M76.668 627.112l-8.135 1.698m87.078 262.591l5.195 3.24M478.051 52.42l5.735 4.95M43.473 404.831l-3.968-10.246m634.673 126.032l4.148-4.449m-97.961 105.535l2.966 5.383m-116.497-76.22l-6.612 2.758M42.551 379.153l-3.046 15.432m3.046-15.432l8.105.897m-8.105-.897l4.14-12.106m848.693 317.636l3.571-4.918M619.913 561.181l2.694-5.371M451.489 657.572l-9.44-3.335m13.699-42.767l-6.548-1.476M167.364 318.043l-4.29-6.778m67.989-254.602l-5.418 2.866m498.409 747.479l7.192 2.802M659.41 428.413l-5.104-3.965m-182.052 98.81l-23.804 27.913m23.804-27.913l3.644-16.148m-3.644 16.148l1.948-8.182m-1.948 8.182l14.447-2.217m253.8 8.837l-5.321-2.716m-439.601 62.653l7.153-10.387m132.469 173.029l-2.828-7.606m-41.308-210.349l6.996 8.863m-110.822 37.12l15.493-1.057m410.474-457.562l6.293 5.18m-6.293-5.18l-5.959-4.09M457.64 661.365l-15.591-7.128m-16.316-260.115l-14.196 11.512M678.582 556.23l-1.498 6.783m1.498-6.783l1.768-6.672m-1.768 6.672l-6.148-1.203M401.471 390.753l10.066 14.881m83.565 118.438l-8.401-3.031m-28.877-345.563l-.949-7.119M62.722 661.854l-6.517-8.161m718.944-67.805l-3.112-5.169m-15.872 55.467l-1.097 6.661m1.097-6.661l-6.292-3.437m-38.219-277.023l-8.644-1.677m-271.557 56.219l-19.916-4.634M546.759 438.8l-5.161-7.591m165.15-70.435l-3.738-6.725m269.856 125.694l.681 6.091m-441.604-54.601l9.655-.024M200.427 758.782l1.287-11.401m37.892-223.572l13.419-25.503m-13.419 25.503l-6.068 28.865m-144.45-78.849l-6.966-.17m437.042 409.053l3.264-6.617m-3.264 6.617l-6.355-.042m-54.685 63.095l-8.798 2.637M341.887 295.143l-7.75-3.64m110.036 330.66l-4.27-6.244m465.76-180.139l7.42-1.722m-276.095 209.54l5.353-4.639m-197.736 24.249l-2.556-8.971M131.77 548.802l-5.872 1.069M399.974 92.493l-6.102-.927m67.272 16.253l5.74 1.958m145.598 226.572l4.765 5.485m-4.765-5.485l-6.241 4.926m.9 347.423l5.192-5.318M46.469 358.928l.222 8.119m139.193.534l-3.505 5.009m116.749 256.94l-7.85-1.389m312.009-448.623l-11.371-3.834M107.98 332.324l1.995-5.792m470.75-149.56l11.191-1.288m-46.71 218.274l-7.289 2.066m1.908 526.954l-.15 7.061m-201.066-41.206l6.981-1.475m117.471-720.046l-6.186 1.047M26.453 420.181l1.396-6.373m384.173 127.346l-13.961 2.211m134.236 386.296l7.378.378M302.448 592.54l.284-13.112M67.269 226.3l-3.764 4.826m476.968 304.319l-7.09 3.665m8.69-151.379l-4.156 8.293m114.736 293.279l4.651 3.834M449.45 647.469l-7.401 6.768m-308.231-25.712l-6.064 2.432m767.042-360.296l2.896 5.393M794.458 504.269l-2.535 5.588m-186.237 208.65l3.408 5.429M427.612 419.701l-16.075-14.067m293.889-60.236l-2.416 8.651M290.288 556.252l4.632 8.272m.516 94.907l-4.158-31.29m4.158 31.29l4.322 27.519M116.609 208.855l-2.365 5.702m257.375 567.424l-16.414 10.402m24.745-522.542l-5.964 1.322M709.802 879.7l-7.644 1.917m-318.386-70.419l18.828 12.741m-18.828-12.741l-28.567-18.815M924.533 293.16l1.96 5.803M575.717 172.716l16.199 2.968m222.137 555.084l5.529 3.246M543.061 443.401l-1.463-12.192m97.831-198.944l-1.83-15.408M266.647 505.658l-13.622-7.352m614.568-66.521l-6.272-2.871m6.272 2.871l-.603 6.873M232.477 91.447l-5.378 2.932m552.126 142.877l6.505-.4M331.865 84.239l6.173.035M64.798 655.266l-8.593-1.573m111.06-349.194l-4.191 6.766m157.708-173.942l-3.945 4.782m92.343 404.358l-11.119-3.098M63.801 441.836l-.071 6.111m660.964-256.876l4.774-5.631m175.16 426.978l-.103 6.08M580.629 367.826l-1.78 5.769m40.436-227.529l-6.098 4.323m-368.18 78.789l-1.135-10.548M591.01 755.421l-2.93-6.004m2.93 6.004l-5.318 3.27m327.515-317.953l-.124-6.68m-758.646 394.74l3.068 5.35m528.829-726.073l8.485-2.684M364.248 774.868l-9.043 17.515m-228.389-168l.938 6.574M533.24 795.829l-5.869 1.741m-184.46-12.488l12.294 7.301m204.126-47.737l-5.551 4.031M269.551 477.571l-16.526 20.735m16.526-20.735l5.536-4.556m121.14-56.136l15.31-11.245m1.507 20.313l-1.507-20.313M444.71 745.19l-12.337-.339M252.568 219.203l-8.696-.573m169.351 170.764l-1.686 16.24m396.206 415.66l4.603-4.003M517.518 222.625l7.663-1.843m-140.73 376.259l7.296 3.969M37.25 491.108l-1.139-6.708m543.012 146.852l4.208-4.166M336.288 809.375l-6.57 3.339m6.57-3.339l-11.494 9.99m11.494-9.99l18.917-16.992m-91.872-356.124l4.164-5.538m-4.164 5.538l-10.308 62.047m10.308-62.047l-.231-13.472m.231 13.472l8.995-28.817m422.689-54.971l7.993 1.578M77.507 621.402l-8.974 7.408m315.488-317.557l-5.742 2.127"/><path class="sigma-edge" stroke-width=".875" d="M443.336 954.453l5.99-6.055"/><path class="sigma-edge" stroke-width=".625" d="M443.336 954.453l-6.914-3.421M76.276 264.713l3.09-5.282m275.18 600.982l2.961 6.227m-2.961-6.227l-2.036-10.693M65.687 649.55l-9.482 4.143m577.312-424.899l4.082-11.937M224.518 554.129l9.02-1.455m93.681-258.699l6.918-2.472m416.423 61.774l-2.396 5.514M550.728 231.572l-.222-7.056M400.566 525.61l-2.505 17.755m219.223 371.119l.617 7.348m-139.118-61.377l4.483-4.265m411.377-614.136l-3.775-4.795M31.055 407.087l8.45-12.502m-8.45 12.502l-3.206 6.721M364.02 803.846l-8.815-11.463m228.529-297.132l1.348 7.468m-347.754-10.598l15.697 6.185"/><path class="sigma-edge" stroke-width=".75" d="M864.13 199.671l-4.277-4.383"/><path class="sigma-edge" stroke-width=".625" d="M359.252 779.433l-4.047 12.95M267.659 140.54l3.096-5.364m-14.232 89.278l-12.651-5.824m493.126 215.722l3.151 5.268m-323.203-45.67l-5.409 11.684m109.546-176.967l4.098-7.885m-329.834 452.29l-20.054 9.05m20.054-9.05l28.783-11.871m377.735 218.635l2.027 5.608m242.657-417.466l3.618 4.839m-315.614-47.239l7.045 5.631m3.841 391.833l-1.769 5.828m316.224-21.807l-3.739 4.853M51.154 398.269l-11.649-3.684m270.772-152.703l3.277-5.122m143.957 252.327l-1.317 7.672M227.325 188.082l-7.342 3.995m508.071 609.475l3.192 8.258M332.755 175.271l4.868-3.766m259.709-7.384l-5.416 11.563M47.417 523.58l-7.372-.583m499.56-292.276l1.934-6.89m-129.51 5.277l-4.391-4.997m4.391 4.997l6.695 4.808"/></g><g id="sigma-group-nodes" class="sigma-group"><circle class="sigma-node" cx="322.07" cy="24.503" r="2.235"/><circle class="sigma-node c-0" cx="225.645" cy="59.529" r="2.235"/><circle class="sigma-node c-0" cx="231.063" cy="56.663" r="2.235"/><circle class="sigma-node c-1" cx="227.099" cy="94.379" r="2.235"/><circle class="sigma-node c-1" cx="232.477" cy="91.447" r="2.235"/><circle class="sigma-node c-2" cx="63.505" cy="231.126" r="2.235"/><circle class="sigma-node c-3" cx="75.163" cy="199.355" r="2.235"/><circle class="sigma-node c-4" cx="30.195" cy="251.409" r="2.235"/><circle class="sigma-node c-4" cx="33.015" cy="245.97" r="2.235"/><circle class="sigma-node c-3" cx="79.376" cy="194.91" r="2.235"/><circle class="sigma-node c-2" cx="67.269" cy="226.3" r="2.235"/><circle class="sigma-node c-5" cx="114.244" cy="214.557" r="2.235"/><circle class="sigma-node c-5" cx="116.609" cy="208.855" r="2.235"/><circle class="sigma-node c-6" cx="185.691" cy="170.017" r="2.235"/><circle class="sigma-node c-6" cx="191.003" cy="165.357" r="2.9"/><circle class="sigma-node c-6" cx="190.383" cy="158.712" r="2.235"/><circle class="sigma-node c-6" cx="183.41" cy="163.962" r="2.235"/><circle class="sigma-node c-6" cx="200.447" cy="173.881" r="2.457"/><circle class="sigma-node c-6" cx="219.983" cy="192.077" r="2.9"/><circle class="sigma-node c-6" cx="211.226" cy="182.62" r="2.457"/><circle class="sigma-node c-6" cx="227.325" cy="188.082" r="2.235"/><circle class="sigma-node c-7" cx="191.289" cy="227.965" r="2.235"/><circle class="sigma-node c-8" cx="180.045" cy="249.67" r="2.235"/><circle class="sigma-node c-8" cx="183.606" cy="254.553" r="2.235"/><circle class="sigma-node c-7" cx="197.381" cy="229.81" r="2.235"/><circle class="sigma-node c-6" cx="243.872" cy="218.63" r="3.566"/><circle class="sigma-node c-6" cx="233.815" cy="206.228" r="2.679"/><circle class="sigma-node c-6" cx="249.869" cy="225.509" r="2.235"/><circle class="sigma-node c-6" cx="227.034" cy="196.154" r="2.235"/><circle class="sigma-node c-6" cx="240.332" cy="225.931" r="2.235"/><circle class="sigma-node c-6" cx="251.797" cy="231.84" r="2.235"/><circle class="sigma-node c-6" cx="245.007" cy="229.178" r="2.235"/><circle class="sigma-node c-6" cx="239.336" cy="211.512" r="2.235"/><circle class="sigma-node c-6" cx="252.568" cy="219.203" r="2.235"/><circle class="sigma-node c-6" cx="256.523" cy="224.454" r="2.235"/><circle class="sigma-node c-9" cx="358.281" cy="70.529" r="2.235"/><circle class="sigma-node" cx="327.944" cy="22.762" r="2.235"/><circle class="sigma-node c-9" cx="352.136" cy="69.96" r="2.235"/><circle class="sigma-node c-10" cx="300.546" cy="113.866" r="2.235"/><circle class="sigma-node c-10" cx="305.521" cy="110.227" r="2.235"/><circle class="sigma-node c-11" cx="265.731" cy="79.317" r="2.235"/><circle class="sigma-node c-12" cx="292.403" cy="129.249" r="2.235"/><circle class="sigma-node c-11" cx="270.726" cy="75.842" r="2.235"/><circle class="sigma-node c-12" cx="286.221" cy="128.951" r="2.235"/><circle class="sigma-node c-13" cx="365.413" cy="116.074" r="2.235"/><circle class="sigma-node c-14" cx="338.038" cy="84.274" r="2.235"/><circle class="sigma-node c-13" cx="360.585" cy="119.733" r="2.235"/><circle class="sigma-node c-14" cx="331.865" cy="84.239" r="2.235"/><circle class="sigma-node c-15" cx="439.39" cy="14.342" r="2.235"/><circle class="sigma-node c-16" cx="422.854" cy="51.074" r="2.235"/><circle class="sigma-node c-16" cx="416.71" cy="50.992" r="2.235"/><circle class="sigma-node c-17" cx="390.826" cy="9.202" r="2.235"/><circle class="sigma-node c-17" cx="396.805" cy="7.874" r="2.235"/><circle class="sigma-node c-18" cx="483.786" cy="57.37" r="2.457"/><circle class="sigma-node c-18" cx="487.798" cy="62.409" r="2.457"/><circle class="sigma-node c-18" cx="478.051" cy="52.42" r="2.235"/><circle class="sigma-node c-15" cx="445.47" cy="13.595" r="2.235"/><circle class="sigma-node c-18" cx="486.955" cy="68.3" r="2.235"/><circle class="sigma-node c-19" cx="436.34" cy="116.755" r="2.235"/><circle class="sigma-node c-19" cx="428.848" cy="115.696" r="2.679"/><circle class="sigma-node c-19" cx="431.726" cy="124.918" r="2.235"/><circle class="sigma-node c-20" cx="393.872" cy="91.566" r="2.235"/><circle class="sigma-node c-19" cx="422.764" cy="121.207" r="2.235"/><circle class="sigma-node c-20" cx="399.974" cy="92.493" r="2.235"/><circle class="sigma-node c-21" cx="461.144" cy="107.819" r="2.235"/><circle class="sigma-node c-21" cx="466.884" cy="109.777" r="2.235"/><circle class="sigma-node c-22" cx="316.837" cy="142.105" r="2.235"/><circle class="sigma-node c-22" cx="320.782" cy="137.323" r="2.235"/><circle class="sigma-node c-23" cx="267.659" cy="140.54" r="2.235"/><circle class="sigma-node c-23" cx="270.755" cy="135.176" r="2.235"/><circle class="sigma-node c-24" cx="346.84" cy="148.813" r="2.235"/><circle class="sigma-node c-25" cx="337.623" cy="171.505" r="2.235"/><circle class="sigma-node c-24" cx="341.094" cy="146.469" r="2.235"/><circle class="sigma-node c-26" cx="366.384" cy="188.625" r="2.235"/><circle class="sigma-node c-26" cx="362.57" cy="193.484" r="2.235"/><circle class="sigma-node c-25" cx="332.755" cy="175.271" r="2.235"/><circle class="sigma-node c-27" cx="294.736" cy="200.665" r="2.235"/><circle class="sigma-node c-28" cx="313.554" cy="236.76" r="2.235"/><circle class="sigma-node c-27" cx="295.494" cy="206.772" r="2.235"/><circle class="sigma-node c-28" cx="310.277" cy="241.882" r="2.235"/><circle class="sigma-node c-29" cx="345.013" cy="227.546" r="2.235"/><circle class="sigma-node c-30" cx="369.276" cy="239.797" r="2.235"/><circle class="sigma-node c-30" cx="374.324" cy="236.31" r="2.235"/><circle class="sigma-node c-29" cx="349.664" cy="223.625" r="2.235"/><circle class="sigma-node c-31" cx="399.774" cy="192.204" r="2.235"/><circle class="sigma-node c-32" cx="389.743" cy="139.807" r="2.235"/><circle class="sigma-node c-33" cx="415.495" cy="172.485" r="2.235"/><circle class="sigma-node c-31" cx="404.892" cy="182.202" r="2.235"/><circle class="sigma-node c-33" cx="410.776" cy="168.401" r="2.235"/><circle class="sigma-node c-31" cx="398.504" cy="184.874" r="2.457"/><circle class="sigma-node c-32" cx="388.566" cy="145.948" r="2.235"/><circle class="sigma-node c-34" cx="456.875" cy="168.359" r="2.457"/><circle class="sigma-node c-35" cx="480.701" cy="156.271" r="2.235"/><circle class="sigma-node c-35" cx="483.872" cy="161.332" r="2.235"/><circle class="sigma-node c-34" cx="457.824" cy="175.478" r="2.235"/><circle class="sigma-node c-34" cx="463.061" cy="167.312" r="2.235"/><circle class="sigma-node c-36" cx="407.638" cy="224.111" r="2.457"/><circle class="sigma-node c-36" cx="418.724" cy="233.916" r="2.457"/><circle class="sigma-node c-36" cx="420.905" cy="239.666" r="2.235"/><circle class="sigma-node c-36" cx="402.636" cy="227.331" r="2.235"/><circle class="sigma-node c-36" cx="412.029" cy="229.108" r="2.457"/><circle class="sigma-node c-37" cx="463.725" cy="236.637" r="2.235"/><circle class="sigma-node c-37" cx="464.474" cy="230.501" r="2.235"/><circle class="sigma-node c-38" cx="56.715" cy="286.354" r="2.235"/><circle class="sigma-node c-39" cx="77.085" cy="304.585" r="2.235"/><circle class="sigma-node c-39" cx="74.323" cy="310.042" r="2.235"/><circle class="sigma-node c-38" cx="52.445" cy="290.654" r="2.235"/><circle class="sigma-node c-40" cx="76.276" cy="264.713" r="2.235"/><circle class="sigma-node c-40" cx="79.366" cy="259.431" r="2.235"/><circle class="sigma-node c-41" cx="130.338" cy="270.118" r="2.235"/><circle class="sigma-node c-41" cx="130.786" cy="263.948" r="2.235"/><circle class="sigma-node c-42" cx="54.335" cy="364.428" r="2.235"/><circle class="sigma-node c-42" cx="52.964" cy="357.304" r="2.457"/><circle class="sigma-node c-42" cx="58.082" cy="353.488" r="2.235"/><circle class="sigma-node c-42" cx="42.551" cy="379.153" r="2.679"/><circle class="sigma-node c-42" cx="46.469" cy="358.928" r="2.235"/><circle class="sigma-node c-42" cx="46.691" cy="367.047" r="2.9"/><circle class="sigma-node c-43" cx="134.906" cy="341.981" r="2.235"/><circle class="sigma-node c-43" cx="132.817" cy="347.735" r="2.235"/><circle class="sigma-node c-44" cx="107.98" cy="332.324" r="2.235"/><circle class="sigma-node c-44" cx="109.975" cy="326.532" r="2.235"/><circle class="sigma-node c-45" cx="197.321" cy="265.964" r="2.457"/><circle class="sigma-node c-46" cx="153.206" cy="265.15" r="2.235"/><circle class="sigma-node c-46" cx="153.478" cy="259.076" r="2.235"/><circle class="sigma-node c-47" cx="171.603" cy="312.765" r="2.235"/><circle class="sigma-node c-45" cx="201.479" cy="261.333" r="2.235"/><circle class="sigma-node c-47" cx="163.074" cy="311.265" r="2.9"/><circle class="sigma-node c-45" cx="202.659" cy="270.762" r="2.235"/><circle class="sigma-node c-47" cx="167.265" cy="304.499" r="2.235"/><circle class="sigma-node c-48" cx="209.891" cy="317.583" r="2.235"/><circle class="sigma-node c-49" cx="255.259" cy="289.666" r="2.235"/><circle class="sigma-node c-49" cx="261.2" cy="288.026" r="2.235"/><circle class="sigma-node c-48" cx="211.706" cy="311.781" r="2.235"/><circle class="sigma-node c-47" cx="159.401" cy="317.767" r="2.235"/><circle class="sigma-node c-47" cx="167.364" cy="318.043" r="2.235"/><circle class="sigma-node c-50" cx="185.884" cy="367.581" r="2.235"/><circle class="sigma-node c-50" cx="182.379" cy="372.59" r="2.235"/><circle class="sigma-node c-51" cx="250.969" cy="320.869" r="2.235"/><circle class="sigma-node c-51" cx="252.374" cy="326.756" r="2.235"/><circle class="sigma-node c-42" cx="37.202" cy="404.002" r="2.235"/><circle class="sigma-node c-42" cx="39.505" cy="394.585" r="3.566"/><circle class="sigma-node c-42" cx="49.953" cy="403.794" r="2.235"/><circle class="sigma-node c-42" cx="50.656" cy="380.05" r="2.235"/><circle class="sigma-node c-42" cx="46.906" cy="392.685" r="2.235"/><circle class="sigma-node c-42" cx="43.473" cy="404.831" r="2.235"/><circle class="sigma-node c-42" cx="27.849" cy="413.808" r="2.457"/><circle class="sigma-node c-42" cx="26.453" cy="420.181" r="2.235"/><circle class="sigma-node c-42" cx="31.055" cy="407.087" r="2.457"/><circle class="sigma-node c-42" cx="51.154" cy="398.269" r="2.235"/><circle class="sigma-node c-52" cx="95.099" cy="397.242" r="2.235"/><circle class="sigma-node c-52" cx="96.564" cy="391.307" r="2.235"/><circle class="sigma-node c-53" cx="63.73" cy="447.947" r="2.235"/><circle class="sigma-node c-54" cx="82.122" cy="473.655" r="2.457"/><circle class="sigma-node c-55" cx="43.862" cy="484.962" r="2.235"/><circle class="sigma-node c-55" cx="36.111" cy="484.4" r="2.457"/><circle class="sigma-node c-54" cx="81.902" cy="480.048" r="2.235"/><circle class="sigma-node c-53" cx="63.801" cy="441.836" r="2.235"/><circle class="sigma-node c-55" cx="37.25" cy="491.108" r="2.235"/><circle class="sigma-node c-56" cx="115.261" cy="472.634" r="2.235"/><circle class="sigma-node c-56" cx="114.279" cy="478.69" r="2.235"/><circle class="sigma-node c-54" cx="89.088" cy="473.825" r="2.235"/><circle class="sigma-node c-57" cx="170.856" cy="387.765" r="2.235"/><circle class="sigma-node c-57" cx="177.067" cy="387.062" r="2.235"/><circle class="sigma-node c-58" cx="264.091" cy="416.668" r="2.235"/><circle class="sigma-node c-58" cx="263.102" cy="422.787" r="2.457"/><circle class="sigma-node c-58" cx="263.333" cy="436.259" r="2.9"/><circle class="sigma-node c-59" cx="202.483" cy="461.502" r="2.235"/><circle class="sigma-node c-59" cx="254.017" cy="483.818" r="2.235"/><circle class="sigma-node c-59" cx="241.694" cy="487.78" r="2.235"/><circle class="sigma-node c-59" cx="258.203" cy="476.884" r="2.235"/><circle class="sigma-node c-59" cx="252.085" cy="476.893" r="2.235"/><circle class="sigma-node c-59" cx="263.205" cy="480.37" r="2.235"/><circle class="sigma-node c-59" cx="208.187" cy="465.689" r="2.457"/><circle class="sigma-node c-59" cx="253.025" cy="498.306" r="8"/><circle class="sigma-node c-59" cx="251.117" cy="470.942" r="2.457"/><circle class="sigma-node c-59" cx="259.733" cy="484.935" r="2.235"/><circle class="sigma-node c-59" cx="247.327" cy="484.566" r="2.235"/><circle class="sigma-node c-59" cx="245.113" cy="478.208" r="2.235"/><circle class="sigma-node c-59" cx="237.215" cy="466.811" r="2.679"/><circle class="sigma-node c-59" cx="222.323" cy="475.038" r="2.679"/><circle class="sigma-node c-59" cx="238.923" cy="498.438" r="2.235"/><circle class="sigma-node c-59" cx="264.244" cy="489.69" r="2.235"/><circle class="sigma-node c-59" cx="239.98" cy="481.866" r="2.235"/><circle class="sigma-node c-59" cx="230.533" cy="461.12" r="2.235"/><circle class="sigma-node c-59" cx="216.628" cy="471.036" r="2.235"/><circle class="sigma-node c-59" cx="251.275" cy="463.012" r="2.235"/><circle class="sigma-node c-59" cx="236.62" cy="457.04" r="2.235"/><circle class="sigma-node c-59" cx="237.328" cy="492.121" r="2.235"/><circle class="sigma-node c-60" cx="310.887" cy="280.114" r="2.235"/><circle class="sigma-node c-61" cx="276.404" cy="314.438" r="2.235"/><circle class="sigma-node c-60" cx="310.253" cy="286.28" r="2.235"/><circle class="sigma-node c-62" cx="334.515" cy="300.046" r="2.235"/><circle class="sigma-node c-63" cx="378.279" cy="313.38" r="2.235"/><circle class="sigma-node c-64" cx="342.383" cy="261.97" r="2.235"/><circle class="sigma-node c-62" cx="338.888" cy="285.863" r="2.235"/><circle class="sigma-node c-64" cx="346.82" cy="266.309" r="2.235"/><circle class="sigma-node c-65" cx="373.986" cy="271.163" r="2.235"/><circle class="sigma-node c-62" cx="341.887" cy="295.143" r="2.235"/><circle class="sigma-node c-65" cx="379.95" cy="269.841" r="2.235"/><circle class="sigma-node c-62" cx="334.137" cy="291.503" r="2.9"/><circle class="sigma-node c-62" cx="327.219" cy="293.975" r="2.235"/><circle class="sigma-node c-61" cx="277.423" cy="324.863" r="2.235"/><circle class="sigma-node c-61" cx="273.915" cy="319.83" r="2.457"/><circle class="sigma-node c-66" cx="400.24" cy="289.491" r="2.235"/><circle class="sigma-node c-66" cx="405.347" cy="286.082" r="2.235"/><circle class="sigma-node c-63" cx="384.021" cy="311.253" r="2.235"/><circle class="sigma-node c-67" cx="474.063" cy="305.765" r="2.235"/><circle class="sigma-node c-67" cx="471.195" cy="295.835" r="2.235"/><circle class="sigma-node c-68" cx="446.963" cy="278.169" r="2.235"/><circle class="sigma-node c-67" cx="485.849" cy="298.425" r="2.235"/><circle class="sigma-node c-67" cx="481.657" cy="305.848" r="2.235"/><circle class="sigma-node c-67" cx="478.216" cy="300.299" r="2.9"/><circle class="sigma-node c-68" cx="445.632" cy="284.058" r="2.235"/><circle class="sigma-node c-69" cx="424.639" cy="324.367" r="2.235"/><circle class="sigma-node c-69" cx="422.076" cy="329.845" r="2.235"/><circle class="sigma-node c-70" cx="470.529" cy="359.207" r="2.235"/><circle class="sigma-node c-71" cx="447.397" cy="329.492" r="2.235"/><circle class="sigma-node c-71" cx="452.25" cy="333.191" r="2.235"/><circle class="sigma-node c-70" cx="474.718" cy="363.68" r="2.235"/><circle class="sigma-node c-58" cx="267.497" cy="430.721" r="2.235"/><circle class="sigma-node c-58" cx="278.929" cy="404.568" r="2.235"/><circle class="sigma-node c-58" cx="277.362" cy="398.85" r="2.235"/><circle class="sigma-node c-58" cx="271.339" cy="400.159" r="2.235"/><circle class="sigma-node c-58" cx="272.328" cy="407.442" r="2.9"/><circle class="sigma-node c-59" cx="267.992" cy="498.895" r="2.235"/><circle class="sigma-node c-59" cx="270.852" cy="492.717" r="2.235"/><circle class="sigma-node c-59" cx="268.267" cy="485.051" r="2.235"/><circle class="sigma-node c-59" cx="275.087" cy="473.015" r="2.235"/><circle class="sigma-node c-59" cx="269.551" cy="477.571" r="2.457"/><circle class="sigma-node c-72" cx="423.431" cy="399.958" r="2.235"/><circle class="sigma-node c-72" cx="402.621" cy="417.188" r="2.235"/><circle class="sigma-node c-72" cx="420.741" cy="417.031" r="2.235"/><circle class="sigma-node c-72" cx="393.815" cy="399.139" r="2.235"/><circle class="sigma-node c-72" cx="424.468" cy="406.846" r="2.235"/><circle class="sigma-node c-72" cx="398.898" cy="410.787" r="2.235"/><circle class="sigma-node c-72" cx="406.352" cy="424.559" r="2.235"/><circle class="sigma-node c-72" cx="413.955" cy="419.839" r="2.235"/><circle class="sigma-node c-72" cx="398.136" cy="404.556" r="2.235"/><circle class="sigma-node c-72" cx="392.446" cy="408.376" r="2.235"/><circle class="sigma-node c-72" cx="420.802" cy="424.213" r="2.235"/><circle class="sigma-node c-72" cx="411.537" cy="405.634" r="7.557"/><circle class="sigma-node c-72" cx="407.892" cy="393.431" r="2.235"/><circle class="sigma-node c-72" cx="422.197" cy="388.566" r="2.235"/><circle class="sigma-node c-72" cx="425.55" cy="412.674" r="2.235"/><circle class="sigma-node c-72" cx="408.151" cy="419.103" r="2.235"/><circle class="sigma-node c-72" cx="429.983" cy="401.577" r="2.235"/><circle class="sigma-node c-72" cx="400.186" cy="397.802" r="2.235"/><circle class="sigma-node c-72" cx="425.733" cy="394.122" r="2.235"/><circle class="sigma-node c-72" cx="401.471" cy="390.753" r="2.235"/><circle class="sigma-node c-72" cx="431.453" cy="410.268" r="2.235"/><circle class="sigma-node c-72" cx="427.612" cy="419.701" r="2.235"/><circle class="sigma-node c-72" cx="396.227" cy="416.879" r="2.235"/><circle class="sigma-node c-72" cx="413.044" cy="425.947" r="2.235"/><circle class="sigma-node c-72" cx="413.223" cy="389.394" r="2.235"/><circle class="sigma-node c-72" cx="416.946" cy="393.95" r="2.235"/><circle class="sigma-node c-73" cx="482.216" cy="434.897" r="2.235"/><circle class="sigma-node c-73" cx="481.805" cy="441.011" r="2.235"/><circle class="sigma-node c-74" cx="477.475" cy="500.428" r="2.235"/><circle class="sigma-node c-74" cx="456.194" cy="496.759" r="2.457"/><circle class="sigma-node c-74" cx="457.511" cy="489.087" r="2.235"/><circle class="sigma-node c-75" cx="543.267" cy="70.49" r="2.235"/><circle class="sigma-node c-75" cx="538.872" cy="63.453" r="2.235"/><circle class="sigma-node c-75" cx="544.833" cy="64.526" r="2.457"/><circle class="sigma-node c-76" cx="509.795" cy="129.611" r="2.457"/><circle class="sigma-node c-76" cx="503.308" cy="129.22" r="2.235"/><circle class="sigma-node c-77" cx="689.371" cy="125.799" r="2.235"/><circle class="sigma-node c-77" cx="694.819" cy="105.391" r="2.679"/><circle class="sigma-node c-77" cx="698.459" cy="113.868" r="2.679"/><circle class="sigma-node c-77" cx="688.87" cy="101.507" r="2.235"/><circle class="sigma-node c-77" cx="719.499" cy="127.046" r="2.457"/><circle class="sigma-node c-77" cx="713.206" cy="121.866" r="2.457"/><circle class="sigma-node c-77" cx="707.247" cy="117.776" r="2.457"/><circle class="sigma-node c-77" cx="686.334" cy="108.075" r="2.235"/><circle class="sigma-node c-77" cx="693.256" cy="120.227" r="2.457"/><circle class="sigma-node c-76" cx="508.903" cy="143.251" r="2.235"/><circle class="sigma-node c-76" cx="508.769" cy="136.811" r="2.457"/><circle class="sigma-node c-78" cx="578.566" cy="182.988" r="2.235"/><circle class="sigma-node c-78" cx="590.046" cy="163.192" r="2.235"/><circle class="sigma-node c-78" cx="613.187" cy="150.389" r="2.457"/><circle class="sigma-node c-78" cx="577.269" cy="164.549" r="2.235"/><circle class="sigma-node c-78" cx="588.992" cy="156.236" r="2.457"/><circle class="sigma-node c-78" cx="588.013" cy="149.535" r="2.235"/><circle class="sigma-node c-78" cx="590.847" cy="188.84" r="2.235"/><circle class="sigma-node c-78" cx="601.411" cy="169.245" r="2.235"/><circle class="sigma-node c-78" cx="605.333" cy="157.724" r="2.457"/><circle class="sigma-node c-78" cx="591.916" cy="175.684" r="6.226"/><circle class="sigma-node c-78" cx="582.54" cy="168.687" r="2.235"/><circle class="sigma-node c-78" cx="597.979" cy="187.88" r="2.235"/><circle class="sigma-node c-78" cx="615.054" cy="167.82" r="2.235"/><circle class="sigma-node c-78" cx="607.67" cy="168.612" r="2.457"/><circle class="sigma-node c-78" cx="583.435" cy="162.238" r="2.235"/><circle class="sigma-node c-78" cx="584.02" cy="185.299" r="2.235"/><circle class="sigma-node c-78" cx="603.287" cy="179.518" r="2.235"/><circle class="sigma-node c-78" cx="580.725" cy="176.972" r="2.235"/><circle class="sigma-node c-78" cx="575.717" cy="172.716" r="2.235"/><circle class="sigma-node c-78" cx="619.285" cy="146.066" r="2.235"/><circle class="sigma-node c-78" cx="597.332" cy="164.121" r="2.235"/><circle class="sigma-node c-79" cx="540.926" cy="217.034" r="2.235"/><circle class="sigma-node c-79" cx="541.539" cy="223.831" r="2.457"/><circle class="sigma-node c-79" cx="542.67" cy="205.849" r="2.235"/><circle class="sigma-node c-79" cx="551.435" cy="207.983" r="4.009"/><circle class="sigma-node c-79" cx="539.228" cy="210.9" r="2.235"/><circle class="sigma-node c-79" cx="525.181" cy="220.782" r="2.9"/><circle class="sigma-node c-79" cx="546.837" cy="219.61" r="2.235"/><circle class="sigma-node c-79" cx="507.138" cy="232.685" r="2.235"/><circle class="sigma-node c-79" cx="550.506" cy="224.516" r="2.457"/><circle class="sigma-node c-79" cx="512.901" cy="228.806" r="2.457"/><circle class="sigma-node c-79" cx="553.732" cy="216.999" r="2.235"/><circle class="sigma-node c-79" cx="517.518" cy="222.625" r="2.235"/><circle class="sigma-node c-79" cx="550.728" cy="231.572" r="2.235"/><circle class="sigma-node c-79" cx="521.083" cy="228.667" r="2.235"/><circle class="sigma-node c-79" cx="539.605" cy="230.721" r="2.235"/><circle class="sigma-node c-78" cx="594.139" cy="225.839" r="2.235"/><circle class="sigma-node c-78" cx="592.728" cy="195.21" r="2.457"/><circle class="sigma-node c-80" cx="616.998" cy="197.521" r="2.457"/><circle class="sigma-node c-78" cx="594.606" cy="219.346" r="2.457"/><circle class="sigma-node c-78" cx="593.575" cy="210.317" r="2.457"/><circle class="sigma-node c-81" cx="729.468" cy="185.44" r="2.457"/><circle class="sigma-node c-77" cx="718.899" cy="133.964" r="2.235"/><circle class="sigma-node c-81" cx="734.491" cy="189.146" r="2.235"/><circle class="sigma-node c-81" cx="724.694" cy="191.071" r="2.235"/><circle class="sigma-node c-80" cx="631.272" cy="223.16" r="2.235"/><circle class="sigma-node c-80" cx="645.548" cy="230.009" r="2.235"/><circle class="sigma-node c-80" cx="649.047" cy="223.35" r="2.235"/><circle class="sigma-node c-80" cx="645.39" cy="218.316" r="2.235"/><circle class="sigma-node c-80" cx="639.836" cy="224.168" r="2.235"/><circle class="sigma-node c-80" cx="637.599" cy="216.857" r="3.787"/><circle class="sigma-node c-80" cx="639.429" cy="232.265" r="2.235"/><circle class="sigma-node c-80" cx="633.517" cy="228.794" r="2.235"/><circle class="sigma-node c-82" cx="713.016" cy="252.736" r="2.235"/><circle class="sigma-node c-82" cx="709.776" cy="247.586" r="2.235"/><circle class="sigma-node c-83" cx="719.234" cy="222.265" r="2.235"/><circle class="sigma-node c-83" cx="725.231" cy="221.677" r="2.235"/><circle class="sigma-node c-84" cx="807.061" cy="145.481" r="2.235"/><circle class="sigma-node c-84" cx="811.348" cy="149.855" r="2.235"/><circle class="sigma-node c-85" cx="783.952" cy="229.58" r="2.235"/><circle class="sigma-node c-86" cx="768.15" cy="204.491" r="2.235"/><circle class="sigma-node c-85" cx="782.772" cy="243.332" r="2.235"/><circle class="sigma-node c-85" cx="785.73" cy="236.856" r="2.9"/><circle class="sigma-node c-87" cx="740.93" cy="235.074" r="2.235"/><circle class="sigma-node c-87" cx="742.18" cy="241.148" r="2.235"/><circle class="sigma-node c-86" cx="770.798" cy="210.06" r="2.235"/><circle class="sigma-node c-85" cx="791.69" cy="241.823" r="2.235"/><circle class="sigma-node c-85" cx="779.225" cy="237.256" r="2.235"/><circle class="sigma-node c-88" cx="890.868" cy="237.259" r="2.235"/><circle class="sigma-node c-89" cx="860.832" cy="238.733" r="2.235"/><circle class="sigma-node c-90" cx="859.853" cy="195.288" r="2.235"/><circle class="sigma-node c-88" cx="894.643" cy="242.054" r="2.235"/><circle class="sigma-node c-90" cx="864.13" cy="199.671" r="2.235"/><circle class="sigma-node c-89" cx="857.882" cy="233.367" r="2.235"/><circle class="sigma-node c-91" cx="514.78" cy="331.897" r="2.457"/><circle class="sigma-node c-91" cx="512.019" cy="339.244" r="2.235"/><circle class="sigma-node c-91" cx="522.22" cy="334.081" r="2.235"/><circle class="sigma-node c-92" cx="581.002" cy="329.365" r="2.235"/><circle class="sigma-node c-93" cx="617.247" cy="341.834" r="2.235"/><circle class="sigma-node c-94" cx="578.849" cy="373.595" r="2.235"/><circle class="sigma-node c-92" cx="585.032" cy="324.672" r="2.235"/><circle class="sigma-node c-93" cx="612.482" cy="336.349" r="2.457"/><circle class="sigma-node c-94" cx="580.629" cy="367.826" r="2.235"/><circle class="sigma-node c-93" cx="606.241" cy="341.275" r="2.235"/><circle class="sigma-node c-95" cx="646.895" cy="306.864" r="2.235"/><circle class="sigma-node c-95" cx="642.353" cy="302.764" r="2.457"/><circle class="sigma-node c-96" cx="671.895" cy="317.357" r="2.235"/><circle class="sigma-node c-95" cx="637.436" cy="307.983" r="2.235"/><circle class="sigma-node c-97" cx="731.795" cy="295.909" r="2.235"/><circle class="sigma-node c-97" cx="726.666" cy="298.654" r="2.235"/><circle class="sigma-node c-98" cx="720.839" cy="312.693" r="2.235"/><circle class="sigma-node c-98" cx="715.213" cy="310.318" r="2.235"/><circle class="sigma-node c-99" cx="635.453" cy="352.573" r="2.235"/><circle class="sigma-node c-99" cx="636.009" cy="346.421" r="2.235"/><circle class="sigma-node c-96" cx="666.148" cy="319.317" r="2.235"/><circle class="sigma-node c-100" cx="695.645" cy="358.928" r="2.235"/><circle class="sigma-node c-100" cx="703.01" cy="354.049" r="3.566"/><circle class="sigma-node c-100" cx="701.284" cy="362.12" r="2.235"/><circle class="sigma-node c-100" cx="698.597" cy="348.078" r="2.235"/><circle class="sigma-node c-100" cx="711.654" cy="355.726" r="2.235"/><circle class="sigma-node c-100" cx="706.748" cy="360.774" r="2.235"/><circle class="sigma-node c-100" cx="705.426" cy="345.398" r="2.235"/><circle class="sigma-node c-100" cx="695.017" cy="352.471" r="2.235"/><circle class="sigma-node c-101" cx="539.373" cy="412.4" r="2.457"/><circle class="sigma-node c-101" cx="529.813" cy="387.789" r="2.235"/><circle class="sigma-node c-102" cx="552.723" cy="439.552" r="2.457"/><circle class="sigma-node c-101" cx="530.841" cy="399.82" r="2.235"/><circle class="sigma-node c-102" cx="551.044" cy="432.485" r="2.235"/><circle class="sigma-node c-101" cx="536.707" cy="384.646" r="2.235"/><circle class="sigma-node c-101" cx="537.917" cy="396.024" r="3.566"/><circle class="sigma-node c-102" cx="543.464" cy="422.145" r="2.235"/><circle class="sigma-node c-102" cx="532.174" cy="438.526" r="2.235"/><circle class="sigma-node c-101" cx="528.49" cy="393.617" r="2.235"/><circle class="sigma-node c-102" cx="546.759" cy="438.8" r="2.235"/><circle class="sigma-node c-102" cx="531.943" cy="431.233" r="2.235"/><circle class="sigma-node c-101" cx="545.206" cy="393.958" r="2.235"/><circle class="sigma-node c-101" cx="542.073" cy="387.731" r="2.235"/><circle class="sigma-node c-102" cx="541.598" cy="431.209" r="4.231"/><circle class="sigma-node c-102" cx="534.553" cy="425.578" r="2.235"/><circle class="sigma-node c-102" cx="536.027" cy="442.803" r="2.235"/><circle class="sigma-node c-102" cx="556.197" cy="445.864" r="2.235"/><circle class="sigma-node c-102" cx="543.061" cy="443.401" r="2.235"/><circle class="sigma-node c-103" cx="617.503" cy="499.598" r="2.235"/><circle class="sigma-node c-103" cx="613.195" cy="495.278" r="2.235"/><circle class="sigma-node c-104" cx="583.734" cy="495.251" r="2.235"/><circle class="sigma-node c-105" cx="644.617" cy="410.019" r="2.235"/><circle class="sigma-node c-105" cx="654.306" cy="424.448" r="2.457"/><circle class="sigma-node c-105" cx="652.356" cy="411.787" r="2.457"/><circle class="sigma-node c-105" cx="646.299" cy="419.966" r="3.787"/><circle class="sigma-node c-105" cx="635.466" cy="415.22" r="2.235"/><circle class="sigma-node c-105" cx="635.347" cy="421.767" r="2.235"/><circle class="sigma-node c-105" cx="638.198" cy="409.909" r="2.235"/><circle class="sigma-node c-105" cx="640.134" cy="425.314" r="2.235"/><circle class="sigma-node c-105" cx="635.269" cy="436.665" r="2.457"/><circle class="sigma-node c-105" cx="638.923" cy="431.114" r="2.457"/><circle class="sigma-node c-105" cx="659.41" cy="428.413" r="2.235"/><circle class="sigma-node c-105" cx="656.672" cy="406.895" r="2.235"/><circle class="sigma-node c-106" cx="736.998" cy="434.352" r="2.235"/><circle class="sigma-node c-107" cx="635.933" cy="483.706" r="2.235"/><circle class="sigma-node c-105" cx="631.208" cy="442.957" r="2.235"/><circle class="sigma-node c-107" cx="641.153" cy="486.837" r="2.235"/><circle class="sigma-node c-108" cx="703.623" cy="462.167" r="2.235"/><circle class="sigma-node c-109" cx="713.122" cy="501.3" r="2.235"/><circle class="sigma-node c-108" cx="711.29" cy="468.302" r="2.235"/><circle class="sigma-node c-108" cx="710.053" cy="462.37" r="2.457"/><circle class="sigma-node c-109" cx="713.758" cy="495.214" r="2.235"/><circle class="sigma-node c-110" cx="797.195" cy="294.958" r="2.457"/><circle class="sigma-node c-110" cx="793.233" cy="288.68" r="2.235"/><circle class="sigma-node c-110" cx="792.118" cy="300.792" r="2.679"/><circle class="sigma-node c-110" cx="792.966" cy="307.687" r="2.235"/><circle class="sigma-node c-110" cx="784.904" cy="303.39" r="2.235"/><circle class="sigma-node c-111" cx="852.74" cy="286.951" r="2.235"/><circle class="sigma-node c-111" cx="856.245" cy="291.98" r="2.235"/><circle class="sigma-node c-112" cx="788.512" cy="376.66" r="2.9"/><circle class="sigma-node c-112" cx="784.89" cy="371.262" r="2.235"/><circle class="sigma-node c-112" cx="779.777" cy="377.285" r="2.235"/><circle class="sigma-node c-113" cx="748.164" cy="358.791" r="2.235"/><circle class="sigma-node c-113" cx="750.56" cy="353.277" r="2.235"/><circle class="sigma-node c-114" cx="844.445" cy="367.626" r="2.235"/><circle class="sigma-node c-114" cx="847.607" cy="372.895" r="2.235"/><circle class="sigma-node c-115" cx="864.064" cy="314.924" r="2.235"/><circle class="sigma-node c-116" cx="897.692" cy="276.054" r="2.235"/><circle class="sigma-node c-116" cx="894.796" cy="270.661" r="2.235"/><circle class="sigma-node c-117" cx="926.493" cy="298.963" r="2.235"/><circle class="sigma-node c-117" cx="924.533" cy="293.16" r="2.235"/><circle class="sigma-node c-118" cx="861.665" cy="348.911" r="2.235"/><circle class="sigma-node c-118" cx="868.412" cy="346.797" r="2.457"/><circle class="sigma-node c-118" cx="871.587" cy="351.98" r="2.235"/><circle class="sigma-node c-115" cx="867.131" cy="320.211" r="2.235"/><circle class="sigma-node c-112" cx="795.61" cy="386.95" r="2.235"/><circle class="sigma-node c-112" cx="794.652" cy="380.117" r="2.457"/><circle class="sigma-node c-119" cx="746.439" cy="403.51" r="2.235"/><circle class="sigma-node c-112" cx="782.376" cy="383.169" r="2.235"/><circle class="sigma-node c-119" cx="745.371" cy="397.493" r="2.235"/><circle class="sigma-node c-106" cx="740.149" cy="439.62" r="2.235"/><circle class="sigma-node c-120" cx="814.565" cy="413.195" r="2.457"/><circle class="sigma-node c-121" cx="856.102" cy="425.139" r="2.235"/><circle class="sigma-node c-120" cx="813.928" cy="406.849" r="2.235"/><circle class="sigma-node c-120" cx="807.941" cy="414.807" r="2.235"/><circle class="sigma-node c-121" cx="854.696" cy="433.122" r="2.235"/><circle class="sigma-node c-122" cx="753.925" cy="476.597" r="2.235"/><circle class="sigma-node c-123" cx="778.305" cy="446.901" r="2.457"/><circle class="sigma-node c-123" cx="771.362" cy="447.871" r="2.235"/><circle class="sigma-node c-123" cx="779.096" cy="453.349" r="2.235"/><circle class="sigma-node c-122" cx="757.24" cy="481.675" r="2.235"/><circle class="sigma-node c-124" cx="812.298" cy="478.344" r="2.235"/><circle class="sigma-node c-124" cx="819.209" cy="479.811" r="2.457"/><circle class="sigma-node c-124" cx="818.045" cy="486.966" r="2.235"/><circle class="sigma-node c-125" cx="850.167" cy="472.817" r="2.235"/><circle class="sigma-node c-125" cx="846.549" cy="467.978" r="2.235"/><circle class="sigma-node c-126" cx="865.801" cy="385.318" r="2.235"/><circle class="sigma-node c-121" cx="861.321" cy="428.914" r="2.679"/><circle class="sigma-node c-127" cx="913.083" cy="434.058" r="2.457"/><circle class="sigma-node c-128" cx="887.078" cy="392.292" r="2.235"/><circle class="sigma-node c-126" cx="864.753" cy="391.423" r="2.235"/><circle class="sigma-node c-121" cx="866.99" cy="438.658" r="2.235"/><circle class="sigma-node c-127" cx="905.663" cy="435.78" r="2.235"/><circle class="sigma-node c-121" cx="867.593" cy="431.785" r="2.457"/><circle class="sigma-node c-128" cx="887.534" cy="386.132" r="2.235"/><circle class="sigma-node c-129" cx="890.78" cy="476.465" r="2.235"/><circle class="sigma-node c-130" cx="870.999" cy="496.412" r="2.235"/><circle class="sigma-node c-129" cx="893.916" cy="471.133" r="2.235"/><circle class="sigma-node c-130" cx="868.645" cy="502.109" r="2.235"/><circle class="sigma-node c-127" cx="913.207" cy="440.738" r="2.235"/><circle class="sigma-node c-131" cx="938.148" cy="490.916" r="2.235"/><circle class="sigma-node c-131" cx="937.868" cy="497.033" r="2.235"/><circle class="sigma-node c-132" cx="972.866" cy="479.743" r="2.235"/><circle class="sigma-node c-132" cx="973.547" cy="485.834" r="2.235"/><circle class="sigma-node c-133" cx="68.029" cy="512.97" r="2.235"/><circle class="sigma-node c-134" cx="54.938" cy="549.846" r="2.457"/><circle class="sigma-node c-134" cx="52.766" cy="555.475" r="2.235"/><circle class="sigma-node c-134" cx="67.592" cy="544.569" r="2.235"/><circle class="sigma-node c-135" cx="39.787" cy="516.072" r="2.235"/><circle class="sigma-node c-135" cx="40.045" cy="522.997" r="2.457"/><circle class="sigma-node c-134" cx="61.286" cy="544.714" r="2.457"/><circle class="sigma-node c-133" cx="66.403" cy="507.043" r="2.235"/><circle class="sigma-node c-135" cx="47.417" cy="523.58" r="2.235"/><circle class="sigma-node c-136" cx="125.898" cy="549.871" r="2.235"/><circle class="sigma-node c-136" cx="131.77" cy="548.802" r="2.235"/><circle class="sigma-node c-137" cx="35.773" cy="589.975" r="2.235"/><circle class="sigma-node c-138" cx="70.261" cy="620.159" r="2.235"/><circle class="sigma-node c-137" cx="34.859" cy="583.385" r="2.457"/><circle class="sigma-node c-137" cx="41.304" cy="583.471" r="2.235"/><circle class="sigma-node c-138" cx="77.507" cy="621.402" r="2.235"/><circle class="sigma-node c-139" cx="144.307" cy="574.102" r="2.235"/><circle class="sigma-node c-140" cx="126.816" cy="624.383" r="2.235"/><circle class="sigma-node c-141" cx="164.457" cy="504.075" r="2.235"/><circle class="sigma-node c-141" cx="169.803" cy="507.239" r="2.235"/><circle class="sigma-node c-142" cx="215.515" cy="550.985" r="2.457"/><circle class="sigma-node c-142" cx="225.593" cy="547.553" r="2.235"/><circle class="sigma-node c-59" cx="254.728" cy="513.738" r="2.235"/><circle class="sigma-node c-59" cx="241.813" cy="506.237" r="2.235"/><circle class="sigma-node c-142" cx="233.538" cy="552.674" r="3.122"/><circle class="sigma-node c-142" cx="208.658" cy="550.027" r="2.235"/><circle class="sigma-node c-142" cx="239.606" cy="523.809" r="2.457"/><circle class="sigma-node c-142" cx="224.518" cy="554.129" r="2.235"/><circle class="sigma-node c-139" cx="148.329" cy="578.798" r="2.235"/><circle class="sigma-node c-142" cx="260.127" cy="583.298" r="2.679"/><circle class="sigma-node c-142" cx="226.811" cy="579.657" r="2.235"/><circle class="sigma-node c-142" cx="233.878" cy="578.566" r="2.679"/><circle class="sigma-node c-138" cx="47.501" cy="653.365" r="2.235"/><circle class="sigma-node c-138" cx="50.509" cy="659.177" r="2.235"/><circle class="sigma-node c-138" cx="56.205" cy="653.693" r="4.009"/><circle class="sigma-node c-138" cx="62.875" cy="638.106" r="2.457"/><circle class="sigma-node c-138" cx="55.556" cy="661.893" r="2.235"/><circle class="sigma-node c-138" cx="50.853" cy="644.958" r="2.235"/><circle class="sigma-node c-138" cx="60.836" cy="644.405" r="2.235"/><circle class="sigma-node c-138" cx="76.668" cy="627.112" r="2.235"/><circle class="sigma-node c-138" cx="62.722" cy="661.854" r="2.235"/><circle class="sigma-node c-138" cx="68.533" cy="628.81" r="2.9"/><circle class="sigma-node c-138" cx="64.798" cy="655.266" r="2.235"/><circle class="sigma-node c-138" cx="65.687" cy="649.55" r="2.235"/><circle class="sigma-node c-143" cx="109.356" cy="677.071" r="2.235"/><circle class="sigma-node c-140" cx="127.754" cy="630.957" r="2.457"/><circle class="sigma-node c-143" cx="108.502" cy="683.085" r="2.235"/><circle class="sigma-node c-140" cx="133.818" cy="628.525" r="2.235"/><circle class="sigma-node c-144" cx="44.257" cy="746.193" r="2.235"/><circle class="sigma-node c-145" cx="134.743" cy="745.549" r="2.235"/><circle class="sigma-node c-145" cx="134.698" cy="739.498" r="2.235"/><circle class="sigma-node c-146" cx="175.293" cy="682.122" r="2.9"/><circle class="sigma-node c-146" cx="168.429" cy="677.71" r="2.235"/><circle class="sigma-node c-142" cx="195.347" cy="673.072" r="2.457"/><circle class="sigma-node c-142" cx="265.293" cy="675.766" r="3.344"/><circle class="sigma-node c-142" cx="223.598" cy="647.985" r="2.235"/><circle class="sigma-node c-142" cx="216.295" cy="663.659" r="2.235"/><circle class="sigma-node c-142" cx="215.719" cy="657.523" r="2.457"/><circle class="sigma-node c-142" cx="257.943" cy="680.533" r="2.235"/><circle class="sigma-node c-142" cx="259.903" cy="631.459" r="2.457"/><circle class="sigma-node c-142" cx="224.13" cy="661.201" r="3.344"/><circle class="sigma-node c-142" cx="217.041" cy="650.279" r="2.457"/><circle class="sigma-node c-146" cx="170.827" cy="689.477" r="2.235"/><circle class="sigma-node c-146" cx="158.621" cy="692.288" r="2.235"/><circle class="sigma-node c-146" cx="165.059" cy="688.049" r="2.457"/><circle class="sigma-node c-147" cx="167.461" cy="722.674" r="2.235"/><circle class="sigma-node c-148" cx="201.714" cy="747.381" r="3.344"/><circle class="sigma-node c-147" cx="168.857" cy="716.797" r="2.235"/><circle class="sigma-node c-142" cx="210.704" cy="707.798" r="2.457"/><circle class="sigma-node c-149" cx="294.92" cy="564.524" r="3.566"/><circle class="sigma-node c-149" cx="302.592" cy="547.484" r="2.235"/><circle class="sigma-node c-149" cx="300.562" cy="559.263" r="2.235"/><circle class="sigma-node c-149" cx="296.976" cy="552.542" r="2.457"/><circle class="sigma-node c-142" cx="271.259" cy="560.253" r="2.457"/><circle class="sigma-node c-149" cx="290.288" cy="556.252" r="2.235"/><circle class="sigma-node c-59" cx="266.647" cy="505.658" r="2.235"/><circle class="sigma-node c-74" cx="327.943" cy="514.72" r="2.457"/><circle class="sigma-node c-149" cx="332.816" cy="561.262" r="2.679"/><circle class="sigma-node c-74" cx="380.743" cy="547.639" r="2.235"/><circle class="sigma-node c-149" cx="302.732" cy="579.428" r="4.009"/><circle class="sigma-node c-149" cx="304.58" cy="564.486" r="2.235"/><circle class="sigma-node c-149" cx="293.231" cy="578.178" r="2.235"/><circle class="sigma-node c-149" cx="287.782" cy="590.362" r="2.235"/><circle class="sigma-node c-149" cx="306.222" cy="587.867" r="2.235"/><circle class="sigma-node c-149" cx="296.689" cy="573.237" r="2.457"/><circle class="sigma-node c-149" cx="292.348" cy="584.563" r="2.235"/><circle class="sigma-node c-149" cx="295.579" cy="589.815" r="2.235"/><circle class="sigma-node c-149" cx="287.239" cy="580.485" r="2.235"/><circle class="sigma-node c-149" cx="302.448" cy="592.54" r="2.235"/><circle class="sigma-node c-74" cx="405.044" cy="521.167" r="2.457"/><circle class="sigma-node c-74" cx="412.293" cy="534.799" r="2.235"/><circle class="sigma-node c-74" cx="403.742" cy="531.987" r="2.235"/><circle class="sigma-node c-150" cx="432.495" cy="546.401" r="2.457"/><circle class="sigma-node c-74" cx="443.374" cy="528.705" r="2.235"/><circle class="sigma-node c-74" cx="385.773" cy="553.002" r="2.457"/><circle class="sigma-node c-74" cx="408.227" cy="528.588" r="2.235"/><circle class="sigma-node c-74" cx="394.38" cy="529.028" r="2.235"/><circle class="sigma-node c-74" cx="406.389" cy="514.889" r="2.235"/><circle class="sigma-node c-74" cx="396.957" cy="561.475" r="2.457"/><circle class="sigma-node c-74" cx="398.061" cy="543.365" r="5.339"/><circle class="sigma-node c-74" cx="437.294" cy="523.275" r="2.679"/><circle class="sigma-node c-74" cx="422.305" cy="529.551" r="2.457"/><circle class="sigma-node c-74" cx="443.111" cy="520.102" r="2.235"/><circle class="sigma-node c-74" cx="391.065" cy="534.502" r="2.235"/><circle class="sigma-node c-74" cx="412.022" cy="541.154" r="2.235"/><circle class="sigma-node c-74" cx="409.18" cy="546.463" r="2.235"/><circle class="sigma-node c-74" cx="400.566" cy="525.61" r="2.235"/><circle class="sigma-node c-74" cx="448.56" cy="525.054" r="2.457"/><circle class="sigma-node c-74" cx="454.426" cy="506.931" r="2.235"/><circle class="sigma-node c-74" cx="488.529" cy="512.089" r="2.235"/><circle class="sigma-node c-74" cx="495.623" cy="511.678" r="2.235"/><circle class="sigma-node c-74" cx="448.45" cy="551.171" r="3.122"/><circle class="sigma-node c-74" cx="497.365" cy="518.643" r="2.235"/><circle class="sigma-node c-150" cx="470.077" cy="556.097" r="2.235"/><circle class="sigma-node c-74" cx="453.964" cy="514.423" r="2.679"/><circle class="sigma-node c-74" cx="452.485" cy="544.297" r="2.235"/><circle class="sigma-node c-150" cx="464.777" cy="559.092" r="2.235"/><circle class="sigma-node c-74" cx="475.898" cy="507.11" r="2.457"/><circle class="sigma-node c-150" cx="466.834" cy="550.866" r="2.235"/><circle class="sigma-node c-150" cx="460.222" cy="553.624" r="2.9"/><circle class="sigma-node c-74" cx="472.254" cy="523.258" r="2.9"/><circle class="sigma-node c-74" cx="495.102" cy="524.072" r="2.235"/><circle class="sigma-node c-74" cx="474.202" cy="515.076" r="2.235"/><circle class="sigma-node c-74" cx="486.701" cy="521.041" r="3.566"/><circle class="sigma-node c-74" cx="427.073" cy="623.932" r="2.235"/><circle class="sigma-node c-74" cx="431.807" cy="597.097" r="2.235"/><circle class="sigma-node c-74" cx="439.903" cy="615.919" r="2.457"/><circle class="sigma-node c-74" cx="415.814" cy="611.702" r="2.235"/><circle class="sigma-node c-74" cx="438.625" cy="597.491" r="2.235"/><circle class="sigma-node c-74" cx="411.703" cy="570.262" r="2.679"/><circle class="sigma-node c-74" cx="426.05" cy="600.591" r="2.235"/><circle class="sigma-node c-74" cx="432.967" cy="608.771" r="4.452"/><circle class="sigma-node c-142" cx="391.747" cy="601.01" r="2.679"/><circle class="sigma-node c-74" cx="423.092" cy="608.658" r="2.457"/><circle class="sigma-node c-74" cx="442.682" cy="608.942" r="2.235"/><circle class="sigma-node c-142" cx="384.451" cy="597.041" r="2.235"/><circle class="sigma-node c-74" cx="429.954" cy="618.575" r="2.457"/><circle class="sigma-node c-74" cx="442.684" cy="602.767" r="2.235"/><circle class="sigma-node c-74" cx="451.914" cy="600.684" r="2.457"/><circle class="sigma-node c-74" cx="455.748" cy="611.47" r="2.235"/><circle class="sigma-node c-74" cx="449.2" cy="609.994" r="2.457"/><circle class="sigma-node c-74" cx="444.173" cy="622.163" r="2.235"/><circle class="sigma-node c-142" cx="324.092" cy="674.146" r="2.235"/><circle class="sigma-node c-142" cx="291.278" cy="628.141" r="2.9"/><circle class="sigma-node c-142" cx="299.758" cy="686.95" r="3.787"/><circle class="sigma-node c-142" cx="270.617" cy="680.764" r="2.235"/><circle class="sigma-node c-142" cx="315.706" cy="662.168" r="3.122"/><circle class="sigma-node c-142" cx="319.635" cy="668.649" r="2.457"/><circle class="sigma-node c-142" cx="299.128" cy="629.53" r="2.235"/><circle class="sigma-node c-142" cx="295.436" cy="659.431" r="2.457"/><circle class="sigma-node c-142" cx="323.003" cy="657.312" r="2.235"/><circle class="sigma-node c-142" cx="357.334" cy="658.883" r="3.122"/><circle class="sigma-node c-142" cx="365.067" cy="659.423" r="2.235"/><circle class="sigma-node c-142" cx="375.426" cy="631.158" r="2.679"/><circle class="sigma-node c-151" cx="383.376" cy="678.583" r="2.457"/><circle class="sigma-node c-142" cx="360.295" cy="666.19" r="2.235"/><circle class="sigma-node c-142" cx="368.084" cy="629.601" r="2.235"/><circle class="sigma-node c-142" cx="292.747" cy="719.785" r="2.457"/><circle class="sigma-node c-142" cx="307.997" cy="692.173" r="2.235"/><circle class="sigma-node c-142" cx="302.909" cy="697.837" r="2.235"/><circle class="sigma-node c-142" cx="296.831" cy="697.244" r="2.235"/><circle class="sigma-node c-142" cx="291.369" cy="690.412" r="2.235"/><circle class="sigma-node c-142" cx="328.197" cy="741.003" r="2.457"/><circle class="sigma-node c-74" cx="442.049" cy="654.237" r="4.231"/><circle class="sigma-node c-74" cx="459.01" cy="655.886" r="2.235"/><circle class="sigma-node c-74" cx="451.006" cy="663.503" r="2.235"/><circle class="sigma-node c-74" cx="455.224" cy="650.491" r="2.235"/><circle class="sigma-node c-74" cx="451.489" cy="657.572" r="2.235"/><circle class="sigma-node c-74" cx="457.64" cy="661.365" r="2.235"/><circle class="sigma-node c-74" cx="444.605" cy="663.208" r="2.235"/><circle class="sigma-node c-74" cx="449.45" cy="647.469" r="2.235"/><circle class="sigma-node c-151" cx="410.759" cy="697.556" r="2.235"/><circle class="sigma-node c-142" cx="412.712" cy="733.401" r="2.679"/><circle class="sigma-node c-151" cx="404.97" cy="693.818" r="2.679"/><circle class="sigma-node c-152" cx="432.373" cy="744.851" r="3.122"/><circle class="sigma-node c-151" cx="423.499" cy="702.999" r="2.457"/><circle class="sigma-node c-151" cx="441.891" cy="711.116" r="2.235"/><circle class="sigma-node c-151" cx="435.745" cy="708.764" r="2.457"/><circle class="sigma-node c-152" cx="439.524" cy="740.912" r="2.235"/><circle class="sigma-node c-152" cx="444.71" cy="745.19" r="2.235"/><circle class="sigma-node c-144" cx="47.669" cy="751.281" r="2.235"/><circle class="sigma-node c-153" cx="143.455" cy="768.625" r="2.235"/><circle class="sigma-node c-154" cx="124.995" cy="809.318" r="2.235"/><circle class="sigma-node c-154" cx="134.744" cy="810.787" r="2.235"/><circle class="sigma-node c-154" cx="129.03" cy="815.486" r="2.457"/><circle class="sigma-node c-148" cx="203.567" cy="789.596" r="2.235"/><circle class="sigma-node c-148" cx="202.576" cy="770.425" r="2.457"/><circle class="sigma-node c-153" cx="152.923" cy="768.028" r="2.235"/><circle class="sigma-node c-153" cx="148.052" cy="772.963" r="2.457"/><circle class="sigma-node c-148" cx="202.978" cy="783.49" r="2.457"/><circle class="sigma-node c-148" cx="197.627" cy="753.77" r="2.235"/><circle class="sigma-node c-148" cx="200.427" cy="758.782" r="2.235"/><circle class="sigma-node c-155" cx="232.369" cy="753.297" r="2.235"/><circle class="sigma-node c-155" cx="234.057" cy="762.607" r="2.235"/><circle class="sigma-node c-155" cx="228.719" cy="759.829" r="2.457"/><circle class="sigma-node c-148" cx="208.965" cy="751.782" r="2.235"/><circle class="sigma-node c-148" cx="207.223" cy="757.409" r="2.235"/><circle class="sigma-node c-156" cx="157.505" cy="834.148" r="2.235"/><circle class="sigma-node c-156" cx="154.437" cy="828.798" r="2.235"/><circle class="sigma-node c-157" cx="195.395" cy="920.776" r="2.235"/><circle class="sigma-node c-158" cx="155.611" cy="891.401" r="2.235"/><circle class="sigma-node c-158" cx="160.806" cy="894.641" r="2.235"/><circle class="sigma-node c-157" cx="190.504" cy="917.094" r="2.235"/><circle class="sigma-node c-159" cx="229.264" cy="926.918" r="2.235"/><circle class="sigma-node c-160" cx="224.753" cy="884.57" r="2.235"/><circle class="sigma-node c-160" cx="230.232" cy="887.267" r="2.235"/><circle class="sigma-node c-159" cx="234.427" cy="930.204" r="2.235"/><circle class="sigma-node c-161" cx="261.007" cy="936.824" r="2.235"/><circle class="sigma-node c-142" cx="323.183" cy="757.007" r="2.457"/><circle class="sigma-node c-142" cx="349.876" cy="806.114" r="2.235"/><circle class="sigma-node c-142" cx="374.85" cy="795.535" r="2.235"/><circle class="sigma-node c-142" cx="341.924" cy="791.162" r="2.235"/><circle class="sigma-node c-142" cx="364.167" cy="782.557" r="2.235"/><circle class="sigma-node c-142" cx="352.572" cy="776.609" r="2.235"/><circle class="sigma-node c-142" cx="344.391" cy="798.352" r="2.235"/><circle class="sigma-node c-142" cx="374.135" cy="788.399" r="2.235"/><circle class="sigma-node c-142" cx="368.246" cy="788.728" r="2.235"/><circle class="sigma-node c-142" cx="367.854" cy="796.67" r="2.235"/><circle class="sigma-node c-142" cx="369.473" cy="802.145" r="2.235"/><circle class="sigma-node c-142" cx="358.668" cy="807.096" r="2.235"/><circle class="sigma-node c-142" cx="348.308" cy="780.714" r="2.235"/><circle class="sigma-node c-142" cx="355.205" cy="792.383" r="7.335"/><circle class="sigma-node c-142" cx="371.619" cy="781.981" r="2.235"/><circle class="sigma-node c-142" cx="364.248" cy="774.868" r="2.235"/><circle class="sigma-node c-142" cx="342.911" cy="785.082" r="2.235"/><circle class="sigma-node c-142" cx="336.288" cy="809.375" r="2.679"/><circle class="sigma-node c-142" cx="364.02" cy="803.846" r="2.235"/><circle class="sigma-node c-142" cx="359.252" cy="779.433" r="2.235"/><circle class="sigma-node c-142" cx="318.438" cy="821.833" r="2.235"/><circle class="sigma-node c-142" cx="324.794" cy="819.365" r="2.457"/><circle class="sigma-node c-142" cx="353.802" cy="811.177" r="2.679"/><circle class="sigma-node c-162" cx="357.507" cy="866.64" r="2.235"/><circle class="sigma-node c-162" cx="352.51" cy="849.72" r="2.9"/><circle class="sigma-node c-142" cx="329.718" cy="812.714" r="2.235"/><circle class="sigma-node c-162" cx="350.181" cy="855.789" r="2.235"/><circle class="sigma-node c-163" cx="383.772" cy="811.198" r="2.457"/><circle class="sigma-node c-162" cx="354.546" cy="860.413" r="2.457"/><circle class="sigma-node c-152" cx="442.537" cy="751.487" r="2.235"/><circle class="sigma-node c-152" cx="435.201" cy="752.457" r="2.235"/><circle class="sigma-node c-164" cx="492.13" cy="806.576" r="2.235"/><circle class="sigma-node c-164" cx="496.489" cy="802.34" r="2.235"/><circle class="sigma-node c-163" cx="411.072" cy="821.719" r="2.235"/><circle class="sigma-node c-163" cx="412.306" cy="827.285" r="2.235"/><circle class="sigma-node c-163" cx="402.6" cy="823.939" r="2.9"/><circle class="sigma-node c-163" cx="407.968" cy="831.6" r="2.235"/><circle class="sigma-node c-165" cx="435.188" cy="865.476" r="2.235"/><circle class="sigma-node c-166" cx="483.266" cy="856.19" r="2.235"/><circle class="sigma-node c-166" cx="478.783" cy="860.455" r="2.235"/><circle class="sigma-node c-162" cx="354.374" cy="889.579" r="2.235"/><circle class="sigma-node c-162" cx="346.128" cy="897.795" r="2.235"/><circle class="sigma-node c-162" cx="351.955" cy="896.155" r="2.235"/><circle class="sigma-node c-162" cx="340.318" cy="895.549" r="2.235"/><circle class="sigma-node c-162" cx="345.59" cy="887.358" r="3.344"/><circle class="sigma-node c-162" cx="338.609" cy="888.833" r="2.235"/><circle class="sigma-node c-161" cx="265.926" cy="940.402" r="2.235"/><circle class="sigma-node c-165" cx="434.814" cy="871.668" r="2.235"/><circle class="sigma-node c-167" cx="442.213" cy="944.009" r="2.235"/><circle class="sigma-node c-167" cx="436.422" cy="951.032" r="2.235"/><circle class="sigma-node c-167" cx="443.336" cy="954.453" r="2.457"/><circle class="sigma-node c-167" cx="446.068" cy="938.799" r="2.235"/><circle class="sigma-node c-167" cx="451.745" cy="938.193" r="2.235"/><circle class="sigma-node c-167" cx="457.185" cy="953.488" r="2.235"/><circle class="sigma-node c-167" cx="458.21" cy="940.014" r="2.235"/><circle class="sigma-node c-167" cx="449.326" cy="948.398" r="3.566"/><circle class="sigma-node c-167" cx="458.124" cy="945.761" r="2.235"/><circle class="sigma-node c-168" cx="545.718" cy="539.667" r="2.235"/><circle class="sigma-node c-168" cx="533.383" cy="539.11" r="3.344"/><circle class="sigma-node c-168" cx="545.317" cy="546.04" r="2.235"/><circle class="sigma-node c-168" cx="534.231" cy="546.989" r="2.235"/><circle class="sigma-node c-74" cx="514.698" cy="530.116" r="2.457"/><circle class="sigma-node c-168" cx="540.278" cy="550.44" r="2.235"/><circle class="sigma-node c-168" cx="540.473" cy="535.445" r="2.235"/><circle class="sigma-node c-169" cx="617.024" cy="552.208" r="2.235"/><circle class="sigma-node c-104" cx="585.082" cy="502.719" r="2.457"/><circle class="sigma-node c-170" cx="616.275" cy="525.025" r="2.235"/><circle class="sigma-node c-104" cx="577.848" cy="505.136" r="2.235"/><circle class="sigma-node c-170" cx="615.846" cy="518.929" r="2.235"/><circle class="sigma-node c-169" cx="619.913" cy="561.181" r="2.235"/><circle class="sigma-node c-171" cx="544.267" cy="610.25" r="2.235"/><circle class="sigma-node c-171" cx="543.729" cy="616.383" r="2.235"/><circle class="sigma-node c-172" cx="612.961" cy="599.282" r="2.235"/><circle class="sigma-node c-172" cx="617.596" cy="595.298" r="2.235"/><circle class="sigma-node c-173" cx="580.365" cy="621.703" r="2.235"/><circle class="sigma-node c-174" cx="677.084" cy="563.013" r="2.235"/><circle class="sigma-node c-175" cx="658.352" cy="511.606" r="2.235"/><circle class="sigma-node c-176" cx="678.326" cy="516.168" r="2.235"/><circle class="sigma-node c-174" cx="680.35" cy="549.558" r="2.235"/><circle class="sigma-node c-174" cx="672.434" cy="555.027" r="2.235"/><circle class="sigma-node c-176" cx="674.178" cy="520.617" r="2.235"/><circle class="sigma-node c-175" cx="656.264" cy="517.389" r="2.235"/><circle class="sigma-node c-174" cx="678.582" cy="556.23" r="2.679"/><circle class="sigma-node c-169" cx="622.607" cy="555.81" r="2.457"/><circle class="sigma-node c-177" cx="736.831" cy="508.337" r="2.235"/><circle class="sigma-node c-178" cx="731.71" cy="557.951" r="2.235"/><circle class="sigma-node c-178" cx="724.542" cy="549.21" r="2.235"/><circle class="sigma-node c-178" cx="731.092" cy="551.353" r="2.457"/><circle class="sigma-node c-179" cx="735.18" cy="527.162" r="2.235"/><circle class="sigma-node c-180" cx="676.347" cy="593.973" r="2.235"/><circle class="sigma-node c-180" cx="677.074" cy="602.852" r="2.235"/><circle class="sigma-node c-180" cx="684.177" cy="591.648" r="2.235"/><circle class="sigma-node c-180" cx="683.026" cy="599.803" r="2.679"/><circle class="sigma-node c-181" cx="728.487" cy="578.048" r="2.235"/><circle class="sigma-node c-181" cx="723.023" cy="580.597" r="2.235"/><circle class="sigma-node c-182" cx="539.353" cy="667.271" r="2.235"/><circle class="sigma-node c-182" cx="544.851" cy="670.013" r="2.235"/><circle class="sigma-node c-183" cx="562.649" cy="662.293" r="2.235"/><circle class="sigma-node c-184" cx="611.593" cy="676.268" r="2.235"/><circle class="sigma-node c-183" cx="563.261" cy="656.143" r="2.235"/><circle class="sigma-node c-184" cx="605.442" cy="680.867" r="2.235"/><circle class="sigma-node c-184" cx="612.333" cy="683.38" r="2.9"/><circle class="sigma-node c-173" cx="583.331" cy="627.086" r="2.457"/><circle class="sigma-node c-184" cx="618.802" cy="679.714" r="2.235"/><circle class="sigma-node c-173" cx="579.123" cy="631.252" r="2.235"/><circle class="sigma-node c-185" cx="546.74" cy="747.544" r="2.235"/><circle class="sigma-node c-185" cx="551.51" cy="739.533" r="2.235"/><circle class="sigma-node c-185" cx="559.331" cy="744.646" r="2.235"/><circle class="sigma-node c-185" cx="553.78" cy="748.677" r="2.679"/><circle class="sigma-node c-186" cx="604.483" cy="727.877" r="2.235"/><circle class="sigma-node c-186" cx="609.094" cy="723.936" r="2.457"/><circle class="sigma-node c-184" cx="607.141" cy="688.698" r="2.235"/><circle class="sigma-node c-186" cx="605.686" cy="718.507" r="2.235"/><circle class="sigma-node c-187" cx="636.879" cy="634.734" r="2.235"/><circle class="sigma-node c-187" cx="642.341" cy="638.959" r="2.679"/><circle class="sigma-node c-188" cx="674.893" cy="675.053" r="2.235"/><circle class="sigma-node c-188" cx="673.22" cy="665.572" r="2.235"/><circle class="sigma-node c-187" cx="645.525" cy="632.697" r="2.235"/><circle class="sigma-node c-187" cx="636.988" cy="643.598" r="2.235"/><circle class="sigma-node c-188" cx="677.983" cy="669.868" r="2.457"/><circle class="sigma-node c-189" cx="730.967" cy="662.942" r="2.235"/><circle class="sigma-node c-190" cx="697.733" cy="642.409" r="2.235"/><circle class="sigma-node c-190" cx="694.375" cy="632.072" r="2.457"/><circle class="sigma-node c-190" cx="699.275" cy="636.353" r="2.457"/><circle class="sigma-node c-189" cx="736.498" cy="660.462" r="2.235"/><circle class="sigma-node c-190" cx="688.339" cy="627.459" r="2.235"/><circle class="sigma-node c-191" cx="668.078" cy="723.902" r="2.235"/><circle class="sigma-node c-192" cx="651.192" cy="746.905" r="2.235"/><circle class="sigma-node c-191" cx="662.08" cy="725.304" r="2.235"/><circle class="sigma-node c-193" cx="657.304" cy="693.137" r="2.235"/><circle class="sigma-node c-193" cx="652.653" cy="689.303" r="2.235"/><circle class="sigma-node c-194" cx="686.565" cy="713.613" r="2.235"/><circle class="sigma-node c-195" cx="724.164" cy="707.431" r="2.235"/><circle class="sigma-node c-196" cx="722.939" cy="730.855" r="2.235"/><circle class="sigma-node c-196" cx="717.088" cy="729.486" r="2.235"/><circle class="sigma-node c-195" cx="718.961" cy="710.716" r="2.235"/><circle class="sigma-node c-194" cx="688.204" cy="719.626" r="2.235"/><circle class="sigma-node c-177" cx="740.669" cy="503.634" r="2.235"/><circle class="sigma-node c-179" cx="740.501" cy="529.878" r="2.235"/><circle class="sigma-node c-197" cx="791.923" cy="509.857" r="2.235"/><circle class="sigma-node c-197" cx="794.458" cy="504.269" r="2.235"/><circle class="sigma-node c-198" cx="829.184" cy="560.864" r="2.235"/><circle class="sigma-node c-198" cx="825.063" cy="552.464" r="2.235"/><circle class="sigma-node c-199" cx="799.146" cy="521.7" r="2.235"/><circle class="sigma-node c-198" cx="833.724" cy="555.244" r="2.679"/><circle class="sigma-node c-198" cx="831.67" cy="548.886" r="2.235"/><circle class="sigma-node c-199" cx="803.446" cy="517.428" r="2.235"/><circle class="sigma-node c-200" cx="750.437" cy="599.407" r="2.235"/><circle class="sigma-node c-200" cx="745.886" cy="603.434" r="2.235"/><circle class="sigma-node c-201" cx="772.037" cy="580.719" r="2.235"/><circle class="sigma-node c-201" cx="775.149" cy="585.888" r="2.235"/><circle class="sigma-node c-202" cx="802.381" cy="570.021" r="2.235"/><circle class="sigma-node c-203" cx="822.077" cy="611.257" r="2.235"/><circle class="sigma-node c-203" cx="818.912" cy="616.455" r="2.235"/><circle class="sigma-node c-202" cx="801.969" cy="563.925" r="2.235"/><circle class="sigma-node c-204" cx="872.848" cy="548.657" r="2.235"/><circle class="sigma-node c-205" cx="911.365" cy="524.437" r="2.235"/><circle class="sigma-node c-204" cx="875.698" cy="553.982" r="2.235"/><circle class="sigma-node c-205" cx="911.689" cy="530.567" r="2.235"/><circle class="sigma-node c-206" cx="964.711" cy="554.924" r="2.235"/><circle class="sigma-node c-206" cx="963.54" cy="560.934" r="2.235"/><circle class="sigma-node c-207" cx="943.645" cy="532.162" r="2.235"/><circle class="sigma-node c-207" cx="944.305" cy="526.074" r="2.235"/><circle class="sigma-node c-208" cx="871.052" cy="574.278" r="2.235"/><circle class="sigma-node c-209" cx="875.261" cy="606.766" r="2.235"/><circle class="sigma-node c-210" cx="904.525" cy="618.498" r="2.235"/><circle class="sigma-node c-209" cx="878.639" cy="601.602" r="2.235"/><circle class="sigma-node c-208" cx="873.602" cy="579.748" r="2.235"/><circle class="sigma-node c-210" cx="904.628" cy="612.418" r="2.235"/><circle class="sigma-node c-211" cx="953.141" cy="601.896" r="2.235"/><circle class="sigma-node c-211" cx="953.576" cy="595.812" r="2.235"/><circle class="sigma-node c-212" cx="755.068" cy="642.847" r="2.235"/><circle class="sigma-node c-212" cx="756.165" cy="636.186" r="2.457"/><circle class="sigma-node c-212" cx="749.873" cy="632.749" r="2.235"/><circle class="sigma-node c-213" cx="807.565" cy="658.009" r="2.235"/><circle class="sigma-node c-214" cx="826.658" cy="668.1" r="2.235"/><circle class="sigma-node c-215" cx="850.075" cy="641.023" r="2.235"/><circle class="sigma-node c-214" cx="822.069" cy="672.229" r="2.235"/><circle class="sigma-node c-213" cx="804.8" cy="663.477" r="2.235"/><circle class="sigma-node c-215" cx="848.733" cy="647.922" r="2.235"/><circle class="sigma-node c-215" cx="856.479" cy="646.766" r="2.9"/><circle class="sigma-node c-216" cx="756.517" cy="693.868" r="2.235"/><circle class="sigma-node c-217" cx="785.868" cy="739.309" r="2.235"/><circle class="sigma-node c-216" cx="752.511" cy="698.476" r="2.235"/><circle class="sigma-node c-218" cx="785.147" cy="710.229" r="2.235"/><circle class="sigma-node c-219" cx="768.974" cy="745.074" r="2.235"/><circle class="sigma-node c-218" cx="789.209" cy="705.629" r="2.235"/><circle class="sigma-node c-217" cx="785.11" cy="733.337" r="2.235"/><circle class="sigma-node c-220" cx="819.178" cy="745.412" r="2.235"/><circle class="sigma-node c-220" cx="819.582" cy="734.014" r="2.457"/><circle class="sigma-node c-220" cx="824.148" cy="740.468" r="2.457"/><circle class="sigma-node c-221" cx="807.266" cy="691.198" r="2.235"/><circle class="sigma-node c-221" cx="810.166" cy="696.71" r="2.235"/><circle class="sigma-node c-220" cx="814.053" cy="730.768" r="2.235"/><circle class="sigma-node c-222" cx="898.955" cy="679.765" r="2.235"/><circle class="sigma-node c-223" cx="898.251" cy="650.64" r="2.235"/><circle class="sigma-node c-223" cx="899.493" cy="644.673" r="2.235"/><circle class="sigma-node c-222" cx="895.384" cy="684.683" r="2.235"/><circle class="sigma-node c-224" cx="938.874" cy="657.738" r="2.235"/><circle class="sigma-node c-224" cx="937.303" cy="663.66" r="2.235"/><circle class="sigma-node c-225" cx="913.192" cy="730.418" r="2.235"/><circle class="sigma-node c-226" cx="878.698" cy="715.17" r="2.235"/><circle class="sigma-node c-225" cx="910.148" cy="735.736" r="2.235"/><circle class="sigma-node c-226" cx="880.549" cy="709.309" r="2.235"/><circle class="sigma-node c-227" cx="527.371" cy="797.57" r="2.235"/><circle class="sigma-node c-227" cx="533.24" cy="795.829" r="2.235"/><circle class="sigma-node c-228" cx="588.08" cy="749.417" r="2.235"/><circle class="sigma-node c-229" cx="589.461" cy="788.11" r="2.235"/><circle class="sigma-node c-228" cx="585.692" cy="758.691" r="2.235"/><circle class="sigma-node c-228" cx="591.01" cy="755.421" r="2.457"/><circle class="sigma-node c-229" cx="583.411" cy="787.52" r="2.235"/><circle class="sigma-node c-230" cx="523.039" cy="828.059" r="2.235"/><circle class="sigma-node c-231" cx="543.67" cy="828.87" r="2.235"/><circle class="sigma-node c-232" cx="517.548" cy="869.63" r="2.235"/><circle class="sigma-node c-230" cx="527.449" cy="823.743" r="2.235"/><circle class="sigma-node c-232" cx="525.215" cy="869.67" r="2.235"/><circle class="sigma-node c-231" cx="545.439" cy="823.042" r="2.235"/><circle class="sigma-node c-233" cx="580.077" cy="825.504" r="2.235"/><circle class="sigma-node c-234" cx="605.623" cy="840.681" r="2.235"/><circle class="sigma-node c-233" cx="565.967" cy="827.995" r="2.235"/><circle class="sigma-node c-234" cx="611.672" cy="840.72" r="2.235"/><circle class="sigma-node c-233" cx="572.714" cy="820.432" r="2.235"/><circle class="sigma-node c-233" cx="573.912" cy="829.32" r="2.679"/><circle class="sigma-node c-235" cx="673.93" cy="797.317" r="2.235"/><circle class="sigma-node c-236" cx="649.355" cy="776.032" r="2.235"/><circle class="sigma-node c-235" cx="679.358" cy="799.88" r="2.235"/><circle class="sigma-node c-237" cx="631.58" cy="808.426" r="2.235"/><circle class="sigma-node c-192" cx="655.493" cy="751.873" r="2.457"/><circle class="sigma-node c-237" cx="640.229" cy="809.416" r="2.235"/><circle class="sigma-node c-192" cx="660.661" cy="748.57" r="2.235"/><circle class="sigma-node c-236" cx="645.855" cy="771.139" r="2.235"/><circle class="sigma-node c-238" cx="687.409" cy="770.324" r="2.235"/><circle class="sigma-node c-239" cx="731.246" cy="809.81" r="2.9"/><circle class="sigma-node c-239" cx="736.553" cy="803.7" r="2.235"/><circle class="sigma-node c-238" cx="684.458" cy="775.731" r="2.235"/><circle class="sigma-node c-239" cx="724.054" cy="807.008" r="2.235"/><circle class="sigma-node c-239" cx="728.054" cy="801.552" r="2.235"/><circle class="sigma-node c-240" cx="666.714" cy="850.001" r="2.235"/><circle class="sigma-node c-237" cx="628.925" cy="817.303" r="2.235"/><circle class="sigma-node c-240" cx="671.108" cy="842.775" r="2.235"/><circle class="sigma-node c-240" cx="672.771" cy="849.807" r="2.457"/><circle class="sigma-node c-237" cx="635.16" cy="814.548" r="2.679"/><circle class="sigma-node c-239" cx="725.833" cy="815.094" r="2.235"/><circle class="sigma-node c-241" cx="539.675" cy="930.039" r="2.457"/><circle class="sigma-node c-232" cx="522.428" cy="876.091" r="2.9"/><circle class="sigma-node c-232" cx="512.809" cy="882.666" r="2.235"/><circle class="sigma-node c-232" cx="529.18" cy="877.855" r="2.235"/><circle class="sigma-node c-232" cx="519.164" cy="882.708" r="2.457"/><circle class="sigma-node c-241" cx="539.825" cy="922.978" r="2.235"/><circle class="sigma-node c-241" cx="532.297" cy="929.661" r="2.235"/><circle class="sigma-node c-242" cx="617.901" cy="921.832" r="2.457"/><circle class="sigma-node c-243" cx="597.639" cy="886.801" r="2.235"/><circle class="sigma-node c-242" cx="610.644" cy="922.474" r="2.235"/><circle class="sigma-node c-243" cx="603.892" cy="885.444" r="2.457"/><circle class="sigma-node c-242" cx="617.284" cy="914.484" r="2.235"/><circle class="sigma-node c-243" cx="601.865" cy="879.836" r="2.235"/><circle class="sigma-node c-244" cx="512.025" cy="992.126" r="2.235"/><circle class="sigma-node c-244" cx="518" cy="990.785" r="2.235"/><circle class="sigma-node c-245" cx="573.392" cy="990.057" r="2.235"/><circle class="sigma-node c-245" cx="579.466" cy="989.26" r="2.235"/><circle class="sigma-node c-246" cx="585.053" cy="958.07" r="2.235"/><circle class="sigma-node c-246" cx="591.175" cy="957.486" r="2.235"/><circle class="sigma-node c-247" cx="666.961" cy="908.045" r="2.235"/><circle class="sigma-node c-247" cx="661.871" cy="911.409" r="2.235"/><circle class="sigma-node c-248" cx="700.164" cy="931.316" r="2.235"/><circle class="sigma-node c-249" cx="699.358" cy="876.21" r="2.235"/><circle class="sigma-node c-249" cx="709.802" cy="879.7" r="2.235"/><circle class="sigma-node c-249" cx="702.158" cy="881.617" r="2.457"/><circle class="sigma-node c-250" cx="660.298" cy="947.252" r="2.235"/><circle class="sigma-node c-250" cx="666.229" cy="945.647" r="2.235"/><circle class="sigma-node c-248" cx="694.74" cy="934.159" r="2.235"/><circle class="sigma-node c-251" cx="776.436" cy="759.147" r="2.235"/><circle class="sigma-node c-252" cx="774.369" cy="796.297" r="2.235"/><circle class="sigma-node c-219" cx="764.678" cy="749.443" r="2.235"/><circle class="sigma-node c-252" cx="770.433" cy="800.982" r="2.235"/><circle class="sigma-node c-251" cx="770.447" cy="760.802" r="2.235"/><circle class="sigma-node c-253" cx="780.609" cy="871.235" r="2.235"/><circle class="sigma-node c-254" cx="812.346" cy="817.291" r="2.235"/><circle class="sigma-node c-255" cx="856.155" cy="811.916" r="2.235"/><circle class="sigma-node c-254" cx="807.743" cy="821.294" r="2.235"/><circle class="sigma-node c-255" cx="859.894" cy="807.063" r="2.235"/><circle class="sigma-node c-253" cx="775.642" cy="874.826" r="2.235"/><circle class="sigma-node" cx="822.277" cy="970.497" r="2.457" fill="#a8a699"/><circle class="sigma-node" cx="872.874" cy="925.884" r="2.457" fill="#a5aa99"/></g></svg>