<svg xmlns="http://www.w3.org/2000/svg" viewBox="0 0 512 512"><path d="M146.798 286c-5.52 0-10 4.48-10 10s4.48 10 10 10 10-4.48 10-10-4.48-10-10-10zm0 40c-5.523 0-10 4.477-10 10v126c0 5.523 4.477 10 10 10s10-4.477 10-10V336c0-5.523-4.478-10-10-10z"/><path d="M424.194 7.516a10 10 0 0 0-15.592-5.586c-9.993 7.315-60.255 44.942-68.442 67.424a49.889 49.889 0 0 0 2.773 40.39c-12.26 17.586-24.959 41.868-36.135 65.593V10c0-5.523-4.478-10-10-10h-80c-5.523 0-10 4.477-10 10v196h-1.795l-17.08-66.449-.026-.099-15.53-57.95-.002-.006a10.1 10.1 0 0 0-.323-.984c-.038-.099-.084-.194-.125-.292a9.693 9.693 0 0 0-.303-.665c-.054-.106-.113-.208-.171-.312a9.709 9.709 0 0 0-.56-.897 10.279 10.279 0 0 0-.432-.57c-.042-.051-.076-.107-.119-.157l-59.34-69.92a10 10 0 0 0-17.434 4.53l-17.93 90.62c-.013.067-.016.135-.028.201a9.979 9.979 0 0 0-.109.784c-.011.111-.018.222-.025.333a10.36 10.36 0 0 0-.01 1.095c.012.255.037.508.069.761.013.104.021.207.037.31.055.353.125.702.217 1.047l15.512 57.892 10.406 41.166c-6.07 1.035-11.665 3.905-16.11 8.35-5.667 5.668-8.789 13.201-8.789 21.211 0 13.036 8.361 24.152 20 28.28V462c0 27.57 22.43 50 50 50h200c27.57 0 50-22.43 50-50V264.296a29.92 29.92 0 0 0 11.211-7.085c5.668-5.668 8.789-13.201 8.789-21.211 0-14.612-10.504-26.811-24.356-29.46 6.523-26.504 11.121-52.843 12.818-73.509 13.35-5.163 23.88-15.762 28.875-29.48 8.203-22.526-6.841-83.95-9.941-96.035zm-67.955 118.239a49.921 49.921 0 0 0 13.808 7.682 50.02 50.02 0 0 0 14.824 2.971c-2.005 19.938-6.599 44.761-12.911 69.592h-57.164c15.271-34.604 29.376-61.908 41.443-80.245zM226.798 20h60v23h-20c-5.522 0-10 4.477-10 10s4.478 10 10 10h20v20h-20c-5.522 0-10 4.477-10 10s4.478 10 10 10h20v20h-20c-5.522 0-10 4.477-10 10s4.478 10 10 10h20v20h-20c-5.522 0-10 4.477-10 10s4.478 10 10 10h20v23h-60V20zM109.154 36.443l41.027 48.342c-6.167 7.791-14.635 13.379-24.41 15.997-9.737 2.609-19.822 2.017-29.028-1.61l12.411-62.729zm-9.023 84.551a65.712 65.712 0 0 0 13.479 1.403c5.781 0 11.602-.76 17.336-2.296 10.238-2.742 19.46-7.778 27.134-14.647l10.486 39.127L184.353 206h-62.139l-11.552-45.701a3.057 3.057 0 0 0-.036-.137l-10.495-39.168zM376.798 462c0 16.542-13.458 30-30 30h-200c-16.542 0-30-13.458-30-30V266h260v196zm20-226a9.93 9.93 0 0 1-2.931 7.068 9.933 9.933 0 0 1-7.069 2.932h-280c-5.514 0-10-4.486-10-10a9.93 9.93 0 0 1 2.931-7.068 9.933 9.933 0 0 1 7.069-2.932h90.385l.058.002.039-.002h102.224l.049.002.034-.002h80.07l.037.002.059-.002h7.046c5.512 0 9.999 4.486 9.999 10zm18.543-139.291c-3.529 9.692-11.659 16.809-21.771 19.041-5.533 1.234-11.301.851-16.682-1.106a29.849 29.849 0 0 1-13.876-10.379l-.004-.006a29.967 29.967 0 0 1-4.055-28.066c3.748-10.292 28.141-32.238 49.371-48.931 5.84 26.538 10.758 59.174 7.017 69.447z"/></svg>