<svg viewBox="-96 0 512 512" xmlns="http://www.w3.org/2000/svg"><path d="M270.031 326c5.52 0 10-4.48 10-10s-4.48-10-10-10-10 4.48-10 10 4.48 10 10 10zm0 0"/><path d="M1.93 320.16a292.326 292.326 0 0 0 29.144 75.254 291.898 291.898 0 0 0 48.637 64.406l.32.325V502c0 5.523 4.477 10 10 10h180c5.524 0 10-4.477 10-10v-43.008a248.138 248.138 0 0 0 40-135.101V246c0-22.055-17.945-40-40-40-8.23 0-15.886 2.5-22.254 6.781-5.472-15.578-20.32-26.781-37.746-26.781-8.23 0-15.886 2.5-22.254 6.781-5.472-15.578-20.32-26.781-37.746-26.781-7.136 0-13.984 1.867-20 5.355V80c0-22.098-17.898-40-40-40-22.054 0-40 17.945-40 40v143.98L32.703 242.2C7.316 259.124-5.055 290.452 1.93 320.16zm41.87-61.32l16.231-10.824V316c0 5.523 4.477 10 10 10s10-4.477 10-10V80c0-11.027 8.973-20 20-20 11.047 0 20 8.953 20 20v196c0 5.523 4.477 10 10 10s10-4.477 10-10v-70c0-11.047 8.953-20 20-20 11.028 0 20 8.973 20 20v70c0 5.523 4.477 10 10 10s10-4.477 10-10v-50c0-11.027 8.973-20 20-20s20 8.973 20 20v50c0 5.523 4.477 10 10 10s10-4.477 10-10v-30c0-11.027 8.973-20 20-20s20 8.973 20 20v77.89c0 44.782-13.18 88.852-38.32 126.563a10.02 10.02 0 0 0-1.68 5.547v36h-160v-36a10 10 0 0 0-2.93-7.07c-2.117-2.41-27.109-24.73-48.554-63.246a272.564 272.564 0 0 1-27.152-70.102C16.316 293.965 25.32 271.16 43.8 258.84zm0 0"/><path d="M231.203 442.129c4.586 3.058 10.797 1.836 13.867-2.77 16.598-24.882 27.446-52.414 32.243-81.832.886-5.449-2.813-10.59-8.262-11.476-5.453-.89-10.59 2.808-11.48 8.258-4.333 26.582-14.133 51.46-29.137 73.953-3.067 4.593-1.825 10.8 2.77 13.867zM30.031 90c5.524 0 10-4.477 10-10 0-33.086 26.918-60 60-60 33.086 0 60 26.914 60 60 0 5.523 4.477 10 10 10s10-4.477 10-10c0-44.113-35.886-80-80-80s-80 35.887-80 80c0 5.523 4.477 10 10 10zm0 0"/></svg>