<?xml version="1.0" encoding="iso-8859-1"?>
<!-- Generator: Adobe Illustrator 19.0.0, SVG Export Plug-In . SVG Version: 6.00 Build 0)  -->
<svg version="1.1" id="Capa_1" xmlns="http://www.w3.org/2000/svg" xmlns:xlink="http://www.w3.org/1999/xlink" x="0px" y="0px"
	 viewBox="0 0 480.164 480.164" style="enable-background:new 0 0 480.164 480.164;" xml:space="preserve">
<g>
	<g>
		<path d="M464.164,232.082c-3.141,0.102-6.352,1.938-7.594,5.027l-7.133,17.84l-17.719-64.973c-0.875-3.199-3.633-5.527-6.93-5.855
			c-3.359-0.359-6.461,1.422-7.945,4.383l-21.789,43.578h-12.249c11.185-22.096,17.194-46.638,17.194-72
			c0-88.223-71.773-160-160-160s-160,71.777-160,160c0,25.371,6.015,49.92,17.206,72.021l-1.042-0.021
			c-3.219,0.102-6.352,1.938-7.594,5.027l-7.133,17.84l-17.719-64.973c-0.875-3.199-3.633-5.527-6.93-5.855
			c-3.391-0.359-6.461,1.422-7.945,4.383l-21.789,43.578H0v16h32c3.031,0,5.797-1.711,7.156-4.422l14.633-29.273l18.492,67.801
			c0.906,3.316,3.828,5.684,7.266,5.883c0.148,0.008,0.305,0.012,0.453,0.012c3.258,0,6.211-1.98,7.43-5.027l13.945-34.863
			l5.367,0.108c4.106,6.168,8.52,12.16,13.508,17.767c0.219,0.859,0.586,1.691,1.094,2.453
			c26.258,39.383,27.789,47.543,32.344,71.77c0.844,4.449,1.773,9.391,2.953,15.078c2.036,9.923,7.845,18.002,15.669,23.056
			c-2.702,3.883-4.31,8.58-4.31,13.659c0,8.523,4.497,15.975,11.211,20.233c-1.985,3.492-3.211,7.471-3.211,11.767
			c0,8.523,4.497,15.975,11.211,20.233c-1.985,3.492-3.211,7.471-3.211,11.767c0,13.234,10.766,24,24,24h64
			c13.234,0,24-10.766,24-24c0-4.296-1.226-8.274-3.211-11.767c6.714-4.259,11.211-11.71,11.211-20.233
			c0-4.296-1.226-8.274-3.211-11.767c6.714-4.259,11.211-11.71,11.211-20.233c0-5.079-1.607-9.775-4.309-13.658
			c7.824-5.052,13.632-13.125,15.668-23.037c1.18-5.707,2.109-10.648,2.953-15.098c4.555-24.227,6.086-32.387,32.344-71.77
			c0.508-0.762,0.875-1.594,1.094-2.453c5.047-5.673,9.51-11.737,13.654-17.984H400c3.031,0,5.797-1.711,7.156-4.422l14.633-29.273
			l18.492,67.801c0.906,3.316,3.828,5.684,7.266,5.883c0.148,0.008,0.305,0.012,0.453,0.012c3.258,0,6.211-1.98,7.43-5.027
			l13.945-34.863l10.461,0.211l0.328-16L464.164,232.082z M272,464.082h-64c-4.414,0-8-3.59-8-8s3.586-8,8-8h64c4.414,0,8,3.59,8,8
			S276.414,464.082,272,464.082z M280,432.082h-8h-64h-8c-4.414,0-8-3.59-8-8s3.586-8,8-8h80c4.414,0,8,3.59,8,8
			S284.414,432.082,280,432.082z M288,400.082h-8h-80h-8c-4.414,0-8-3.59-8-8s3.586-8,8-8h96c4.414,0,8,3.59,8,8
			S292.414,400.082,288,400.082z M344.898,258.59c-1.305,1.387-2.047,3.164-2.164,4.992c-25.586,38.84-27.563,49.379-32.148,73.75
			c-0.82,4.359-1.734,9.207-2.898,14.824c-1.922,9.375-9.727,15.926-18.969,15.926H288h-14.468l21.176-120H304
			c13.234,0,24-10.766,24-24v-32h24c4.422,0,8-3.582,8-8v-40c0-13.234-10.766-24-24-24v-24c0-13.234-10.766-24-24-24h-8
			c0-13.234-10.766-24-24-24h-24c-4.422,0-8,3.582-8,8v184c0,4.418,3.578,8,8,8h22.468l-21.176,120h-34.583l-21.176-120H224
			c4.422,0,8-3.582,8-8v-184c0-4.418-3.578-8-8-8h-24c-13.234,0-24,10.766-24,24h-8c-13.234,0-24,10.766-24,24v24
			c-13.234,0-24,10.766-24,24v56c0,4.418,3.578,8,8,8h24v16c0,13.234,10.766,24,24,24h9.292l21.176,120H192h-0.719
			c-9.242,0-17.047-6.551-18.969-15.945c-1.164-5.598-2.078-10.445-2.898-14.805c-4.586-24.371-6.563-34.91-32.148-73.75
			c-0.117-1.828-0.859-3.605-2.164-4.992C109.883,231.879,96,196.898,96,160.082c0-79.402,64.602-144,144-144s144,64.598,144,144
			C384,196.898,370.117,231.879,344.898,258.59z M296,136.082v-24c0-4.418-3.578-8-8-8h-24v-40h16c4.414,0,8,3.59,8,8v8
			c0,4.418,3.578,8,8,8h16c4.414,0,8,3.59,8,8v32c0,4.418,3.578,8,8,8h8c4.414,0,8,3.59,8,8v32h-24h-32c-4.422,0-8,3.582-8,8v16h16
			v-8h16v32c0,4.41-3.586,8-8,8h-40v-112h16v16H296z M160,160.082c-4.422,0-8,3.582-8,8v24h-16v-48c0-4.41,3.586-8,8-8h8
			c4.422,0,8-3.582,8-8v-32c0-4.41,3.586-8,8-8h8v16h16v-24v-8c0-4.41,3.586-8,8-8h16v168h-40c-4.414,0-8-3.59-8-8v-24v-24h16v-16
			H160z"/>
	</g>
</g>
<g>
</g>
<g>
</g>
<g>
</g>
<g>
</g>
<g>
</g>
<g>
</g>
<g>
</g>
<g>
</g>
<g>
</g>
<g>
</g>
<g>
</g>
<g>
</g>
<g>
</g>
<g>
</g>
<g>
</g>
</svg>
