<svg viewBox="-96 0 512 512" xmlns="http://www.w3.org/2000/svg"><path d="m270.03125 326c5.519531 0 10-4.480469 10-10s-4.480469-10-10-10-10 4.480469-10 10 4.480469 10 10 10zm0 0"/><path d="m1.929688 320.160156c6.199218 26.335938 16.003906 51.65625 29.144531 75.253906 13.148437 23.613282 29.511719 45.28125 48.636719 64.40625l.320312.324219v41.855469c0 5.523438 4.476562 10 10 10h180c5.523438 0 10-4.476562 10-10v-43.007812c25.953125-39.984376 40-86.863282 40-135.101563v-77.890625c0-22.054688-17.945312-40-40-40-8.230469 0-15.886719 2.5-22.253906 6.78125-5.472656-15.578125-20.320313-26.78125-37.746094-26.78125-8.230469 0-15.886719 2.5-22.253906 6.78125-5.472656-15.578125-20.320313-26.78125-37.746094-26.78125-7.136719 0-13.984375 1.867188-20 5.355469v-91.355469c0-22.097656-17.898438-40-40-40-22.054688 0-40 17.945312-40 40v143.980469l-27.328125 18.21875c-25.386719 16.925781-37.757813 48.253906-30.773437 77.960937zm41.871093-61.320312 16.230469-10.824219v67.984375c0 5.523438 4.476562 10 10 10s10-4.476562 10-10c0-7.289062 0-229.96875 0-236 0-11.027344 8.972656-20 20-20 11.046875 0 20 8.953125 20 20v196c0 5.523438 4.476562 10 10 10s10-4.476562 10-10v-70c0-11.046875 8.953125-20 20-20 11.027344 0 20 8.972656 20 20v70c0 5.523438 4.476562 10 10 10s10-4.476562 10-10v-50c0-11.027344 8.972656-20 20-20s20 8.972656 20 20v50c0 5.523438 4.476562 10 10 10s10-4.476562 10-10v-30c0-11.027344 8.972656-20 20-20s20 8.972656 20 20v77.890625c0 44.78125-13.179688 88.851563-38.320312 126.5625-1.09375 1.644531-1.679688 3.574219-1.679688 5.546875v36h-160v-36c0-2.652344-1.054688-5.195312-2.929688-7.070312-2.117187-2.410157-27.109374-24.730469-48.554687-63.246094-12.238281-21.984375-21.375-45.570313-27.152344-70.101563-5.078125-21.617187 3.925781-44.421875 22.40625-56.742187zm0 0"/><path d="m231.203125 442.128906c4.585937 3.058594 10.796875 1.835938 13.867187-2.769531 16.597657-24.882813 27.445313-52.414063 32.242188-81.832031.886719-5.449219-2.8125-10.589844-8.261719-11.476563-5.453125-.890625-10.589843 2.808594-11.480469 8.257813-4.332031 26.582031-14.132812 51.460937-29.136718 73.953125-3.066406 4.59375-1.824219 10.800781 2.769531 13.867187zm0 0"/><path d="m30.03125 90c5.523438 0 10-4.476562 10-10 0-33.085938 26.917969-60 60-60 33.085938 0 60 26.914062 60 60 0 5.523438 4.476562 10 10 10s10-4.476562 10-10c0-44.113281-35.886719-80-80-80s-80 35.886719-80 80c0 5.523438 4.476562 10 10 10zm0 0"/></svg>